{
.appVersion = "3091";
copyright = "Copyright 2021 The Albert Sans Project Authors (https://github.com/usted/Albert-Sans)";
customParameters = (
{
name = "Use Typo Metrics";
value = 1;
},
{
name = fsType;
value = (
);
},
{
name = "Variable Font Origin";
value = "9F107B1E-3A61-4335-981B-27DD48125C7E";
},
{
name = "Use Line Breaks";
value = 1;
},
{
name = license;
value = "This Font Software is licensed under the SIL Open Font License, Version 1.1. This license is available with a FAQ at: https://scripts.sil.org/OFL";
},
{
name = licenseURL;
value = "https://scripts.sil.org/OFL";
},
{
name = Axes;
value = (
{
Name = Weight;
Tag = wght;
}
);
}
);
date = "2021-08-28 16:00:04 +0000";
designer = "Andreas Rasmussen";
designerURL = "https://www.andreasrasmussen.net";
familyName = "Albert Sans";
featurePrefixes = (
{
automatic = 1;
code = "languagesystem DFLT dflt;

languagesystem latn dflt;
languagesystem latn ROM;
languagesystem latn MOL;
languagesystem latn CAT;
";
name = Languagesystems;
}
);
features = (
{
code = "feature locl;
feature sups;
feature frac;
feature ordn;
";
name = aalt;
},
{
automatic = 1;
code = "lookup ccmp_latn_1 {
	sub fi by f i;
	sub fl by f l;
} ccmp_latn_1;

script latn;
lookup ccmp_latn_1;
";
name = ccmp;
},
{
automatic = 1;
code = "lookup locl_latn_0 {
	script latn;
	language ROM;
	sub Scedilla by Scommaaccent;
	sub scedilla by scommaaccent;
	sub Tcedilla by Tcommaaccent;
	sub tcedilla by tcommaaccent;
	language MOL;
	sub Scedilla by Scommaaccent;
	sub scedilla by scommaaccent;
	sub Tcedilla by Tcommaaccent;
	sub tcedilla by tcommaaccent;
} locl_latn_0;

lookup locl_latn_1 {
	script latn;
	language CAT;
	sub  l' periodcentered' l by ldot;
	sub  L' periodcentered' L by Ldot;
} locl_latn_1;
";
name = locl;
},
{
automatic = 1;
code = "sub one by onesuperior;
sub two by twosuperior;
sub three by threesuperior;
sub four by foursuperior;
";
name = sups;
},
{
automatic = 1;
code = "sub one slash four by onequarter;
sub one slash two by onehalf;

glyphs = (
{
glyphname = A;
lastChange = "2021-09-02 15:54:38 +0000";
layers = (
{
anchors = (
{
name = ogonek;
position = "{635.5, 0}";
},
{
name = top;
position = "{353.5, 700}";
}
);
guideLines = (
{
angle = -70.8724;
position = "{552.5, 86.5}";
},
{
angle = 70.5773;
position = "{155, 86.5}";
}
);
hints = (
{
horizontal = 1;
place = "{175, 92}";
type = Stem;
},
{
horizontal = 1;
place = "{700, -20}";
target = down;
type = TopGhost;
},
{
horizontal = 1;
place = "{0, 21}";
target = up;
type = BottomGhost;
}
);
layerId = "0CF0EA28-C756-4A9E-9D7C-CFEF350B4CFE";
paths = (
{
closed = 1;
nodes = (
"124.5 0 LINE",
"185.5 173 LINE",
"522.5 173 LINE",
"582.5 0 LINE",
"699.5 0 LINE",
"450.5 700 LINE",
"255.5 700 LINE",
"7.5 0 LINE"
);
},
{
closed = 1;
nodes = (
"490.5 268 LINE",
"218.5 268 LINE",
"336.5 605 LINE",
"372.5 605 LINE"
);
}
);
width = 707;
},
{
anchors = (
{
name = ogonek;
position = "{577.5, 0}";
},
{
name = top;
position = "{308.5, 700}";
}
);
guideLines = (
{
angle = -69.1455;
position = "{541.5, 105}";
},
{
angle = 68.9077;
position = "{72, 105}";
}
);
hints = (
{
horizontal = 1;
place = "{700, -20}";
target = down;
type = TopGhost;
},
{
horizontal = 1;
place = "{0, 21}";
target = up;
type = BottomGhost;
}
);
layerId = "6E968933-CD79-43C6-9231-80D77C940F4D";
paths = (
{
closed = 1;
nodes = (
"31.5 0 LINE",
"112.5 210 LINE",
"501.5 210 LINE",
"581.5 0 LINE",
"603.5 0 LINE",
"336.5 700 LINE",
"277.5 700 LINE",
"9.5 0 LINE"
);
},
{
closed = 1;
nodes = (
"494.5 230 LINE",
"119.5 230 LINE",
"291.5 680 LINE",
"323.5 680 LINE"
);
}
);
width = 612.99653;
},
{
anchors = (
{
name = ogonek;
position = "{713.5, 1}";
},
{
name = top;
position = "{398.5, 700}";
}
);
guideLines = (
{
angle = -70.3462;
position = "{586.5, 70}";
},
{
angle = 70.71;
position = "{210, 70}";
}
);
hints = (
{
horizontal = 1;
place = "{375, 141}";
type = Stem;
},
{
horizontal = 1;
place = "{297, -20}";
target = down;
type = TopGhost;
},
{
horizontal = 1;
place = "{0, 21}";
target = up;
type = BottomGhost;
}
);
layerId = "BAF31694-0472-4296-B0EA-1654553C45D2";
paths = (
{
closed = 1;
nodes = (
"185.5 0 LINE",
"234.5 140 LINE",
"561.5 140 LINE",
"611.5 0 LINE",
"791.5 0 LINE",
"537.5 700 LINE",
"261.5 700 LINE",
"5.5 0 LINE"
);
},
{
closed = 1;
nodes = (
"508.5 286 LINE",
"285.5 286 LINE",
"379.5 554 LINE",
"414.5 554 LINE"
);
}
);
width = 796.9967;
},
{
anchors = (
{
name = ogonek;
position = "{614.5, 0}";
},
{
name = top;
position = "{336.5, 700}";
}
);
guideLines = (
{
angle = 69.7174;
position = "{123.5, 92}";
},
{
angle = -69.9919;
position = "{549, 92}";
}
);
hints = (
{
horizontal = 1;
place = "{700, -20}";
target = down;
type = TopGhost;
},
{
horizontal = 1;
place = "{0, 21}";
target = up;
type = BottomGhost;
}
);
layerId = "9F107B1E-3A61-4335-981B-27DD48125C7E";
paths = (
{
closed = 1;
nodes = (
"89.5 0 LINE",
"157.5 184 LINE",
"515.5 184 LINE",
"582.5 0 LINE",
"663.5 0 LINE",
"408.5 700 LINE",
"264.5 700 LINE",
"8.5 0 LINE"
);
},
{
closed = 1;
nodes = (
"490.5 254 LINE",
"183.5 254 LINE",
"320.5 630 LINE",
"353.5 630 LINE"
);
}
);
width = 671.9967;
}
);
leftMetricsKey = "=H*0.1";
rightMetricsKey = "=H*0.1";
unicode = 0041;
},
{
glyphname = Aogonek;
lastChange = "2021-09-02 09:18:01 +0000";
layers = (
{
anchors = (
{
name = _ogonek;
position = "{-334, 0}";
}
);
components = (
{
name = A;
}
);
hints = (
{
place = "{456, 93}";
type = Stem;
},
{
place = "{456, 214}";
type = Stem;
},
{
horizontal = 1;
place = "{-213, 74}";
type = Stem;
}
);
layerId = "0CF0EA28-C756-4A9E-9D7C-CFEF350B4CFE";
paths = (
{
closed = 1;
nodes = (
"582 39 LINE SMOOTH",
"488 -5 OFFCURVE",
"455 -53 OFFCURVE",
"455 -104 CURVE SMOOTH",
"455 -184 OFFCURVE",
"525 -213 OFFCURVE",
"588 -213 CURVE SMOOTH",
"617 -213 OFFCURVE",
"646 -206 OFFCURVE",
"669 -197 CURVE",
"669 -125 LINE",
"646 -134 OFFCURVE",
"622 -139 OFFCURVE",
"603 -139 CURVE SMOOTH",
"569 -139 OFFCURVE",
"548 -120 OFFCURVE",
"548 -92 CURVE SMOOTH",
"548 -68 OFFCURVE",
"562 -47 OFFCURVE",
"605 -25 CURVE SMOOTH",
"654 0 LINE",
"624 58 LINE"
);
}
);
width = 707;
},
{
anchors = (
{
name = _ogonek;
position = "{-270, 0}";
}
);
components = (
{
name = A;
}
);
hints = (
{
place = "{422, 21}";
type = Stem;
},
{
horizontal = 1;
place = "{-185, 21}";
target = up;
type = BottomGhost;
}
);
layerId = "6E968933-CD79-43C6-9231-80D77C940F4D";
paths = (
{
closed = 1;
nodes = (
"520 -15 LINE SMOOTH",
"457 -43 OFFCURVE",
"433 -77 OFFCURVE",
"433 -115 CURVE SMOOTH",
"433 -166 OFFCURVE",
"472 -189 OFFCURVE",
"524 -189 CURVE SMOOTH",
"543 -189 OFFCURVE",
"565 -185 OFFCURVE",
"586 -177 CURVE",
"586 -156 LINE",
"565 -164 OFFCURVE",
"543 -169 OFFCURVE",
"523 -169 CURVE SMOOTH",
"484 -169 OFFCURVE",
"454 -152 OFFCURVE",
"454 -114 CURVE SMOOTH",
"454 -85 OFFCURVE",
"472 -56 OFFCURVE",
"524 -33 CURVE SMOOTH",
"595 0 LINE",
"588 16 LINE"
);
}
);
width = 612.99553;
},
{
anchors = (
{
name = _ogonek;
position = "{281, 1}";
}
);
components = (
{
name = A;
}
);
hints = (
{
place = "{194, 39}";
type = Stem;
},
{
place = "{456, 180}";
type = Stem;
},
{
horizontal = 1;
place = "{-218, 99}";
type = Stem;
}
);
layerId = "BAF31694-0472-4296-B0EA-1654553C45D2";
paths = (
{
closed = 1;
nodes = (
"642 67 LINE SMOOTH",
"512 13 OFFCURVE",
"476 -37 OFFCURVE",
"476 -100 CURVE SMOOTH",
"476 -180 OFFCURVE",
"540 -218 OFFCURVE",
"624 -218 CURVE SMOOTH",
"661 -218 OFFCURVE",
"695 -212 OFFCURVE",
"724 -203 CURVE",
"724 -104 LINE",
"696 -114 OFFCURVE",
"670 -119 OFFCURVE",
"649 -119 CURVE SMOOTH",
"621 -119 OFFCURVE",
"604 -107 OFFCURVE",
"604 -86 CURVE SMOOTH",
"604 -67 OFFCURVE",
"617 -48 OFFCURVE",
"672 -23 CURVE SMOOTH",
"718 -1 LINE",
"681 84 LINE"
);
}
);
width = 796.99623;
},
{
anchors = (
{
name = _ogonek;
position = "{-310, 0}";
}
);
components = (
{
name = A;
}
);
hints = (
{
place = "{25, 54}";
type = Stem;
},
{
horizontal = 1;
place = "{-69, 21}";
target = up;
type = BottomGhost;
}
);
layerId = "9F107B1E-3A61-4335-981B-27DD48125C7E";
paths = (
{
closed = 1;
nodes = (
"566 19 LINE SMOOTH",
"484 -19 OFFCURVE",
"454 -62 OFFCURVE",
"454 -108 CURVE SMOOTH",
"454 -177 OFFCURVE",
"513 -204 OFFCURVE",
"572 -204 CURVE SMOOTH",
"597 -204 OFFCURVE",
"623 -198 OFFCURVE",
"645 -190 CURVE",
"645 -137 LINE",
"623 -145 OFFCURVE",
"600 -150 OFFCURVE",
"581 -150 CURVE SMOOTH",
"545 -150 OFFCURVE",
"520 -132 OFFCURVE",
"520 -100 CURVE SMOOTH",
"520 -74 OFFCURVE",
"536 -50 OFFCURVE",
"582 -28 CURVE SMOOTH",
"639 0 LINE",
"618 42 LINE"
);
}
);
width = 671.99707;
}
);
leftMetricsKey = A;
rightMetricsKey = A;
unicode = 0104;
},
{
glyphname = AE;
lastChange = "2021-09-02 15:54:38 +0000";
layers = (
{
anchors = (
{
name = bottom;
position = "{522, 0}";
},
{
name = top;
position = "{522, 700}";
}
);
hints = (
{
place = "{468, 114}";
type = Stem;
},
{
horizontal = 1;
place = "{0, 89}";
type = Stem;
},
{
horizontal = 1;
place = "{143, 89}";
type = Stem;
},
{
horizontal = 1;
place = "{310, 88}";
type = Stem;
},
{
horizontal = 1;
place = "{611, 89}";
type = Stem;
}
);
layerId = "0CF0EA28-C756-4A9E-9D7C-CFEF350B4CFE";
paths = (
{
closed = 1;
nodes = (
"848.5 605 LINE",
"848.5 700 LINE",
"389.5 700 LINE",
"7.5 0 LINE",
"129.5 0 LINE",
"222.563 172 LINE",
"465.5 172 LINE",
"465.5 0 LINE",
"848.5 0 LINE",
"848.5 95 LINE",
"579.5 95 LINE",
"579.5 306 LINE",
"758.5 306 LINE",
"758.5 401 LINE",
"579.5 401 LINE",
"579.5 605 LINE"
);
},
{
closed = 1;
nodes = (
"465.5 621 LINE",
"465.5 267 LINE",
"273.964 267 LINE"
);
}
);
width = 903.5;
},
{
anchors = (
{
name = bottom;
position = "{454.5, 0}";
},
{
name = top;
position = "{454.5, 700}";
}
);
hints = (
{
place = "{447, 21}";
type = Stem;
},
{
horizontal = 1;
place = "{685, -20}";
target = down;
type = TopGhost;
},
{
horizontal = 1;
place = "{0, 21}";
target = up;
type = BottomGhost;
}
);
layerId = "6E968933-CD79-43C6-9231-80D77C940F4D";
paths = (
{
closed = 1;
nodes = (
"788.5 680 LINE",
"788.5 700 LINE",
"441.5 700 LINE",
"9.5 0 LINE",
"35.5 0 LINE",
"164.926 210 LINE",
"443.5 210 LINE",
"443.5 0 LINE",
"788.5 0 LINE",
"788.5 20 LINE",
"465.5 20 LINE",
"465.5 350 LINE",
"698.5 350 LINE",
"698.5 370 LINE",
"465.5 370 LINE",
"465.5 680 LINE"
);
},
{
closed = 1;
nodes = (
"443.5 662 LINE",
"443.5 230 LINE",
"177.252 230 LINE"
);
}
);
width = 863.50043;
},
{
anchors = (
{
name = bottom;
position = "{572.5, 0}";
},
{
name = top;
position = "{572.5, 700}";
}
);
hints = (
{
place = "{483, 176}";
type = Stem;
},
{
horizontal = 1;
place = "{0, 140}";
type = Stem;
},
{
horizontal = 1;
place = "{116, 134}";
type = Stem;
},
{
horizontal = 1;
place = "{290, 133}";
type = Stem;
},
{
horizontal = 1;
place = "{561, 139}";
type = Stem;
}
);
layerId = "BAF31694-0472-4296-B0EA-1654553C45D2";
paths = (
{
closed = 1;
nodes = (
"909.5 554 LINE",
"909.5 700 LINE",
"364.5 700 LINE",
"5.5 0 LINE",
"195.5 0 LINE",
"265.869 140 LINE",
"481.5 140 LINE",
"481.5 0 LINE",
"909.5 0 LINE",
"909.5 146 LINE",
"655.5 146 LINE",
"655.5 287 LINE",
"807.5 287 LINE",
"807.5 423 LINE",
"655.5 423 LINE",
"655.5 554 LINE"
);
},
{
closed = 1;
nodes = (
"481.5 569 LINE",
"481.5 286 LINE",
"339.254 286 LINE"
);
}
);
width = 944.49519;
},
{
anchors = (
{
name = bottom;
position = "{498, 0}";
},
{
name = top;
position = "{498, 700}";
}
);
hints = (
{
place = "{550, 64}";
type = Stem;
},
{
horizontal = 1;
place = "{257, -20}";
target = down;
type = TopGhost;
},
{
horizontal = 1;
place = "{0, 21}";
target = up;
type = BottomGhost;
}
);
layerId = "9F107B1E-3A61-4335-981B-27DD48125C7E";
paths = (
{
closed = 1;
nodes = (
"827.5 630 LINE",
"827.5 700 LINE",
"409.5 700 LINE",
"8.5 0 LINE",
"95.5 0 LINE",
"200.519 184 LINE",
"458.5 184 LINE",
"458.5 0 LINE",
"827.5 0 LINE",
"827.5 70 LINE",
"538.5 70 LINE",
"538.5 321 LINE",
"736.5 321 LINE",
"736.5 391 LINE",
"538.5 391 LINE",
"538.5 630 LINE"
);
},
{
closed = 1;
nodes = (
"458.5 636 LINE",
"458.5 254 LINE",
"240.472 254 LINE"
);
}
);
width = 892.49891;
}
);
leftMetricsKey = A;
rightMetricsKey = E;
unicode = 00C6;
},
{
glyphname = B;
lastChange = "2021-09-02 15:54:38 +0000";
layers = (
{
hints = (
{
place = "{85, 114}";
type = Stem;
},
{
place = "{499, 116}";
type = Stem;
},
{
place = "{517, 114}";
type = Stem;
},
{
horizontal = 1;
place = "{0, 93}";
type = Stem;
},
{
horizontal = 1;
place = "{308, 93}";
type = Stem;
},
{
horizontal = 1;
place = "{607, 93}";
type = Stem;
}
);
layerId = "0CF0EA28-C756-4A9E-9D7C-CFEF350B4CFE";
paths = (
{
closed = 1;
nodes = (
"489 439 OFFCURVE",
"444 402 OFFCURVE",
"370 402 CURVE SMOOTH",
"189 402 LINE",
"189 605 LINE",
"370 605 LINE SMOOTH",
"444 605 OFFCURVE",
"489 567 OFFCURVE",
"489 503 CURVE SMOOTH"
);
},
{
closed = 1;
nodes = (
"393 0 LINE SMOOTH",
"535 0 OFFCURVE",
"621 80 OFFCURVE",
"621 187 CURVE SMOOTH",
"621 291.748 OFFCURVE",
"562.924 340.91 OFFCURVE",
"477 352.621 CURVE",
"477 360.702 LINE",
"548.78 377.531 OFFCURVE",
"604 424.857 OFFCURVE",
"604 517 CURVE SMOOTH",
"604 616 OFFCURVE",
"527 700 OFFCURVE",
"380 700 CURVE SMOOTH",
"75 700 LINE",
"75 0 LINE"
);
},
{
closed = 1;
nodes = (
"189 307 LINE",
"379 307 LINE SMOOTH",
"455 307 OFFCURVE",
"507 269 OFFCURVE",
"507 199 CURVE SMOOTH",
"507 131 OFFCURVE",
"460 95 OFFCURVE",
"383 95 CURVE SMOOTH",
"189 95 LINE"
);
}
);
width = 670.5;
},
{
hints = (
{
place = "{103, 22}";
type = Stem;
},
{
place = "{539, 22}";
type = Stem;
},
{
place = "{561, 22}";
type = Stem;
},
{
horizontal = 1;
place = "{685, -20}";
target = down;
type = TopGhost;
},
{
horizontal = 1;
place = "{0, 21}";
target = up;
type = BottomGhost;
}
);
layerId = "6E968933-CD79-43C6-9231-80D77C940F4D";
paths = (
{
closed = 1;
nodes = (
"533 432 OFFCURVE",
"471 370 OFFCURVE",
"353 370 CURVE SMOOTH",
"117 370 LINE",
"117 680 LINE",
"347 680 LINE SMOOTH",
"478 680 OFFCURVE",
"533 612 OFFCURVE",
"533 525 CURVE SMOOTH"
);
},
{
closed = 1;
nodes = (
"348 0 LINE SMOOTH",
"500 0 OFFCURVE",
"571 82 OFFCURVE",
"571 185 CURVE SMOOTH",
"571 278.241 OFFCURVE",
"504.761 343.883 OFFCURVE",
"422 357.415 CURVE",
"422 362.195 LINE",
"491.012 376.079 OFFCURVE",
"555 425.374 OFFCURVE",
"555 526 CURVE SMOOTH",
"555 621 OFFCURVE",
"495 700 OFFCURVE",
"348 700 CURVE SMOOTH",
"95 700 LINE",
"95 0 LINE"
);
},
{
closed = 1;
nodes = (
"117 350 LINE",
"346 350 LINE SMOOTH",
"473 350 OFFCURVE",
"549 286 OFFCURVE",
"549 185 CURVE SMOOTH",
"549 83 OFFCURVE",
"475 20 OFFCURVE",
"348 20 CURVE SMOOTH",
"117 20 LINE"
);
}
);
width = 633.69886;
},
{
hints = (
{
place = "{53, 176}";
type = Stem;
},
{
place = "{463, 179}";
type = Stem;
},
{
place = "{480, 179}";
type = Stem;
},
{
horizontal = 1;
place = "{0, 142}";
type = Stem;
},
{
horizontal = 1;
place = "{290, 133}";
type = Stem;
},
{
horizontal = 1;
place = "{559, 141}";
type = Stem;
}
);
layerId = "BAF31694-0472-4296-B0EA-1654553C45D2";
paths = (
{
closed = 1;
nodes = (
"466 444 OFFCURVE",
"433 424 OFFCURVE",
"379 424 CURVE SMOOTH",
"229 424 LINE",
"229 554 LINE",
"381 554 LINE SMOOTH",
"435 554 OFFCURVE",
"466 535 OFFCURVE",
"466 489 CURVE SMOOTH"
);
},
{
closed = 1;
nodes = (
"427 0 LINE SMOOTH",
"576 0 OFFCURVE",
"658 76 OFFCURVE",
"658 192 CURVE SMOOTH",
"658 285.993 OFFCURVE",
"602.572 343.611 OFFCURVE",
"503 355.184 CURVE",
"503 363.465 LINE",
"585.214 375.03 OFFCURVE",
"642 421.56 OFFCURVE",
"642 515 CURVE SMOOTH",
"642 627 OFFCURVE",
"559 700 OFFCURVE",
"416 700 CURVE SMOOTH",
"55 700 LINE",
"55 0 LINE"
);
},
{
closed = 1;
nodes = (
"229 288 LINE",
"393 288 LINE SMOOTH",
"449 288 OFFCURVE",
"483 265 OFFCURVE",
"483 217 CURVE SMOOTH",
"483 170 OFFCURVE",
"451 146 OFFCURVE",
"395 146 CURVE SMOOTH",
"229 146 LINE"
);
}
);
width = 694.30114;
},
{
hints = (
{
place = "{39, 66}";
type = Stem;
},
{
place = "{395, 66}";
type = Stem;
},
{
place = "{590, 66}";
type = Stem;
},
{
horizontal = 1;
place = "{257, -20}";
target = down;
type = TopGhost;
},
{
horizontal = 1;
place = "{0, 21}";
target = up;
type = BottomGhost;
}
);
layerId = "9F107B1E-3A61-4335-981B-27DD48125C7E";
paths = (
{
closed = 1;
nodes = (
"508 436 OFFCURVE",
"456 391 OFFCURVE",
"366 391 CURVE SMOOTH",
"165 391 LINE",
"165 630 LINE",
"363 630 LINE SMOOTH",
"459 630 OFFCURVE",
"508 583 OFFCURVE",
"508 510 CURVE SMOOTH"
);
},
{
closed = 1;
nodes = (
"378 0 LINE SMOOTH",
"524 0 OFFCURVE",
"604 83 OFFCURVE",
"604 188 CURVE SMOOTH",
"604 288.267 OFFCURVE",
"542.803 342.84 OFFCURVE",
"458 354.667 CURVE",
"458 361.565 LINE",
"528.212 376.632 OFFCURVE",
"587 423.885 OFFCURVE",
"587 520 CURVE SMOOTH",
"587 617 OFFCURVE",
"517 700 OFFCURVE",
"370 700 CURVE SMOOTH",
"85 700 LINE",
"85 0 LINE"
);
},
{
closed = 1;
nodes = (
"165 321 LINE",
"369 321 LINE SMOOTH",
"464 321 OFFCURVE",
"525 277 OFFCURVE",
"525 196 CURVE SMOOTH",
"525 115 OFFCURVE",
"468 70 OFFCURVE",
"372 70 CURVE SMOOTH",
"165 70 LINE"
);
}
);
width = 660.09747;
}
);
leftMetricsKey = H;
rightMetricsKey = "=H*0.66";
unicode = 0042;
},
{
glyphname = C;
lastChange = "2021-09-02 15:54:38 +0000";
layers = (
{
anchors = (
{
name = bottom;
position = "{386.5, 0}";
},
{
name = top;
position = "{394.5, 700}";
}
);
hints = (
{
place = "{42, 117}";
type = Stem;
},
{
horizontal = 1;
place = "{-6, 100}";
type = Stem;
},
{
horizontal = 1;
place = "{608, 101}";
type = Stem;
}
);
layerId = "0CF0EA28-C756-4A9E-9D7C-CFEF350B4CFE";
paths = (
{
closed = 1;
nodes = (
"37.5 141 OFFCURVE",
"196.5 -7 OFFCURVE",
"392.5 -7 CURVE SMOOTH",
"532.5 -7 OFFCURVE",
"652.5 58 OFFCURVE",
"714.5 202 CURVE",
"622.5 233 LINE",
"570.5 124 OFFCURVE",
"475.5 90 OFFCURVE",
"395.5 90 CURVE SMOOTH",
"257.5 90 OFFCURVE",
"153.5 193 OFFCURVE",
"153.5 350 CURVE SMOOTH",
"153.5 508 OFFCURVE",
"257.5 610 OFFCURVE",
"395.5 610 CURVE SMOOTH",
"473.5 610 OFFCURVE",
"566.5 575 OFFCURVE",
"613.5 486 CURVE",
"705.5 519 LINE",
"647.5 641 OFFCURVE",
"528.5 707 OFFCURVE",
"392.5 707 CURVE SMOOTH",
"196.5 707 OFFCURVE",
"37.5 560 OFFCURVE",
"37.5 350 CURVE SMOOTH"
);
}
);
width = 764.4996;
},
{
anchors = (
{
name = bottom;
position = "{398.5, 0}";
},
{
name = top;
position = "{376.5, 700}";
}
);
hints = (
{
place = "{64, 23}";
type = Stem;
},
{
horizontal = 1;
place = "{-7, 21}";
target = up;
type = BottomGhost;
},
{
horizontal = 1;
place = "{692, -20}";
target = down;
type = TopGhost;
}
);
layerId = "6E968933-CD79-43C6-9231-80D77C940F4D";
paths = (
{
closed = 1;
nodes = (
"47.5 141 OFFCURVE",
"185.5 -7 OFFCURVE",
"376.5 -7 CURVE SMOOTH",
"542.5 -7 OFFCURVE",
"646.5 75 OFFCURVE",
"695.5 201 CURVE",
"677.5 208 LINE",
"636.5 97 OFFCURVE",
"532.5 11 OFFCURVE",
"376.5 13 CURVE",
"207.5 13 OFFCURVE",
"69.5 141 OFFCURVE",
"69.5 350 CURVE SMOOTH",
"69.5 561 OFFCURVE",
"207.5 687 OFFCURVE",
"376.5 687 CURVE SMOOTH",
"530.5 687 OFFCURVE",
"630.5 609 OFFCURVE",
"673.5 501 CURVE",
"691.5 508 LINE",
"641.5 629 OFFCURVE",
"538.5 707 OFFCURVE",
"376.5 707 CURVE SMOOTH",
"185.5 707 OFFCURVE",
"47.5 561 OFFCURVE",
"47.5 350 CURVE SMOOTH"
);
}
);
width = 758.83323;
},
{
anchors = (
{
name = bottom;
position = "{375.5, 1}";
},
{
name = top;
position = "{380.5, 700}";
}
);
hints = (
{
place = "{26, 179}";
type = Stem;
},
{
horizontal = 1;
place = "{-5, 159}";
type = Stem;
},
{
horizontal = 1;
place = "{548, 159}";
type = Stem;
}
);
layerId = "BAF31694-0472-4296-B0EA-1654553C45D2";
paths = (
{
closed = 1;
nodes = (
"27.5 139 OFFCURVE",
"171.5 -7 OFFCURVE",
"379.5 -7 CURVE SMOOTH",
"541.5 -7 OFFCURVE",
"659.5 78 OFFCURVE",
"706.5 228 CURVE",
"559.5 258 LINE",
"522.5 171 OFFCURVE",
"458.5 139 OFFCURVE",
"379.5 139 CURVE SMOOTH",
"268.5 139 OFFCURVE",
"201.5 228 OFFCURVE",
"201.5 350 CURVE SMOOTH",
"201.5 470 OFFCURVE",
"268.5 561 OFFCURVE",
"379.5 561 CURVE SMOOTH",
"457.5 561 OFFCURVE",
"515.5 529 OFFCURVE",
"550.5 455 CURVE",
"701.5 488 LINE",
"654.5 624 OFFCURVE",
"537.5 707 OFFCURVE",
"379.5 707 CURVE SMOOTH",
"171.5 707 OFFCURVE",
"27.5 559 OFFCURVE",
"27.5 350 CURVE SMOOTH"
);
}
);
width = 743.1685;
},
{
anchors = (
{
name = bottom;
position = "{392.5, 0}";
},
{
name = top;
position = "{389.5, 700}";
}
);
hints = (
{
place = "{404, 72}";
type = Stem;
},
{
horizontal = 1;
place = "{-3, 21}";
target = up;
type = BottomGhost;
},
{
horizontal = 1;
place = "{260, -20}";
target = down;
type = TopGhost;
}
);
layerId = "9F107B1E-3A61-4335-981B-27DD48125C7E";
paths = (
{
closed = 1;
nodes = (
"42.5 141 OFFCURVE",
"193.5 -7 OFFCURVE",
"388.5 -7 CURVE SMOOTH",
"537.5 -7 OFFCURVE",
"651.5 64 OFFCURVE",
"708.5 201 CURVE",
"643.5 225 LINE",
"595.5 116 OFFCURVE",
"496.5 64 OFFCURVE",
"388.5 65 CURVE",
"238.5 65 OFFCURVE",
"124.5 173 OFFCURVE",
"124.5 350 CURVE SMOOTH",
"124.5 528 OFFCURVE",
"238.5 635 OFFCURVE",
"388.5 635 CURVE SMOOTH",
"494.5 635 OFFCURVE",
"591.5 588 OFFCURVE",
"636.5 491 CURVE",
"701.5 515 LINE",
"646.5 637 OFFCURVE",
"533.5 707 OFFCURVE",
"388.5 707 CURVE SMOOTH",
"193.5 707 OFFCURVE",
"42.5 561 OFFCURVE",
"42.5 350 CURVE SMOOTH"
);
}
);
width = 765.16327;
}
);
leftMetricsKey = O;
rightMetricsKey = "=O*1.3333";
unicode = 0043;
},
{
glyphname = D;
lastChange = "2021-09-02 15:54:38 +0000";
layers = (
{
anchors = (
{
name = top;
position = "{345, 700}";
}
);
hints = (
{
place = "{85, 114}";
type = Stem;
},
{
place = "{584, 117}";
type = Stem;
},
{
horizontal = 1;
place = "{0, 93}";
type = Stem;
},
{
horizontal = 1;
place = "{607, 93}";
type = Stem;
}
);
layerId = "0CF0EA28-C756-4A9E-9D7C-CFEF350B4CFE";
paths = (
{
closed = 1;
nodes = (
"75 700 LINE",
"75 0 LINE",
"322 0 LINE SMOOTH",
"545 0 OFFCURVE",
"691 132 OFFCURVE",
"691 347 CURVE SMOOTH",
"691 563 OFFCURVE",
"545 700 OFFCURVE",
"322 700 CURVE SMOOTH"
);
},
{
closed = 1;
nodes = (
"189 95 LINE",
"189 605 LINE",
"322 605 LINE SMOOTH",
"486 605 OFFCURVE",
"575 507 OFFCURVE",
"575 347 CURVE SMOOTH",
"575 188 OFFCURVE",
"486 95 OFFCURVE",
"322 95 CURVE SMOOTH"
);
}
);
width = 728.5;
},
{
anchors = (
{
name = top;
position = "{321, 700}";
}
);
hints = (
{
place = "{103, 22}";
type = Stem;
},
{
place = "{661, 22}";
type = Stem;
},
{
horizontal = 1;
place = "{0, 21}";
target = up;
type = BottomGhost;
},
{
horizontal = 1;
place = "{685, -20}";
target = down;
type = TopGhost;
}
);
layerId = "6E968933-CD79-43C6-9231-80D77C940F4D";
paths = (
{
closed = 1;
nodes = (
"95 700 LINE",
"95 0 LINE",
"300 0 LINE",
"545 0 OFFCURVE",
"672 129 OFFCURVE",
"672 350 CURVE",
"672 571 OFFCURVE",
"545 700 OFFCURVE",
"300 700 CURVE"
);
},
{
closed = 1;
nodes = (
"117 20 LINE",
"117 680 LINE",
"300 680 LINE",
"535 680 OFFCURVE",
"650 554 OFFCURVE",
"650 350 CURVE",
"650 146 OFFCURVE",
"535 20 OFFCURVE",
"300 20 CURVE"
);
}
);
width = 719.49649;
},
{
anchors = (
{
name = top;
position = "{342, 700}";
}
);
hints = (
{
place = "{53, 176}";
type = Stem;
},
{
place = "{529, 179}";
type = Stem;
},
{
horizontal = 1;
place = "{0, 153}";
type = Stem;
},
{
horizontal = 1;
place = "{549, 151}";
type = Stem;
}
);
layerId = "BAF31694-0472-4296-B0EA-1654553C45D2";
paths = (
{
closed = 1;
nodes = (
"55 700 LINE",
"55 0 LINE",
"341 0 LINE SMOOTH",
"566 0 OFFCURVE",
"710 144 OFFCURVE",
"710 350 CURVE SMOOTH",
"710 558 OFFCURVE",
"566 700 OFFCURVE",
"341 700 CURVE SMOOTH"
);
},
{
closed = 1;
nodes = (
"229 146 LINE",
"229 554 LINE",
"330 554 LINE SMOOTH",
"456 554 OFFCURVE",
"533 476 OFFCURVE",
"533 350 CURVE SMOOTH",
"533 224 OFFCURVE",
"456 146 OFFCURVE",
"330 146 CURVE SMOOTH"
);
}
);
width = 737.50255;
},
{
anchors = (
{
name = top;
position = "{338, 700}";
}
);
hints = (
{
place = "{39, 66}";
type = Stem;
},
{
place = "{627, 66}";
type = Stem;
},
{
horizontal = 1;
place = "{0, 21}";
target = up;
type = BottomGhost;
},
{
horizontal = 1;
place = "{257, -20}";
target = down;
type = TopGhost;
}
);
layerId = "9F107B1E-3A61-4335-981B-27DD48125C7E";
paths = (
{
closed = 1;
nodes = (
"85 700 LINE",
"85 0 LINE",
"316 0 LINE",
"547 0 OFFCURVE",
"686 131 OFFCURVE",
"686 348 CURVE",
"686 566 OFFCURVE",
"547 700 OFFCURVE",
"316 700 CURVE"
);
},
{
closed = 1;
nodes = (
"165 70 LINE",
"165 630 LINE",
"316 630 LINE",
"506 630 OFFCURVE",
"605 525 OFFCURVE",
"605 348 CURVE",
"605 172 OFFCURVE",
"506 70 OFFCURVE",
"316 70 CURVE"
);
}
);
width = 728.50243;
}
);
leftMetricsKey = H;
rightMetricsKey = "=H*0.5";
unicode = 0044;
},
{
glyphname = Eth;
lastChange = "2021-09-02 15:54:38 +0000";
layers = (
{
hints = (
{
place = "{142, 115}";
type = Stem;
},
{
place = "{621, 117}";
type = Stem;
},
{
horizontal = 1;
place = "{0, 87}";
type = Stem;
},
{
horizontal = 1;
place = "{295, 105}";
type = Stem;
},
{
horizontal = 1;
place = "{608, 92}";
type = Stem;
}
);
layerId = "0CF0EA28-C756-4A9E-9D7C-CFEF350B4CFE";
paths = (
{
closed = 1;
nodes = (
"55 295 LINE",
"132 295 LINE",
"132 0 LINE",
"360 0 LINE SMOOTH",
"583 0 OFFCURVE",
"728 132 OFFCURVE",
"728 347 CURVE SMOOTH",
"728 563 OFFCURVE",
"583 700 OFFCURVE",
"360 700 CURVE SMOOTH",
"132 700 LINE",
"132 400 LINE",
"55 400 LINE"
);
},
{
closed = 1;
nodes = (
"247 295 LINE",
"425 295 LINE",
"425 400 LINE",
"247 400 LINE",
"247 608 LINE",
"360 608 LINE SMOOTH",
"523 608 OFFCURVE",
"611 507 OFFCURVE",
"611 347 CURVE SMOOTH",
"611 188 OFFCURVE",
"523 86 OFFCURVE",
"360 87 CURVE SMOOTH",
"247 87 LINE"
);
}
);
width = 765.5;
},
{
hints = (
{
place = "{202, 22}";
type = Stem;
},
{
place = "{734, 22}";
type = Stem;
},
{
horizontal = 1;
place = "{0, 21}";
target = up;
type = BottomGhost;
},
{
horizontal = 1;
place = "{685, -20}";
target = down;
type = TopGhost;
}
);
layerId = "6E968933-CD79-43C6-9231-80D77C940F4D";
paths = (
{
closed = 1;
nodes = (
"75 340 LINE",
"189 340 LINE",
"189 0 LINE",
"375 0 LINE SMOOTH",
"619 0 OFFCURVE",
"747 129 OFFCURVE",
"747 350 CURVE SMOOTH",
"747 571 OFFCURVE",
"619 700 OFFCURVE",
"375 700 CURVE SMOOTH",
"189 700 LINE",
"189 360 LINE",
"75 360 LINE"
);
},
{
closed = 1;
nodes = (
"211 340 LINE",
"443 340 LINE",
"443 360 LINE",
"211 360 LINE",
"211 681 LINE",
"375 681 LINE SMOOTH",
"609 681 OFFCURVE",
"725 554 OFFCURVE",
"725 350 CURVE SMOOTH",
"725 146 OFFCURVE",
"609 19 OFFCURVE",
"375 19 CURVE SMOOTH",
"211 19 LINE"
);
}
);
width = 794.50298;
},
{
hints = (
{
place = "{95, 177}";
type = Stem;
},
{
place = "{550, 179}";
type = Stem;
},
{
horizontal = 1;
place = "{0, 151}";
type = Stem;
},
{
horizontal = 1;
place = "{277, 146}";
type = Stem;
},
{
horizontal = 1;
place = "{549, 151}";
type = Stem;
}
);
layerId = "BAF31694-0472-4296-B0EA-1654553C45D2";
paths = (
{
closed = 1;
nodes = (
"35 277 LINE",
"97 277 LINE",
"97 0 LINE",
"363 0 LINE SMOOTH",
"588 0 OFFCURVE",
"731 144 OFFCURVE",
"731 350 CURVE SMOOTH",
"731 558 OFFCURVE",
"588 700 OFFCURVE",
"363 700 CURVE SMOOTH",
"97 700 LINE",
"97 423 LINE",
"35 423 LINE"
);
},
{
closed = 1;
nodes = (
"273 277 LINE",
"424 277 LINE",
"424 423 LINE",
"273 423 LINE",
"273 550 LINE",
"352 550 LINE SMOOTH",
"477 550 OFFCURVE",
"552 476 OFFCURVE",
"552 350 CURVE SMOOTH",
"552 224 OFFCURVE",
"477 150 OFFCURVE",
"352 151 CURVE SMOOTH",
"273 151 LINE"
);
}
);
width = 758.50245;
},
{
hints = (
{
place = "{260, 74}";
type = Stem;
},
{
place = "{655, 66}";
type = Stem;
},
{
horizontal = 1;
place = "{0, 21}";
target = up;
type = BottomGhost;
},
{
horizontal = 1;
place = "{257, -20}";
target = down;
type = TopGhost;
}
);
layerId = "9F107B1E-3A61-4335-981B-27DD48125C7E";
paths = (
{
closed = 1;
nodes = (
"65 312 LINE",
"155 312 LINE",
"155 0 LINE",
"368 0 LINE SMOOTH",
"599 0 OFFCURVE",
"737 131 OFFCURVE",
"737 348 CURVE SMOOTH",
"737 566 OFFCURVE",
"599 700 OFFCURVE",
"368 700 CURVE SMOOTH",
"155 700 LINE",
"155 385 LINE",
"65 385 LINE"
);
},
{
closed = 1;
nodes = (
"236 312 LINE",
"434 312 LINE",
"434 385 LINE",
"236 385 LINE",
"236 635 LINE",
"368 635 LINE SMOOTH",
"557 635 OFFCURVE",
"656 525 OFFCURVE",
"656 348 CURVE SMOOTH",
"656 172 OFFCURVE",
"557 61 OFFCURVE",
"368 62 CURVE SMOOTH",
"236 62 LINE"
);
}
);
width = 779.50487;
}
);
leftMetricsKey = "=D-20";
rightMetricsKey = D;
unicode = 00D0;
},
{
glyphname = E;
lastChange = "2021-09-02 15:54:38 +0000";
layers = (
{
anchors = (
{
name = bottom;
position = "{302, 0}";
},
{
name = ogonek;
position = "{499, 0}";
},
{
name = top;
position = "{312, 700}";
}
);
hints = (
{
place = "{85, 114}";
type = Stem;
},
{
horizontal = 1;
place = "{0, 93}";
type = Stem;
},
{
horizontal = 1;
place = "{308, 93}";
type = Stem;
},
{
horizontal = 1;
place = "{607, 93}";
type = Stem;
}
);
layerId = "0CF0EA28-C756-4A9E-9D7C-CFEF350B4CFE";
paths = (
{
closed = 1;
nodes = (
"549 700 LINE",
"75 700 LINE",
"75 0 LINE",
"549 0 LINE",
"549 95 LINE",
"189 95 LINE",
"189 307 LINE",
"459 307 LINE",
"459 402 LINE",
"189 402 LINE",
"189 605 LINE",
"549 605 LINE"
);
}
);
width = 604;
},
{
anchors = (
{
name = bottom;
position = "{283, 0}";
},
{
name = ogonek;
position = "{479, 0}";
},
{
name = top;
position = "{312, 700}";
}
);
hints = (
{
place = "{116, 22}";
type = Stem;
},
{
horizontal = 1;
place = "{685, -20}";
target = down;
type = TopGhost;
},
{
horizontal = 1;
place = "{0, 21}";
target = up;
type = BottomGhost;
}
);
layerId = "6E968933-CD79-43C6-9231-80D77C940F4D";
paths = (
{
closed = 1;
nodes = (
"529 700 LINE",
"95 700 LINE",
"95 0 LINE",
"529 0 LINE",
"529 20 LINE",
"117 20 LINE",
"117 350 LINE",
"426 350 LINE",
"426 370 LINE",
"117 370 LINE",
"117 680 LINE",
"529 680 LINE"
);
}
);
width = 604;
},
{
anchors = (
{
name = bottom;
position = "{308, 1}";
},
{
name = ogonek;
position = "{530, 1}";
},
{
name = top;
position = "{312, 700}";
}
);
hints = (
{
place = "{53, 176}";
type = Stem;
},
{
horizontal = 1;
place = "{0, 141}";
type = Stem;
},
{
horizontal = 1;
place = "{286, 141}";
type = Stem;
},
{
horizontal = 1;
place = "{559, 141}";
type = Stem;
}
);
layerId = "BAF31694-0472-4296-B0EA-1654553C45D2";
paths = (
{
closed = 1;
nodes = (
"580 700 LINE",
"55 700 LINE",
"55 0 LINE",
"579.991 0 LINE",
"580 146 LINE",
"229 146 LINE",
"229 287 LINE",
"491 287 LINE",
"491 423 LINE",
"229 423 LINE",
"229 554 LINE",
"580 554 LINE"
);
}
);
width = 615.00434;
},
{
anchors = (
{
name = bottom;
position = "{297, 0}";
},
{
name = ogonek;
position = "{494, 0}";
},
{
name = top;
position = "{314, 700}";
}
);
hints = (
{
place = "{423, 66}";
type = Stem;
},
{
horizontal = 1;
place = "{257, -20}";
target = down;
type = TopGhost;
},
{
horizontal = 1;
place = "{0, 21}";
target = up;
type = BottomGhost;
}
);
layerId = "9F107B1E-3A61-4335-981B-27DD48125C7E";
paths = (
{
closed = 1;
nodes = (
"544 700 LINE",
"85 700 LINE",
"85 0 LINE",
"544 0 LINE",
"544 70 LINE",
"165 70 LINE",
"165 321 LINE",
"450 321 LINE",
"450 391 LINE",
"165 391 LINE",
"165 630 LINE",
"544 630 LINE"
);
}
);
width = 609.00375;
}
);
leftMetricsKey = H;
rightMetricsKey = "=H-20";
unicode = 0045;
},
{
glyphname = F;
lastChange = "2021-09-02 15:54:38 +0000";
layers = (
{
hints = (
{
place = "{85, 114}";
type = Stem;
},
{
horizontal = 1;
place = "{306, 93}";
type = Stem;
},
{
horizontal = 1;
place = "{607, 93}";
type = Stem;
},
{
horizontal = 1;
place = "{0, 21}";
target = up;
type = BottomGhost;
}
);
layerId = "0CF0EA28-C756-4A9E-9D7C-CFEF350B4CFE";
paths = (
{
closed = 1;
nodes = (
"75 0 LINE",
"189 0 LINE",
"189 307 LINE",
"459 307 LINE",
"459 402 LINE",
"189 402 LINE",
"189 605 LINE",
"549 605 LINE",
"549 700 LINE",
"75 700 LINE"
);
}
);
width = 585.626;
},
{
hints = (
{
place = "{116, 22}";
type = Stem;
},
{
horizontal = 1;
place = "{685, -20}";
target = down;
type = TopGhost;
},
{
horizontal = 1;
place = "{0, 21}";
target = up;
type = BottomGhost;
}
);
layerId = "6E968933-CD79-43C6-9231-80D77C940F4D";
paths = (
{
closed = 1;
nodes = (
"95 0 LINE",
"117 0 LINE",
"117 350 LINE",
"426 350 LINE",
"426 370 LINE",
"117 370 LINE",
"117 680 LINE",
"529 680 LINE",
"529 700 LINE",
"95 700 LINE"
);
}
);
width = 578.9525;
},
{
hints = (
{
place = "{53, 176}";
type = Stem;
},
{
horizontal = 1;
place = "{281, 136}";
type = Stem;
},
{
horizontal = 1;
place = "{559, 141}";
type = Stem;
},
{
horizontal = 1;
place = "{0, 21}";
target = up;
type = BottomGhost;
}
);
layerId = "BAF31694-0472-4296-B0EA-1654553C45D2";
paths = (
{
closed = 1;
nodes = (
"55 0 LINE",
"229 0 LINE",
"229 287 LINE",
"491 287 LINE",
"491 423 LINE",
"229 423 LINE",
"229 554 LINE",
"580 554 LINE",
"580 700 LINE",
"55 700 LINE"
);
}
);
width = 603.31045;
},
{
hints = (
{
place = "{423, 66}";
type = Stem;
},
{
horizontal = 1;
place = "{257, -20}";
target = down;
type = TopGhost;
},
{
horizontal = 1;
place = "{0, 21}";
target = up;
type = BottomGhost;
}
);
layerId = "9F107B1E-3A61-4335-981B-27DD48125C7E";
paths = (
{
closed = 1;
nodes = (
"85 0 LINE",
"165 0 LINE",
"165 321 LINE",
"450 321 LINE",
"450 391 LINE",
"165 391 LINE",
"165 630 LINE",
"544 630 LINE",
"544 700 LINE",
"85 700 LINE"
);
}
);
width = 587.28935;
}
);
leftMetricsKey = H;
rightMetricsKey = "=E*0.666";
unicode = 0046;
},
{
glyphname = G;
lastChange = "2021-09-02 15:54:38 +0000";
layers = (
{
anchors = (
{
name = bottom;
position = "{386.5, 0}";
},
{
name = top;
position = "{386.5, 700}";
}
);
hints = (
{
place = "{42, 117}";
type = Stem;
},
{
place = "{599, 122}";
type = Stem;
},
{
horizontal = 1;
place = "{-6, 103}";
type = Stem;
},
{
horizontal = 1;
place = "{292, 91}";
type = Stem;
},
{
horizontal = 1;
place = "{604, 104}";
type = Stem;
}
);
layerId = "0CF0EA28-C756-4A9E-9D7C-CFEF350B4CFE";
paths = (
{
closed = 1;
nodes = (
"706.5 520 LINE",
"652.5 641 OFFCURVE",
"525.5 707 OFFCURVE",
"392.5 707 CURVE SMOOTH",
"196.5 707 OFFCURVE",
"37.5 559 OFFCURVE",
"37.5 350 CURVE SMOOTH",
"37.5 140 OFFCURVE",
"196.5 -7 OFFCURVE",
"392.5 -7 CURVE SMOOTH",
"548.5 -7 OFFCURVE",
"673.5 89 OFFCURVE",
"721.5 214 CURVE",
"721.5 386 LINE",
"401.5 386 LINE",
"401.5 292 LINE",
"605.5 292 LINE",
"605.5 219 LINE",
"570.5 143 OFFCURVE",
"490.5 90 OFFCURVE",
"392.5 90 CURVE SMOOTH",
"254.5 90 OFFCURVE",
"153.5 196 OFFCURVE",
"153.5 350 CURVE SMOOTH",
"153.5 504 OFFCURVE",
"257.5 610 OFFCURVE",
"395.5 610 CURVE SMOOTH",
"484.175 610 OFFCURVE",
"557.079 573.242 OFFCURVE",
"606.5 483 CURVE"
);
}
);
width = 766.5;
},
{
anchors = (
{
name = bottom;
position = "{398.5, 0}";
},
{
name = top;
position = "{398.5, 700}";
}
);
hints = (
{
place = "{64, 23}";
type = Stem;
},
{
horizontal = 1;
place = "{691, -20}";
target = down;
type = TopGhost;
},
{
horizontal = 1;
place = "{-8, 21}";
target = up;
type = BottomGhost;
}
);
layerId = "6E968933-CD79-43C6-9231-80D77C940F4D";
paths = (
{
closed = 1;
nodes = (
"687.5 509 LINE",
"636.5 629 OFFCURVE",
"532.5 707 OFFCURVE",
"384.5 707 CURVE SMOOTH",
"188.5 707 OFFCURVE",
"47.5 560 OFFCURVE",
"47.5 350 CURVE SMOOTH",
"47.5 140 OFFCURVE",
"188.5 -7 OFFCURVE",
"384.5 -7 CURVE SMOOTH",
"543.5 -7 OFFCURVE",
"666.5 91 OFFCURVE",
"706.5 240 CURVE",
"706.5 359 LINE",
"384.5 359 LINE",
"384.5 339 LINE",
"684.5 339 LINE",
"684.5 242 LINE",
"644.5 98 OFFCURVE",
"525.5 13 OFFCURVE",
"384.5 13 CURVE SMOOTH",
"209.5 13 OFFCURVE",
"69.5 141 OFFCURVE",
"69.5 350 CURVE SMOOTH",
"69.5 560 OFFCURVE",
"209.5 687 OFFCURVE",
"384.5 687 CURVE SMOOTH",
"524.5 687 OFFCURVE",
"626.5 609 OFFCURVE",
"669.5 502 CURVE"
);
}
);
width = 763.5006;
},
{
anchors = (
{
name = bottom;
position = "{375.5, 1}";
},
{
name = top;
position = "{375.5, 700}";
}
);
hints = (
{
place = "{18, 50}";
type = Stem;
},
{
place = "{263, 181}";
type = Stem;
},
{
horizontal = 1;
place = "{-5, 156}";
type = Stem;
},
{
horizontal = 1;
place = "{267, 128}";
type = Stem;
},
{
horizontal = 1;
place = "{545, 162}";
type = Stem;
}
);
layerId = "BAF31694-0472-4296-B0EA-1654553C45D2";
paths = (
{
closed = 1;
nodes = (
"708.5 508 LINE",
"664.5 631 OFFCURVE",
"538.5 707 OFFCURVE",
"383.5 707 CURVE SMOOTH",
"172.5 707 OFFCURVE",
"27.5 559 OFFCURVE",
"27.5 350 CURVE SMOOTH",
"27.5 141 OFFCURVE",
"173.5 -7 OFFCURVE",
"385.5 -7 CURVE SMOOTH",
"556.5 -7 OFFCURVE",
"666.5 94 OFFCURVE",
"714.5 196 CURVE",
"714.5 401 LINE",
"386.5 401 LINE",
"386.5 265 LINE",
"554.5 265 LINE",
"554.5 236 LINE",
"521.5 179 OFFCURVE",
"469.5 141 OFFCURVE",
"398.5 141 CURVE SMOOTH",
"277.5 141 OFFCURVE",
"204.5 223 OFFCURVE",
"204.5 350 CURVE SMOOTH",
"204.5 468 OFFCURVE",
"281.5 559 OFFCURVE",
"389.5 559 CURVE SMOOTH",
"459.95 559 OFFCURVE",
"512.353 530.981 OFFCURVE",
"544.5 470 CURVE"
);
}
);
width = 747.50109;
},
{
anchors = (
{
name = bottom;
position = "{392.5, 0}";
},
{
name = top;
position = "{392.5, 700}";
}
);
hints = (
{
place = "{402, 74}";
type = Stem;
},
{
horizontal = 1;
place = "{259, -20}";
target = down;
type = TopGhost;
},
{
horizontal = 1;
place = "{-3, 21}";
target = up;
type = BottomGhost;
}
);
layerId = "9F107B1E-3A61-4335-981B-27DD48125C7E";
paths = (
{
closed = 1;
nodes = (
"702.5 516 LINE",
"649.5 637 OFFCURVE",
"529.5 707 OFFCURVE",
"391.5 707 CURVE SMOOTH",
"195.5 707 OFFCURVE",
"42.5 560 OFFCURVE",
"42.5 350 CURVE SMOOTH",
"42.5 140 OFFCURVE",
"195.5 -7 OFFCURVE",
"391.5 -7 CURVE SMOOTH",
"548.5 -7 OFFCURVE",
"673.5 90 OFFCURVE",
"718.5 224 CURVE",
"718.5 374 LINE",
"397.5 374 LINE",
"397.5 309 LINE",
"637.5 309 LINE",
"637.5 228 LINE",
"600.5 126 OFFCURVE",
"505.5 65 OFFCURVE",
"391.5 65 CURVE SMOOTH",
"239.5 65 OFFCURVE",
"123.5 176 OFFCURVE",
"123.5 350 CURVE SMOOTH",
"123.5 525 OFFCURVE",
"239.5 636 OFFCURVE",
"391.5 636 CURVE SMOOTH",
"494.5 636 OFFCURVE",
"582.957 590.513 OFFCURVE",
"632.5 490 CURVE"
);
}
);
width = 769.50073;
}
);
leftMetricsKey = O;
rightMetricsKey = "=O*1.2";
unicode = 0047;
},
{
glyphname = Gcommaaccent;
lastChange = "2021-09-02 09:18:01 +0000";
layers = (
{
anchors = (
{
name = _bottom;
position = "{386, 0}";
}
);
components = (
{
name = G;
}
);
hints = (
{
place = "{332, 117}";
type = Stem;
},
{
place = "{336, 113}";
type = Stem;
},
{
place = "{385, 64}";
type = Stem;
},
{
horizontal = 1;
place = "{-143, 96}";
type = Stem;
},
{
horizontal = 1;
place = "{-272, 21}";
target = up;
type = BottomGhost;
}
);
layerId = "0CF0EA28-C756-4A9E-9D7C-CFEF350B4CFE";
paths = (
{
closed = 1;
nodes = (
"332 -47 LINE",
"332 -143 LINE",
"385 -143 LINE",
"385 -165 LINE SMOOTH",
"385 -203.003 OFFCURVE",
"370 -222 OFFCURVE",
"336 -222 CURVE",
"336 -272 LINE",
"410 -272 OFFCURVE",
"449 -230 OFFCURVE",
"449 -146 CURVE SMOOTH",
"449 -117 OFFCURVE",
"444 -84 OFFCURVE",
"435 -47 CURVE"
);
}
);
width = 766.5;
},
{
anchors = (
{
name = _bottom;
position = "{396, -8}";
}
);
components = (
{
name = G;
}
);
hints = (
{
place = "{396, 24}";
type = Stem;
},
{
horizontal = 1;
place = "{-58, -20}";
target = down;
type = TopGhost;
},
{
horizontal = 1;
place = "{-177, 21}";
target = up;
type = BottomGhost;
}
);
layerId = "6E968933-CD79-43C6-9231-80D77C940F4D";
paths = (
{
closed = 1;
nodes = (
"376 -58 LINE",
"376 -97 LINE",
"408 -97 LINE",
"408 -105 LINE SMOOTH",
"408 -138 OFFCURVE",
"396 -158 OFFCURVE",
"364 -158 CURVE",
"364 -177 LINE",
"401 -177 OFFCURVE",
"430 -162 OFFCURVE",
"430 -91 CURVE SMOOTH",
"430 -81 OFFCURVE",
"429 -68 OFFCURVE",
"428 -58 CURVE"
);
}
);
width = 763.4966;
},
{
anchors = (
{
name = _bottom;
position = "{381, 1}";
}
);
components = (
{
name = G;
}
);
hints = (
{
place = "{312, 154}";
type = Stem;
},
{
place = "{356, 111}";
type = Stem;
},
{
place = "{-33, 73}";
type = Stem;
},
{
horizontal = 1;
place = "{-164, 125}";
type = Stem;
},
{
horizontal = 1;
place = "{-115, 21}";
target = up;
type = BottomGhost;
}
);
layerId = "BAF31694-0472-4296-B0EA-1654553C45D2";
paths = (
{
closed = 1;
nodes = (
"312 -38 LINE",
"312 -164 LINE",
"376 -164 LINE",
"376 -178 LINE SMOOTH",
"376 -224 OFFCURVE",
"358 -245 OFFCURVE",
"324 -245 CURVE",
"324 -312 LINE",
"421 -312 OFFCURVE",
"467 -248 OFFCURVE",
"467 -158 CURVE SMOOTH",
"467 -121 OFFCURVE",
"460 -81 OFFCURVE",
"446 -38 CURVE"
);
}
);
width = 747.49509;
},
{
anchors = (
{
name = _bottom;
position = "{390, -3}";
}
);
components = (
{
name = G;
}
);
hints = (
{
place = "{59, 69}";
type = Stem;
},
{
horizontal = 1;
place = "{-22, -20}";
target = down;
type = TopGhost;
},
{
horizontal = 1;
place = "{-236, 21}";
target = up;
type = BottomGhost;
}
);
layerId = "9F107B1E-3A61-4335-981B-27DD48125C7E";
paths = (
{
closed = 1;
nodes = (
"349 -51 LINE",
"349 -126 LINE",
"394 -126 LINE",
"394 -143 LINE SMOOTH",
"394 -179 OFFCURVE",
"380 -198 OFFCURVE",
"347 -198 CURVE",
"347 -236 LINE",
"407 -236 OFFCURVE",
"442 -205 OFFCURVE",
"442 -125 CURVE SMOOTH",
"442 -104 OFFCURVE",
"438 -78 OFFCURVE",
"432 -51 CURVE"
);
}
);
width = 769.50248;
}
);
leftMetricsKey = G;
rightMetricsKey = G;
unicode = 0122;
},
{
glyphname = H;
lastChange = "2021-09-02 15:54:38 +0000";
layers = (
{
guideLines = (
{
position = "{-3, 699.66}";
}
);
hints = (
{
place = "{85, 114}";
type = Stem;
},
{
place = "{526, 114}";
type = Stem;
},
{
horizontal = 1;
place = "{306, 93}";
type = Stem;
},
{
horizontal = 1;
place = "{0, 21}";
target = up;
type = BottomGhost;
},
{
horizontal = 1;
place = "{700, -20}";
target = down;
type = TopGhost;
}
);
layerId = "0CF0EA28-C756-4A9E-9D7C-CFEF350B4CFE";
paths = (
{
closed = 1;
nodes = (
"75 0 LINE",
"189 0 LINE",
"189 307 LINE",
"524 307 LINE",
"524 0 LINE",
"638 0 LINE",
"638 700 LINE",
"524 700 LINE",
"524 402 LINE",
"189 402 LINE",
"189 700 LINE",
"75 700 LINE"
);
}
);
width = 713;
},
{
hints = (
{
place = "{114, 22}";
type = Stem;
},
{
place = "{559, 22}";
type = Stem;
},
{
horizontal = 1;
place = "{0, 21}";
target = up;
type = BottomGhost;
},
{
horizontal = 1;
place = "{700, -20}";
target = down;
type = TopGhost;
}
);
layerId = "6E968933-CD79-43C6-9231-80D77C940F4D";
paths = (
{
closed = 1;
nodes = (
"95 0 LINE",
"117 0 LINE",
"117 350 LINE",
"564 350 LINE",
"564 0 LINE",
"586 0 LINE",
"586 700 LINE",
"564 700 LINE",
"564 370 LINE",
"117 370 LINE",
"117 700 LINE",
"95 700 LINE"
);
}
);
width = 680.99596;
},
{
hints = (
{
place = "{53, 176}";
type = Stem;
},
{
place = "{490, 176}";
type = Stem;
},
{
horizontal = 1;
place = "{286, 141}";
type = Stem;
},
{
horizontal = 1;
place = "{0, 21}";
target = up;
type = BottomGhost;
},
{
horizontal = 1;
place = "{700, -20}";
target = down;
type = TopGhost;
}
);
layerId = "BAF31694-0472-4296-B0EA-1654553C45D2";
paths = (
{
closed = 1;
nodes = (
"55 0 LINE",
"229 0 LINE",
"229 282 LINE",
"493 282 LINE",
"493 0 LINE",
"667 0 LINE",
"667 700 LINE",
"493 700 LINE",
"493 428 LINE",
"229 428 LINE",
"229 700 LINE",
"55 700 LINE"
);
}
);
width = 722;
},
{
hints = (
{
place = "{372, 80}";
type = Stem;
},
{
place = "{401, 66}";
type = Stem;
},
{
horizontal = 1;
place = "{0, 21}";
target = up;
type = BottomGhost;
},
{
horizontal = 1;
place = "{700, -20}";
target = down;
type = TopGhost;
}
);
layerId = "9F107B1E-3A61-4335-981B-27DD48125C7E";
paths = (
{
closed = 1;
nodes = (
"85 0 LINE",
"165 0 LINE",
"165 321 LINE",
"540 321 LINE",
"540 0 LINE",
"620 0 LINE",
"620 700 LINE",
"540 700 LINE",
"540 391 LINE",
"165 391 LINE",
"165 700 LINE",
"85 700 LINE"
);
}
);
width = 704.99724;
}
);
unicode = 0048;
},
{
glyphname = I;
lastChange = "2021-09-02 15:54:38 +0000";
layers = (
{
anchors = (
{
name = ogonek;
position = "{189, 1}";
},
{
name = top;
position = "{132, 700}";
}
);
hints = (
{
place = "{85, 114}";
type = Stem;
},
{
horizontal = 1;
place = "{0, 21}";
target = up;
type = BottomGhost;
},
{
horizontal = 1;
place = "{700, -20}";
target = down;
type = TopGhost;
}
);
layerId = "0CF0EA28-C756-4A9E-9D7C-CFEF350B4CFE";
paths = (
{
closed = 1;
nodes = (
"75 0 LINE",
"189 0 LINE",
"189 700 LINE",
"75 700 LINE"
);
}
);
width = 264;
},
{
anchors = (
{
name = ogonek;
position = "{117, 0}";
},
{
name = top;
position = "{106, 700}";
}
);
hints = (
{
place = "{105, 22}";
type = Stem;
},
{
horizontal = 1;
place = "{0, 21}";
target = up;
type = BottomGhost;
},
{
horizontal = 1;
place = "{700, -20}";
target = down;
type = TopGhost;
}
);
layerId = "6E968933-CD79-43C6-9231-80D77C940F4D";
paths = (
{
closed = 1;
nodes = (
"95 0 LINE",
"117 0 LINE",
"117 700 LINE",
"95 700 LINE"
);
}
);
width = 211.99894;
},
{
anchors = (
{
name = ogonek;
position = "{230, 1}";
},
{
name = top;
position = "{142, 700}";
}
);
hints = (
{
place = "{53, 176}";
type = Stem;
},
{
horizontal = 1;
place = "{0, 21}";
target = up;
type = BottomGhost;
},
{
horizontal = 1;
place = "{700, -20}";
target = down;
type = TopGhost;
}
);
layerId = "BAF31694-0472-4296-B0EA-1654553C45D2";
paths = (
{
closed = 1;
nodes = (
"55 0 LINE",
"229 0 LINE",
"229 700 LINE",
"55 700 LINE"
);
}
);
width = 284.00378;
},
{
anchors = (
{
name = ogonek;
position = "{164, 1}";
},
{
name = top;
position = "{124, 700}";
}
);
hints = (
{
place = "{93, 80}";
type = Stem;
},
{
horizontal = 1;
place = "{0, 21}";
target = up;
type = BottomGhost;
},
{
horizontal = 1;
place = "{700, -20}";
target = down;
type = TopGhost;
}
);
layerId = "9F107B1E-3A61-4335-981B-27DD48125C7E";
paths = (
{
closed = 1;
nodes = (
"85 0 LINE",
"165 0 LINE",
"165 700 LINE",
"85 700 LINE"
);
}
);
width = 250.00335;
}
);
leftMetricsKey = H;
rightMetricsKey = H;
unicode = 0049;
},
{
glyphname = J;
lastChange = "2021-09-02 15:54:38 +0000";
layers = (
{
hints = (
{
place = "{343, 115}";
type = Stem;
},
{
horizontal = 1;
place = "{-7, 102}";
type = Stem;
},
{
horizontal = 1;
place = "{700, -20}";
target = down;
type = TopGhost;
}
);
layerId = "0CF0EA28-C756-4A9E-9D7C-CFEF350B4CFE";
paths = (
{
closed = 1;
nodes = (
"336.5 194 LINE SMOOTH",
"336.5 136 OFFCURVE",
"302.5 88 OFFCURVE",
"241.5 88 CURVE SMOOTH",
"191.5 88 OFFCURVE",
"160.5 117 OFFCURVE",
"146.5 159 CURVE",
"49.5 127 LINE",
"76.5 42 OFFCURVE",
"144.5 -7 OFFCURVE",
"241.5 -7 CURVE SMOOTH",
"361.5 -7 OFFCURVE",
"450.5 73 OFFCURVE",
"450.5 200 CURVE SMOOTH",
"450.5 700 LINE",
"336.5 700 LINE"
);
}
);
width = 521.75;
},
{
hints = (
{
place = "{359, 22}";
type = Stem;
},
{
horizontal = 1;
place = "{-7, 21}";
target = up;
type = BottomGhost;
},
{
horizontal = 1;
place = "{700, -20}";
target = down;
type = TopGhost;
}
);
layerId = "6E968933-CD79-43C6-9231-80D77C940F4D";
paths = (
{
closed = 1;
nodes = (
"359.7 155 LINE SMOOTH",
"359.7 97 OFFCURVE",
"328.7 13 OFFCURVE",
"224.7 13 CURVE SMOOTH",
"130.7 13 OFFCURVE",
"94.7 72 OFFCURVE",
"83.7 143 CURVE",
"62.7 136 LINE",
"77.7 47 OFFCURVE",
"131.7 -7 OFFCURVE",
"224.7 -7 CURVE SMOOTH",
"325.7 -7 OFFCURVE",
"381.7 72 OFFCURVE",
"381.7 155 CURVE SMOOTH",
"381.7 700 LINE",
"359.7 700 LINE"
);
}
);
width = 471.95106;
},
{
hints = (
{
place = "{334, 176}";
type = Stem;
},
{
horizontal = 1;
place = "{-6, 157}";
type = Stem;
},
{
horizontal = 1;
place = "{700, -20}";
target = down;
type = TopGhost;
}
);
layerId = "BAF31694-0472-4296-B0EA-1654553C45D2";
paths = (
{
closed = 1;
nodes = (
"335.3 218 LINE SMOOTH",
"335.3 167 OFFCURVE",
"307.3 139 OFFCURVE",
"267.3 139 CURVE SMOOTH",
"232.3 139 OFFCURVE",
"203.3 160 OFFCURVE",
"195.3 203 CURVE",
"36.3 172 LINE",
"61.3 54 OFFCURVE",
"148.3 -7 OFFCURVE",
"273.3 -7 CURVE SMOOTH",
"413.3 -7 OFFCURVE",
"509.3 75 OFFCURVE",
"509.3 227 CURVE SMOOTH",
"509.3 700 LINE",
"335.3 700 LINE"
);
}
);
width = 561.54943;
},
{
hints = (
{
place = "{130, 72}";
type = Stem;
},
{
horizontal = 1;
place = "{-3, 21}";
target = up;
type = BottomGhost;
},
{
horizontal = 1;
place = "{700, -20}";
target = down;
type = TopGhost;
}
);
layerId = "9F107B1E-3A61-4335-981B-27DD48125C7E";
paths = (
{
closed = 1;
nodes = (
"347.1 183 LINE SMOOTH",
"347.1 125 OFFCURVE",
"314.1 63 OFFCURVE",
"237.1 63 CURVE SMOOTH",
"170.1 63 OFFCURVE",
"138.1 102 OFFCURVE",
"125.1 155 CURVE",
"56.1 130 LINE",
"79.1 44 OFFCURVE",
"141.1 -7 OFFCURVE",
"237.1 -7 CURVE SMOOTH",
"350.1 -7 OFFCURVE",
"427.1 73 OFFCURVE",
"427.1 183 CURVE SMOOTH",
"427.1 700 LINE",
"347.1 700 LINE"
);
}
);
width = 507.8479;
}
);
leftMetricsKey = "=H*0.66";
rightMetricsKey = U;
unicode = 004A;
},
{
glyphname = K;
lastChange = "2021-09-02 15:54:38 +0000";
layers = (
{
anchors = (
{
name = bottom;
position = "{317, 0}";
},
{
name = top;
position = "{317, 700}";
}
);
hints = (
{
place = "{85, 114}";
type = Stem;
},
{
horizontal = 1;
place = "{0, 21}";
target = up;
type = BottomGhost;
},
{
horizontal = 1;
place = "{700, -20}";
target = down;
type = TopGhost;
}
);
layerId = "0CF0EA28-C756-4A9E-9D7C-CFEF350B4CFE";
paths = (
{
closed = 1;
nodes = (
"75 0 LINE",
"189 0 LINE",
"189 307 LINE",
"225.104 307 LINE",
"488 0 LINE",
"637 0 LINE",
"330 355 LINE",
"632 700 LINE",
"489 700 LINE",
"225.551 402 LINE",
"189 402 LINE",
"189 700 LINE",
"75 700 LINE"
);
}
);
width = 648.25;
},
{
anchors = (
{
name = bottom;
position = "{266, 0}";
},
{
name = top;
position = "{266, 700}";
}
);
hints = (
{
place = "{105, 22}";
type = Stem;
},
{
horizontal = 1;
place = "{0, 21}";
target = up;
type = BottomGhost;
},
{
horizontal = 1;
place = "{700, -20}";
target = down;
type = TopGhost;
}
);
layerId = "6E968933-CD79-43C6-9231-80D77C940F4D";
paths = (
{
closed = 1;
nodes = (
"95 0 LINE",
"117 0 LINE",
"117 350 LINE",
"150.889 350 LINE",
"497 0 LINE",
"527 0 LINE",
"171 360 LINE",
"527 700 LINE",
"497 700 LINE",
"151.471 370 LINE",
"117 370 LINE",
"117 700 LINE",
"95 700 LINE"
);
}
);
width = 541.24948;
},
{
anchors = (
{
name = bottom;
position = "{345, 1}";
},
{
name = top;
position = "{345, 700}";
}
);
hints = (
{
place = "{53, 176}";
type = Stem;
},
{
horizontal = 1;
place = "{0, 21}";
target = up;
type = BottomGhost;
},
{
horizontal = 1;
place = "{700, -20}";
target = down;
type = TopGhost;
}
);
layerId = "BAF31694-0472-4296-B0EA-1654553C45D2";
paths = (
{
closed = 1;
nodes = (
"55 0 LINE",
"229 0 LINE",
"229 282 LINE",
"279.143 282 LINE",
"494 0 LINE",
"710 0 LINE",
"429 357 LINE",
"699 700 LINE",
"493 700 LINE",
"278.096 428 LINE",
"229 428 LINE",
"229 700 LINE",
"55 700 LINE"
);
}
);
width = 718.25203;
},
{
anchors = (
{
name = bottom;
position = "{300, 0}";
},
{
name = top;
position = "{300, 700}";
}
);
hints = (
{
place = "{93, 80}";
type = Stem;
},
{
horizontal = 1;
place = "{0, 21}";
target = up;
type = BottomGhost;
},
{
horizontal = 1;
place = "{700, -20}";
target = down;
type = TopGhost;
}
);
layerId = "9F107B1E-3A61-4335-981B-27DD48125C7E";
paths = (
{
closed = 1;
nodes = (
"85 0 LINE",
"165 0 LINE",
"165 321 LINE",
"197.657 321 LINE",
"488 0 LINE",
"594 0 LINE",
"269 356 LINE",
"591 700 LINE",
"488 700 LINE",
"198.762 391 LINE",
"165 391 LINE",
"165 700 LINE",
"85 700 LINE"
);
}
);
width = 606.75018;
}
);
leftMetricsKey = H;
rightMetricsKey = "=H*0.15";
unicode = 004B;
},
{
glyphname = Kcommaaccent;
lastChange = "2021-09-02 09:18:01 +0000";
layers = (
{
anchors = (
{
name = _bottom;
position = "{317, 0}";
}
);
components = (
{
name = K;
}
);
hints = (
{
place = "{262, 117}";
type = Stem;
},
{
place = "{267, 112}";
type = Stem;
},
{
place = "{315, 64}";
type = Stem;
},
{
horizontal = 1;
place = "{-143, 96}";
type = Stem;
},
{
horizontal = 1;
place = "{-272, 21}";
target = up;
type = BottomGhost;
}
);
layerId = "0CF0EA28-C756-4A9E-9D7C-CFEF350B4CFE";
paths = (
{
closed = 1;
nodes = (
"262 -47 LINE",
"262 -143 LINE",
"315 -143 LINE",
"315 -165 LINE SMOOTH",
"315 -203.003 OFFCURVE",
"300 -222 OFFCURVE",
"267 -222 CURVE",
"267 -272 LINE",
"341 -272 OFFCURVE",
"379 -230 OFFCURVE",
"379 -146 CURVE SMOOTH",
"379 -117 OFFCURVE",
"375 -84 OFFCURVE",
"365 -47 CURVE"
);
}
);
width = 648.25;
},
{
anchors = (
{
name = _bottom;
position = "{243, 0}";
}
);
components = (
{
name = K;
}
);
hints = (
{
place = "{240, 24}";
type = Stem;
},
{
horizontal = 1;
place = "{-58, -20}";
target = down;
type = TopGhost;
},
{
horizontal = 1;
place = "{-177, 21}";
target = up;
type = BottomGhost;
}
);
layerId = "6E968933-CD79-43C6-9231-80D77C940F4D";
paths = (
{
closed = 1;
nodes = (
"218 -58 LINE",
"218 -97 LINE",
"249 -97 LINE",
"249 -105 LINE SMOOTH",
"249 -138 OFFCURVE",
"238 -158 OFFCURVE",
"206 -158 CURVE",
"206 -177 LINE",
"243 -177 OFFCURVE",
"272 -162 OFFCURVE",
"272 -91 CURVE SMOOTH",
"272 -81 OFFCURVE",
"271 -68 OFFCURVE",
"270 -58 CURVE"
);
}
);
width = 541.25298;
},
{
anchors = (
{
name = _bottom;
position = "{364, 1}";
}
);
components = (
{
name = K;
}
);
hints = (
{
place = "{111, 50}";
type = Stem;
},
{
place = "{297, 152}";
type = Stem;
},
{
place = "{359, 90}";
type = Stem;
},
{
horizontal = 1;
place = "{-164, 125}";
type = Stem;
},
{
horizontal = 1;
place = "{-312, 21}";
target = up;
type = BottomGhost;
}
);
layerId = "BAF31694-0472-4296-B0EA-1654553C45D2";
paths = (
{
closed = 1;
nodes = (
"295 -38 LINE",
"295 -164 LINE",
"359 -164 LINE",
"359 -178 LINE SMOOTH",
"359 -224 OFFCURVE",
"340 -245 OFFCURVE",
"307 -245 CURVE",
"307 -312 LINE",
"403 -312 OFFCURVE",
"449 -248 OFFCURVE",
"449 -158 CURVE SMOOTH",
"449 -121 OFFCURVE",
"443 -81 OFFCURVE",
"428 -38 CURVE"
);
}
);
width = 718.24632;
},
{
anchors = (
{
name = _bottom;
position = "{289, 0}";
}
);
components = (
{
name = K;
}
);
hints = (
{
place = "{1, 69}";
type = Stem;
},
{
horizontal = 1;
place = "{-22, -20}";
target = down;
type = TopGhost;
},
{
horizontal = 1;
place = "{-236, 21}";
target = up;
type = BottomGhost;
}
);
layerId = "9F107B1E-3A61-4335-981B-27DD48125C7E";
paths = (
{
closed = 1;
nodes = (
"246 -51 LINE",
"246 -126 LINE",
"290 -126 LINE",
"290 -143 LINE SMOOTH",
"290 -179 OFFCURVE",
"277 -198 OFFCURVE",
"244 -198 CURVE",
"244 -236 LINE",
"304 -236 OFFCURVE",
"339 -205 OFFCURVE",
"339 -125 CURVE SMOOTH",
"339 -104 OFFCURVE",
"336 -78 OFFCURVE",
"329 -51 CURVE"
);
}
);
width = 606.75487;
}
);
leftMetricsKey = H;
rightMetricsKey = K;
unicode = 0136;
},
{
glyphname = L;
lastChange = "2021-09-02 15:54:38 +0000";
layers = (
{
anchors = (
{
name = bottom;
position = "{248, 0}";
},
{
name = commaaccent;
position = "{248, 10}";
},
{
name = top;
position = "{222, 700}";
},
{
name = topright;
position = "{424, 701}";
}
);
hints = (
{
place = "{85, 114}";
type = Stem;
},
{
horizontal = 1;
place = "{0, 92}";
type = Stem;
},
{
horizontal = 1;
place = "{700, -20}";
target = down;
type = TopGhost;
}
);
layerId = "0CF0EA28-C756-4A9E-9D7C-CFEF350B4CFE";
paths = (
{
closed = 1;
nodes = (
"75 700 LINE",
"75 0 LINE",
"504 0 LINE",
"504 94.993 LINE",
"189 95 LINE",
"189 700 LINE"
);
}
);
width = 528.973;
},
{
anchors = (
{
name = bottom;
position = "{230, 0}";
},
{
name = commaaccent;
position = "{230, 10}";
},
{
name = top;
position = "{212, 700}";
},
{
name = topright;
position = "{386, 679}";
}
);
hints = (
{
place = "{103, 22}";
type = Stem;
},
{
horizontal = 1;
place = "{0, 21}";
target = up;
type = BottomGhost;
},
{
horizontal = 1;
place = "{700, -20}";
target = down;
type = TopGhost;
}
);
layerId = "6E968933-CD79-43C6-9231-80D77C940F4D";
paths = (
{
closed = 1;
nodes = (
"95 700 LINE",
"95 0 LINE",
"466 0 LINE",
"466 20 LINE",
"117 20 LINE",
"117 700 LINE"
);
}
);
width = 497.63732;
},
{
anchors = (
{
name = bottom;
position = "{253, 1}";
},
{
name = commaaccent;
position = "{253, 11}";
},
{
name = top;
position = "{222, 700}";
},
{
name = topright;
position = "{443, 702}";
}
);
hints = (
{
place = "{53, 176}";
type = Stem;
},
{
horizontal = 1;
place = "{0, 136}";
type = Stem;
},
{
horizontal = 1;
place = "{700, -20}";
target = down;
type = TopGhost;
}
);
layerId = "BAF31694-0472-4296-B0EA-1654553C45D2";
paths = (
{
closed = 1;
nodes = (
"55 700 LINE",
"55 0 LINE",
"534 0 LINE",
"534 146 LINE",
"229 146 LINE",
"229 700 LINE"
);
}
);
width = 552.3134;
},
{
anchors = (
{
name = bottom;
position = "{243, 0}";
},
{
name = commaaccent;
position = "{243, 10}";
},
{
name = top;
position = "{220, 700}";
},
{
name = topright;
position = "{412, 693}";
}
);
hints = (
{
place = "{39, 66}";
type = Stem;
},
{
horizontal = 1;
place = "{0, 21}";
target = up;
type = BottomGhost;
},
{
horizontal = 1;
place = "{700, -20}";
target = down;
type = TopGhost;
}
);
layerId = "9F107B1E-3A61-4335-981B-27DD48125C7E";
paths = (
{
closed = 1;
nodes = (
"85 700 LINE",
"85 0 LINE",
"492 0 LINE",
"492 70 LINE",
"165 70 LINE",
"165 700 LINE"
);
}
);
width = 520.30508;
}
);
leftMetricsKey = H;
rightMetricsKey = "=H*0.333";
unicode = 004C;
},
{
glyphname = Lcaron;
lastChange = "2021-09-02 09:18:01 +0000";
layers = (
{
anchors = (
{
name = _bottom;
position = "{352, 746}";
}
);
components = (
{
name = L;
}
);
hints = (
{
place = "{297, 117}";
type = Stem;
},
{
place = "{302, 112}";
type = Stem;
},
{
place = "{350, 64}";
type = Stem;
},
{
horizontal = 1;
place = "{603, 96}";
type = Stem;
},
{
horizontal = 1;
place = "{474, 21}";
target = up;
type = BottomGhost;
}
);
layerId = "0CF0EA28-C756-4A9E-9D7C-CFEF350B4CFE";
paths = (
{
closed = 1;
nodes = (
"297 700 LINE",
"297 604 LINE",
"350 604 LINE",
"350 583 LINE SMOOTH",
"350 544 OFFCURVE",
"335 525 OFFCURVE",
"302 525 CURVE",
"302 475 LINE",
"376 475 OFFCURVE",
"414 518 OFFCURVE",
"414 601 CURVE SMOOTH",
"414 630 OFFCURVE",
"410 663 OFFCURVE",
"400 700 CURVE"
);
}
);
width = 528.97;
},
{
anchors = (
{
name = _bottom;
position = "{261, 736}";
}
);
components = (
{
name = L;
}
);
hints = (
{
place = "{233, 61}";
type = Stem;
},
{
place = "{272, 23}";
type = Stem;
},
{
horizontal = 1;
place = "{555, 22}";
type = Stem;
},
{
horizontal = 1;
place = "{685, -20}";
target = down;
type = TopGhost;
}
);
layerId = "6E968933-CD79-43C6-9231-80D77C940F4D";
paths = (
{
closed = 1;
nodes = (
"233 700 LINE",
"233 646 LINE",
"272 646 LINE",
"272 618 LINE SMOOTH",
"272 589 OFFCURVE",
"262 573 OFFCURVE",
"227 573 CURVE",
"227 552 LINE",
"267 552 OFFCURVE",
"295 568 OFFCURVE",
"295 631 CURVE SMOOTH",
"295 649 OFFCURVE",
"294 671 OFFCURVE",
"290 700 CURVE"
);
}
);
width = 497.63787;
},
{
anchors = (
{
name = _bottom;
position = "{408, 739}";
}
);
components = (
{
name = L;
}
);
hints = (
{
place = "{126, 50}";
type = Stem;
},
{
place = "{341, 152}";
type = Stem;
},
{
place = "{402, 90}";
type = Stem;
},
{
horizontal = 1;
place = "{575, 124}";
type = Stem;
},
{
horizontal = 1;
place = "{426, 21}";
target = up;
type = BottomGhost;
}
);
layerId = "BAF31694-0472-4296-B0EA-1654553C45D2";
paths = (
{
closed = 1;
nodes = (
"338 700 LINE",
"338 575 LINE",
"402 575 LINE",
"402 560 LINE SMOOTH",
"402 515 OFFCURVE",
"384 494 OFFCURVE",
"350 494 CURVE",
"350 426 LINE",
"447 426 OFFCURVE",
"492 490 OFFCURVE",
"492 581 CURVE SMOOTH",
"492 617 OFFCURVE",
"486 658 OFFCURVE",
"472 700 CURVE"
);
}
);
width = 552.31009;
},
{
anchors = (
{
name = _bottom;
position = "{318, 742}";
}
);
components = (
{
name = L;
}
);
hints = (
{
place = "{276, 93}";
type = Stem;
},
{
place = "{321, 49}";
type = Stem;
},
{
horizontal = 1;
place = "{585, 68}";
type = Stem;
},
{
horizontal = 1;
place = "{257, -20}";
target = down;
type = TopGhost;
}
);
layerId = "9F107B1E-3A61-4335-981B-27DD48125C7E";
paths = (
{
closed = 1;
nodes = (
"273 700 LINE",
"273 620 LINE",
"321 620 LINE",
"321 597 LINE SMOOTH",
"321 561 OFFCURVE",
"308 543 OFFCURVE",
"274 543 CURVE",
"274 504 LINE",
"335 504 OFFCURVE",
"369 537 OFFCURVE",
"369 613 CURVE SMOOTH",
"369 638 OFFCURVE",
"367 666 OFFCURVE",
"359 700 CURVE"
);
}
);
width = 520.31045;
}
);
leftMetricsKey = L;
rightMetricsKey = L;
unicode = 013D;
},
{
glyphname = Lcommaaccent;
lastChange = "2021-09-02 09:18:01 +0000";
layers = (
{
anchors = (
{
name = _commaaccent;
position = "{248, 0}";
}
);
components = (
{
name = L;
}
);
hints = (
{
place = "{193, 117}";
type = Stem;
},
{
place = "{197, 113}";
type = Stem;
},
{
place = "{246, 64}";
type = Stem;
},
{
horizontal = 1;
place = "{-143, 96}";
type = Stem;
},
{
horizontal = 1;
place = "{-272, 21}";
target = up;
type = BottomGhost;
}
);
layerId = "0CF0EA28-C756-4A9E-9D7C-CFEF350B4CFE";
paths = (
{
closed = 1;
nodes = (
"193 -47 LINE",
"193 -143 LINE",
"246 -143 LINE",
"246 -165 LINE SMOOTH",
"246 -203.003 OFFCURVE",
"231 -222 OFFCURVE",
"197 -222 CURVE",
"197 -272 LINE",
"272 -272 OFFCURVE",
"310 -230 OFFCURVE",
"310 -146 CURVE SMOOTH",
"310 -117 OFFCURVE",
"306 -84 OFFCURVE",
"296 -47 CURVE"
);
}
);
width = 528.97;
},
{
anchors = (
{
name = _commaaccent;
position = "{231, 0}";
}
);
components = (
{
name = L;
}
);
hints = (
{
place = "{230, 24}";
type = Stem;
},
{
horizontal = 1;
place = "{-58, -20}";
target = down;
type = TopGhost;
},
{
horizontal = 1;
place = "{-177, 21}";
target = up;
type = BottomGhost;
}
);
layerId = "6E968933-CD79-43C6-9231-80D77C940F4D";
paths = (
{
closed = 1;
nodes = (
"207 -58 LINE",
"207 -97 LINE",
"238 -97 LINE",
"238 -105 LINE SMOOTH",
"238 -138 OFFCURVE",
"227 -158 OFFCURVE",
"195 -158 CURVE",
"195 -177 LINE",
"232 -177 OFFCURVE",
"261 -162 OFFCURVE",
"261 -91 CURVE SMOOTH",
"261 -81 OFFCURVE",
"260 -68 OFFCURVE",
"259 -58 CURVE"
);
}
);
width = 497.63787;
},
{
anchors = (
{
name = _commaaccent;
position = "{272, 6}";
}
);
components = (
{
name = L;
}
);
hints = (
{
place = "{203, 154}";
type = Stem;
},
{
place = "{246, 111}";
type = Stem;
},
{
place = "{-92, 73}";
type = Stem;
},
{
horizontal = 1;
place = "{-164, 125}";
type = Stem;
},
{
horizontal = 1;
place = "{-115, 21}";
target = up;
type = BottomGhost;
}
);
layerId = "BAF31694-0472-4296-B0EA-1654553C45D2";
paths = (
{
closed = 1;
nodes = (
"203 -38 LINE",
"203 -164 LINE",
"267 -164 LINE",
"267 -178 LINE SMOOTH",
"267 -224 OFFCURVE",
"249 -245 OFFCURVE",
"214 -245 CURVE",
"214 -312 LINE",
"312 -312 OFFCURVE",
"357 -248 OFFCURVE",
"357 -158 CURVE SMOOTH",
"357 -121 OFFCURVE",
"351 -81 OFFCURVE",
"336 -38 CURVE"
);
}
);
width = 552.30821;
},
{
anchors = (
{
name = _commaaccent;
position = "{242, 0}";
}
);
components = (
{
name = L;
}
);
hints = (
{
place = "{-3, 69}";
type = Stem;
},
{
horizontal = 1;
place = "{-22, -20}";
target = down;
type = TopGhost;
},
{
horizontal = 1;
place = "{-236, 21}";
target = up;
type = BottomGhost;
}
);
layerId = "9F107B1E-3A61-4335-981B-27DD48125C7E";
paths = (
{
closed = 1;
nodes = (
"198 -51 LINE",
"198 -126 LINE",
"243 -126 LINE",
"243 -143 LINE SMOOTH",
"243 -179 OFFCURVE",
"230 -198 OFFCURVE",
"196 -198 CURVE",
"196 -236 LINE",
"257 -236 OFFCURVE",
"292 -205 OFFCURVE",
"292 -125 CURVE SMOOTH",
"292 -104 OFFCURVE",
"289 -78 OFFCURVE",
"282 -51 CURVE"
);
}
);
width = 520.31045;
}
);
leftMetricsKey = L;
rightMetricsKey = L;
unicode = 013B;
},
{
glyphname = Ldot;
lastChange = "2021-09-02 09:18:01 +0000";
layers = (
{
hints = (
{
place = "{85, 114}";
type = Stem;
},
{
place = "{302, 120}";
type = Stem;
},
{
horizontal = 1;
place = "{0, 92}";
type = Stem;
},
{
horizontal = 1;
place = "{317, 120}";
type = Stem;
},
{
horizontal = 1;
place = "{699, -20}";
target = down;
type = TopGhost;
}
);
layerId = "0CF0EA28-C756-4A9E-9D7C-CFEF350B4CFE";
paths = (
{
closed = 1;
nodes = (
"424 0 LINE",
"424 92 LINE",
"189 92 LINE",
"189 700 LINE",
"75 700 LINE",
"75 0 LINE"
);
},
{
closed = 1;
nodes = (
"385 317 OFFCURVE",
"412 343 OFFCURVE",
"412 377 CURVE SMOOTH",
"412 410 OFFCURVE",
"385 437 OFFCURVE",
"352 437 CURVE SMOOTH",
"318 437 OFFCURVE",
"292 410 OFFCURVE",
"292 377 CURVE SMOOTH",
"292 343 OFFCURVE",
"318 317 OFFCURVE",
"352 317 CURVE SMOOTH"
);
}
);
width = 448.97;
},
{
hints = (
{
place = "{109, 22}";
type = Stem;
},
{
place = "{305, 61}";
type = Stem;
},
{
horizontal = 1;
place = "{345, 61}";
type = Stem;
},
{
horizontal = 1;
place = "{0, 21}";
target = up;
type = BottomGhost;
},
{
horizontal = 1;
place = "{700, -20}";
target = down;
type = TopGhost;
}
);
layerId = "6E968933-CD79-43C6-9231-80D77C940F4D";
paths = (
{
closed = 1;
nodes = (
"386 0 LINE",
"386 20 LINE",
"117 20 LINE",
"117 700 LINE",
"95 700 LINE",
"95 0 LINE"
);
},
{
closed = 1;
nodes = (
"349 345 OFFCURVE",
"363 360 OFFCURVE",
"363 376 CURVE SMOOTH",
"363 392 OFFCURVE",
"349 406 OFFCURVE",
"332 406 CURVE SMOOTH",
"316 406 OFFCURVE",
"302 392 OFFCURVE",
"302 376 CURVE SMOOTH",
"302 360 OFFCURVE",
"316 345 OFFCURVE",
"332 345 CURVE SMOOTH"
);
}
);
width = 417.63787;
},
{
hints = (
{
place = "{53, 176}";
type = Stem;
},
{
place = "{306, 150}";
type = Stem;
},
{
horizontal = 1;
place = "{0, 136}";
type = Stem;
},
{
horizontal = 1;
place = "{320, 150}";
type = Stem;
},
{
horizontal = 1;
place = "{700, -20}";
target = down;
type = TopGhost;
}
);
layerId = "BAF31694-0472-4296-B0EA-1654553C45D2";
paths = (
{
closed = 1;
nodes = (
"454 0 LINE",
"454 136 LINE",
"232 136 LINE",
"232 700 LINE",
"55 700 LINE",
"55 0 LINE"
);
},
{
closed = 1;
nodes = (
"425 320 OFFCURVE",
"458 352 OFFCURVE",
"458 395 CURVE SMOOTH",
"458 437 OFFCURVE",
"425 470 OFFCURVE",
"382 470 CURVE SMOOTH",
"340 470 OFFCURVE",
"308 437 OFFCURVE",
"308 395 CURVE SMOOTH",
"308 352 OFFCURVE",
"340 320 OFFCURVE",
"382 320 CURVE SMOOTH"
);
}
);
width = 476.31028;
},
{
hints = (
{
place = "{230, 83}";
type = Stem;
},
{
place = "{114, 80}";
type = Stem;
},
{
horizontal = 1;
place = "{328, 98}";
type = Stem;
},
{
horizontal = 1;
place = "{0, 21}";
target = up;
type = BottomGhost;
},
{
horizontal = 1;
place = "{699, -20}";
target = down;
type = TopGhost;
}
);
layerId = "9F107B1E-3A61-4335-981B-27DD48125C7E";
paths = (
{
closed = 1;
nodes = (
"412 0 LINE",
"412 65 LINE",
"164 65 LINE",
"164 700 LINE",
"85 700 LINE",
"85 0 LINE"
);
},
{
closed = 1;
nodes = (
"374 328 OFFCURVE",
"396 349 OFFCURVE",
"396 377 CURVE SMOOTH",
"396 403 OFFCURVE",
"374 425 OFFCURVE",
"347 425 CURVE SMOOTH",
"319 425 OFFCURVE",
"298 403 OFFCURVE",
"298 377 CURVE SMOOTH",
"298 349 OFFCURVE",
"319 328 OFFCURVE",
"347 328 CURVE SMOOTH"
);
}
);
width = 440.31045;
}
);
leftMetricsKey = L;
rightMetricsKey = L;
unicode = 013F;
},
{
glyphname = Lslash;
lastChange = "2021-09-02 15:54:38 +0000";
layers = (
{
hints = (
{
place = "{85, 192}";
type = Stem;
},
{
place = "{162, 115}";
type = Stem;
},
{
place = "{162, 207}";
type = Stem;
},
{
horizontal = 1;
place = "{0, 87}";
type = Stem;
},
{
horizontal = 1;
place = "{699, -20}";
target = down;
type = TopGhost;
}
);
layerId = "0CF0EA28-C756-4A9E-9D7C-CFEF350B4CFE";
paths = (
{
closed = 1;
nodes = (
"75 269 LINE",
"152 294.215 LINE",
"152 0 LINE",
"501 0 LINE",
"501 87 LINE",
"267 87 LINE",
"267 331.873 LINE",
"359 362 LINE",
"359 449 LINE",
"267 418.549 LINE",
"267 700 LINE",
"152 700 LINE",
"152 380.486 LINE",
"75 355 LINE"
);
}
);
width = 525.97;
},
{
hints = (
{
place = "{196, 21}";
type = Stem;
},
{
horizontal = 1;
place = "{0, 21}";
target = up;
type = BottomGhost;
},
{
horizontal = 1;
place = "{700, -20}";
target = down;
type = TopGhost;
}
);
layerId = "6E968933-CD79-43C6-9231-80D77C940F4D";
paths = (
{
closed = 1;
nodes = (
"95 311 LINE",
"189 354.935 LINE",
"189 0 LINE",
"480 0 LINE",
"480 19 LINE",
"211 19 LINE",
"211 365.217 LINE",
"371 440 LINE",
"371 461 LINE",
"211 386.797 LINE",
"211 700 LINE",
"189 700 LINE",
"189 376.594 LINE",
"95 333 LINE"
);
}
);
width = 511.64489;
},
{
hints = (
{
place = "{36, 82}";
type = Stem;
},
{
place = "{69, 49}";
type = Stem;
},
{
place = "{118, 216}";
type = Stem;
},
{
horizontal = 1;
place = "{0, 134}";
type = Stem;
},
{
horizontal = 1;
place = "{700, -20}";
target = down;
type = TopGhost;
}
);
layerId = "BAF31694-0472-4296-B0EA-1654553C45D2";
paths = (
{
closed = 1;
nodes = (
"55 251 LINE",
"120 269.916 LINE",
"120 0 LINE",
"519 0 LINE",
"519 134 LINE",
"296 134 LINE",
"296 321.136 LINE",
"378 345 LINE",
"378 495 LINE",
"296 470.882 LINE",
"296 700 LINE",
"120 700 LINE",
"120 419.118 LINE",
"55 400 LINE"
);
}
);
width = 537.30783;
},
{
hints = (
{
place = "{74, 62}";
type = Stem;
},
{
horizontal = 1;
place = "{0, 21}";
target = up;
type = BottomGhost;
},
{
horizontal = 1;
place = "{699, -20}";
target = down;
type = TopGhost;
}
);
layerId = "9F107B1E-3A61-4335-981B-27DD48125C7E";
paths = (
{
closed = 1;
nodes = (
"85 285 LINE",
"168 316.31 LINE",
"168 0 LINE",
"495 0 LINE",
"495 62 LINE",
"248 62 LINE",
"248 346.488 LINE",
"366 391 LINE",
"366 454 LINE",
"248 409.068 LINE",
"248 700 LINE",
"168 700 LINE",
"168 378.605 LINE",
"85 347 LINE"
);
}
);
width = 523.30808;
}
);
leftMetricsKey = L;
rightMetricsKey = L;
unicode = 0141;
},
{
glyphname = M;
lastChange = "2021-09-02 15:54:38 +0000";
layers = (
{
hints = (
{
place = "{85, 114}";
type = Stem;
},
{
place = "{703, 114}";
type = Stem;
},
{
horizontal = 1;
place = "{700, -20}";
target = down;
type = TopGhost;
},
{
horizontal = 1;
place = "{0, 21}";
target = up;
type = BottomGhost;
}
);
layerId = "0CF0EA28-C756-4A9E-9D7C-CFEF350B4CFE";
paths = (
{
closed = 1;
nodes = (
"189 479 LINE",
"398 0 LINE",
"484 0 LINE",
"693 479 LINE",
"693 0 LINE",
"807 0 LINE",
"807 700 LINE",
"681 700 LINE",
"441 150 LINE",
"201 700 LINE",
"75 700 LINE",
"75 0 LINE",
"189 0 LINE"
);
}
);
width = 882;
},
{
hints = (
{
place = "{105, 22}";
type = Stem;
},
{
place = "{712, 22}";
type = Stem;
},
{
horizontal = 1;
place = "{0, 21}";
target = up;
type = BottomGhost;
},
{
horizontal = 1;
place = "{700, -20}";
target = down;
type = TopGhost;
}
);
layerId = "6E968933-CD79-43C6-9231-80D77C940F4D";
paths = (
{
closed = 1;
nodes = (
"117 647 LINE",
"399 0 LINE",
"420 0 LINE",
"702 647 LINE",
"702 0 LINE",
"724 0 LINE",
"724 700 LINE",
"702 700 LINE",
"410 29 LINE",
"117 700 LINE",
"95 700 LINE",
"95 0 LINE",
"117 0 LINE"
);
}
);
width = 819.00298;
},
{
hints = (
{
place = "{53, 176}";
type = Stem;
},
{
place = "{678, 176}";
type = Stem;
},
{
horizontal = 1;
place = "{700, -20}";
target = down;
type = TopGhost;
},
{
horizontal = 1;
place = "{0, 21}";
target = up;
type = BottomGhost;
}
);
layerId = "BAF31694-0472-4296-B0EA-1654553C45D2";
paths = (
{
closed = 1;
nodes = (
"229 401 LINE",
"382 0 LINE",
"524 0 LINE",
"677 401 LINE",
"677 0 LINE",
"851 0 LINE",
"851 700 LINE",
"645 700 LINE",
"453 225 LINE",
"261 700 LINE",
"55 700 LINE",
"55 0 LINE",
"229 0 LINE"
);
}
);
width = 906.00397;
},
{
hints = (
{
place = "{93, 80}";
type = Stem;
},
{
place = "{706, 80}";
type = Stem;
},
{
horizontal = 1;
place = "{0, 21}";
target = up;
type = BottomGhost;
},
{
horizontal = 1;
place = "{700, -20}";
target = down;
type = TopGhost;
}
);
layerId = "9F107B1E-3A61-4335-981B-27DD48125C7E";
paths = (
{
closed = 1;
nodes = (
"165 542 LINE",
"404 0 LINE",
"461 0 LINE",
"699 542 LINE",
"699 0 LINE",
"779 0 LINE",
"779 700 LINE",
"692 700 LINE",
"433 110 LINE",
"173 700 LINE",
"85 700 LINE",
"85 0 LINE",
"165 0 LINE"
);
}
);
width = 863.99987;
}
);
leftMetricsKey = H;
rightMetricsKey = H;
unicode = 004D;
},
{
glyphname = N;
lastChange = "2021-09-02 15:54:38 +0000";
layers = (
{
anchors = (
{
name = bottom;
position = "{368, 0}";
},
{
name = top;
position = "{368, 700}";
}
);
hints = (
{
place = "{85, 114}";
type = Stem;
},
{
place = "{542, 114}";
type = Stem;
},
{
horizontal = 1;
place = "{700, -20}";
target = down;
type = TopGhost;
},
{
horizontal = 1;
place = "{0, 21}";
target = up;
type = BottomGhost;
}
);
layerId = "0CF0EA28-C756-4A9E-9D7C-CFEF350B4CFE";
paths = (
{
closed = 1;
nodes = (
"523 700 LINE",
"523 182 LINE",
"192 700 LINE",
"75 700 LINE",
"75 0 LINE",
"189 0 LINE",
"189 520 LINE",
"520 0 LINE",
"637 0 LINE",
"637 700 LINE"
);
}
);
width = 712;
},
{
anchors = (
{
name = bottom;
position = "{340, 0}";
},
{
name = top;
position = "{340, 700}";
}
);
hints = (
{
place = "{105, 22}";
type = Stem;
},
{
place = "{562, 22}";
type = Stem;
},
{
horizontal = 1;
place = "{699, -20}";
target = down;
type = TopGhost;
},
{
horizontal = 1;
place = "{0, 21}";
target = up;
type = BottomGhost;
}
);
layerId = "6E968933-CD79-43C6-9231-80D77C940F4D";
paths = (
{
closed = 1;
nodes = (
"564 700 LINE",
"564 39 LINE",
"116 700 LINE",
"95 700 LINE",
"95 0 LINE",
"117 0 LINE",
"117 661 LINE",
"565 0 LINE",
"586 0 LINE",
"586 700 LINE"
);
}
);
width = 680.99894;
},
{
anchors = (
{
name = bottom;
position = "{374, 1}";
},
{
name = top;
position = "{374, 700}";
}
);
hints = (
{
place = "{53, 176}";
type = Stem;
},
{
place = "{510, 176}";
type = Stem;
},
{
horizontal = 1;
place = "{700, -20}";
target = down;
type = TopGhost;
},
{
horizontal = 1;
place = "{0, 21}";
target = up;
type = BottomGhost;
}
);
layerId = "BAF31694-0472-4296-B0EA-1654553C45D2";
paths = (
{
closed = 1;
nodes = (
"491 700 LINE",
"491 273 LINE",
"230 700 LINE",
"55 700 LINE",
"55 0 LINE",
"229 0 LINE",
"229 424 LINE",
"490 0 LINE",
"665 0 LINE",
"665 700 LINE"
);
}
);
width = 720.00378;
},
{
anchors = (
{
name = bottom;
position = "{361, 0}";
},
{
name = top;
position = "{361, 700}";
}
);
hints = (
{
place = "{93, 80}";
type = Stem;
},
{
place = "{550, 80}";
type = Stem;
},
{
horizontal = 1;
place = "{700, -20}";
target = down;
type = TopGhost;
},
{
horizontal = 1;
place = "{0, 21}";
target = up;
type = BottomGhost;
}
);
layerId = "9F107B1E-3A61-4335-981B-27DD48125C7E";
paths = (
{
closed = 1;
nodes = (
"540 700 LINE",
"540 129 LINE",
"166 700 LINE",
"85 700 LINE",
"85 0 LINE",
"165 0 LINE",
"165 572 LINE",
"539 0 LINE",
"620 0 LINE",
"620 700 LINE"
);
}
);
width = 705.00335;
}
);
leftMetricsKey = H;
rightMetricsKey = H;
unicode = 004E;
},
{
glyphname = Ncommaaccent;
lastChange = "2021-09-02 09:18:01 +0000";
layers = (
{
anchors = (
{
name = _bottom;
position = "{361, 0}";
}
);
components = (
{
name = N;
}
);
hints = (
{
place = "{306, 117}";
type = Stem;
},
{
place = "{311, 112}";
type = Stem;
},
{
place = "{359, 64}";
type = Stem;
},
{
horizontal = 1;
place = "{-143, 96}";
type = Stem;
},
{
horizontal = 1;
place = "{-272, 21}";
target = up;
type = BottomGhost;
}
);
layerId = "0CF0EA28-C756-4A9E-9D7C-CFEF350B4CFE";
paths = (
{
closed = 1;
nodes = (
"306 -47 LINE",
"306 -143 LINE",
"359 -143 LINE",
"359 -165 LINE SMOOTH",
"359 -203.003 OFFCURVE",
"344 -222 OFFCURVE",
"311 -222 CURVE",
"311 -272 LINE",
"385 -272 OFFCURVE",
"423 -230 OFFCURVE",
"423 -146 CURVE SMOOTH",
"423 -117 OFFCURVE",
"419 -84 OFFCURVE",
"409 -47 CURVE"
);
}
);
width = 712;
},
{
anchors = (
{
name = _bottom;
position = "{324, 0}";
}
);
components = (
{
name = N;
}
);
hints = (
{
place = "{318, 24}";
type = Stem;
},
{
horizontal = 1;
place = "{-58, -20}";
target = down;
type = TopGhost;
},
{
horizontal = 1;
place = "{-177, 21}";
target = up;
type = BottomGhost;
}
);
layerId = "6E968933-CD79-43C6-9231-80D77C940F4D";
paths = (
{
closed = 1;
nodes = (
"297 -58 LINE",
"297 -97 LINE",
"329 -97 LINE",
"329 -105 LINE SMOOTH",
"329 -138 OFFCURVE",
"318 -158 OFFCURVE",
"286 -158 CURVE",
"286 -177 LINE",
"322 -177 OFFCURVE",
"352 -162 OFFCURVE",
"352 -91 CURVE SMOOTH",
"352 -81 OFFCURVE",
"350 -68 OFFCURVE",
"349 -58 CURVE"
);
}
);
width = 680.99894;
},
{
anchors = (
{
name = _bottom;
position = "{392, 1}";
}
);
components = (
{
name = N;
}
);
hints = (
{
place = "{322, 154}";
type = Stem;
},
{
place = "{366, 111}";
type = Stem;
},
{
place = "{-44, 73}";
type = Stem;
},
{
horizontal = 1;
place = "{-164, 125}";
type = Stem;
},
{
horizontal = 1;
place = "{-115, 21}";
target = up;
type = BottomGhost;
}
);
layerId = "BAF31694-0472-4296-B0EA-1654553C45D2";
paths = (
{
closed = 1;
nodes = (
"322 -38 LINE",
"322 -164 LINE",
"386 -164 LINE",
"386 -178 LINE SMOOTH",
"386 -224 OFFCURVE",
"368 -245 OFFCURVE",
"334 -245 CURVE",
"334 -312 LINE",
"431 -312 OFFCURVE",
"477 -248 OFFCURVE",
"477 -158 CURVE SMOOTH",
"477 -121 OFFCURVE",
"470 -81 OFFCURVE",
"455 -38 CURVE"
);
}
);
width = 720.00378;
},
{
anchors = (
{
name = _bottom;
position = "{347, 0}";
}
);
components = (
{
name = N;
}
);
hints = (
{
place = "{30, 69}";
type = Stem;
},
{
horizontal = 1;
place = "{-22, -20}";
target = down;
type = TopGhost;
},
{
horizontal = 1;
place = "{-236, 21}";
target = up;
type = BottomGhost;
}
);
layerId = "9F107B1E-3A61-4335-981B-27DD48125C7E";
paths = (
{
closed = 1;
nodes = (
"303 -51 LINE",
"303 -126 LINE",
"348 -126 LINE",
"348 -143 LINE SMOOTH",
"348 -179 OFFCURVE",
"334 -198 OFFCURVE",
"302 -198 CURVE",
"302 -236 LINE",
"361 -236 OFFCURVE",
"396 -205 OFFCURVE",
"396 -125 CURVE SMOOTH",
"396 -104 OFFCURVE",
"393 -78 OFFCURVE",
"387 -51 CURVE"
);
}
);
width = 705.00335;
}
);
leftMetricsKey = H;
rightMetricsKey = H;
unicode = 0145;
},
{
glyphname = O;
lastChange = "2021-09-02 15:54:38 +0000";
layers = (
{
anchors = (
{
name = top;
position = "{392.5, 700}";
}
);
hints = (
{
place = "{42, 117}";
type = Stem;
},
{
place = "{635, 117}";
type = Stem;
},
{
horizontal = 1;
place = "{-7, 99}";
type = Stem;
},
{
horizontal = 1;
place = "{608, 100}";
type = Stem;
}
);
layerId = "0CF0EA28-C756-4A9E-9D7C-CFEF350B4CFE";
paths = (
{
closed = 1;
nodes = (
"590.5 -7 OFFCURVE",
"747.5 140 OFFCURVE",
"747.5 350 CURVE SMOOTH",
"747.5 559 OFFCURVE",
"590.5 707 OFFCURVE",
"392.5 707 CURVE SMOOTH",
"196.5 707 OFFCURVE",
"37.5 559 OFFCURVE",
"37.5 350 CURVE SMOOTH",
"37.5 140 OFFCURVE",
"196.5 -7 OFFCURVE",
"392.5 -7 CURVE SMOOTH"
);
},
{
closed = 1;
nodes = (
"254.5 90 OFFCURVE",
"153.5 192 OFFCURVE",
"153.5 350 CURVE SMOOTH",
"153.5 509 OFFCURVE",
"254.5 610 OFFCURVE",
"392.5 610 CURVE SMOOTH",
"530.5 610 OFFCURVE",
"631.5 509 OFFCURVE",
"631.5 350 CURVE SMOOTH",
"631.5 192 OFFCURVE",
"530.5 90 OFFCURVE",
"392.5 90 CURVE SMOOTH"
);
}
);
width = 785;
},
{
anchors = (
{
name = top;
position = "{394.5, 700}";
}
);
hints = (
{
place = "{51, 23}";
type = Stem;
},
{
place = "{701, 23}";
type = Stem;
},
{
horizontal = 1;
place = "{691, -20}";
target = down;
type = TopGhost;
},
{
horizontal = 1;
place = "{-8, 21}";
target = up;
type = BottomGhost;
}
);
layerId = "6E968933-CD79-43C6-9231-80D77C940F4D";
paths = (
{
closed = 1;
nodes = (
"580.5 -7 OFFCURVE",
"720.5 140 OFFCURVE",
"720.5 350 CURVE",
"720.5 560 OFFCURVE",
"580.5 707 OFFCURVE",
"384.5 707 CURVE",
"188.5 707 OFFCURVE",
"47.5 560 OFFCURVE",
"47.5 350 CURVE",
"47.5 140 OFFCURVE",
"188.5 -7 OFFCURVE",
"384.5 -7 CURVE"
);
},
{
closed = 1;
nodes = (
"209.5 13 OFFCURVE",
"70.5 140 OFFCURVE",
"70.5 350 CURVE",
"70.5 560 OFFCURVE",
"209.5 687 OFFCURVE",
"384.5 687 CURVE",
"558.5 687 OFFCURVE",
"697.5 560 OFFCURVE",
"697.5 350 CURVE",
"697.5 140 OFFCURVE",
"558.5 13 OFFCURVE",
"384.5 13 CURVE"
);
}
);
width = 768.00298;
},
{
anchors = (
{
name = top;
position = "{387.5, 700}";
}
);
hints = (
{
place = "{26, 180}";
type = Stem;
},
{
place = "{568, 179}";
type = Stem;
},
{
horizontal = 1;
place = "{-7, 161}";
type = Stem;
},
{
horizontal = 1;
place = "{550, 160}";
type = Stem;
}
);
layerId = "BAF31694-0472-4296-B0EA-1654553C45D2";
paths = (
{
closed = 1;
nodes = (
"587.5 -7 OFFCURVE",
"747.5 140 OFFCURVE",
"747.5 350 CURVE SMOOTH",
"747.5 560 OFFCURVE",
"588.5 707 OFFCURVE",
"387.5 707 CURVE SMOOTH",
"189.5 707 OFFCURVE",
"27.5 560 OFFCURVE",
"27.5 350 CURVE SMOOTH",
"27.5 140 OFFCURVE",
"189.5 -7 OFFCURVE",
"387.5 -7 CURVE SMOOTH"
);
},
{
closed = 1;
nodes = (
"276.5 142 OFFCURVE",
"204.5 230 OFFCURVE",
"204.5 350 CURVE SMOOTH",
"204.5 471 OFFCURVE",
"276.5 558 OFFCURVE",
"387.5 558 CURVE SMOOTH",
"497.5 558 OFFCURVE",
"570.5 471 OFFCURVE",
"570.5 350 CURVE SMOOTH",
"570.5 230 OFFCURVE",
"497.5 142 OFFCURVE",
"387.5 142 CURVE SMOOTH"
);
}
);
width = 775.00491;
},
{
anchors = (
{
name = top;
position = "{394.5, 700}";
}
);
hints = (
{
place = "{15, 71}";
type = Stem;
},
{
place = "{643, 71}";
type = Stem;
},
{
horizontal = 1;
place = "{259, -20}";
target = down;
type = TopGhost;
},
{
horizontal = 1;
place = "{-3, 21}";
target = up;
type = BottomGhost;
}
);
layerId = "9F107B1E-3A61-4335-981B-27DD48125C7E";
paths = (
{
closed = 1;
nodes = (
"588.5 -7 OFFCURVE",
"738.5 140 OFFCURVE",
"738.5 350 CURVE",
"738.5 560 OFFCURVE",
"588.5 707 OFFCURVE",
"391.5 707 CURVE",
"195.5 707 OFFCURVE",
"42.5 560 OFFCURVE",
"42.5 350 CURVE",
"42.5 140 OFFCURVE",
"195.5 -7 OFFCURVE",
"391.5 -7 CURVE"
);
},
{
closed = 1;
nodes = (
"239.5 63 OFFCURVE",
"124.5 173 OFFCURVE",
"124.5 350 CURVE",
"124.5 528 OFFCURVE",
"239.5 637 OFFCURVE",
"391.5 637 CURVE",
"542.5 637 OFFCURVE",
"656.5 528 OFFCURVE",
"656.5 350 CURVE",
"656.5 173 OFFCURVE",
"542.5 63 OFFCURVE",
"391.5 63 CURVE"
);
}
);
width = 781.00112;
}
);
leftMetricsKey = "=H*0.5";
rightMetricsKey = "=H*0.5";
unicode = 004F;
},
{
glyphname = Oslash;
lastChange = "2021-09-02 15:54:38 +0000";
layers = (
{
components = (
{
name = O;
}
);
layerId = "0CF0EA28-C756-4A9E-9D7C-CFEF350B4CFE";
paths = (
{
closed = 1;
nodes = (
"150 156 LINE",
"241 109 LINE",
"654 561 LINE",
"563 608 LINE"
);
}
);
width = 785;
},
{
components = (
{
name = O;
}
);
layerId = "6E968933-CD79-43C6-9231-80D77C940F4D";
paths = (
{
closed = 1;
nodes = (
"148 104 LINE",
"164 93 LINE",
"629 596 LINE",
"615 609 LINE"
);
}
);
width = 768.00298;
},
{
components = (
{
name = O;
}
);
layerId = "BAF31694-0472-4296-B0EA-1654553C45D2";
paths = (
{
closed = 1;
nodes = (
"151 170 LINE",
"257 116 LINE",
"653 551 LINE",
"547 606 LINE"
);
}
);
width = 774.99755;
},
{
components = (
{
name = O;
}
);
layerId = "9F107B1E-3A61-4335-981B-27DD48125C7E";
paths = (
{
closed = 1;
nodes = (
"149 137 LINE",
"212 103 LINE",
"645 574 LINE",
"582 608 LINE"
);
}
);
width = 781.00112;
}
);
leftMetricsKey = O;
rightMetricsKey = O;
unicode = 00D8;
},
{
glyphname = P;
lastChange = "2021-09-02 15:54:38 +0000";
layers = (
{
hints = (
{
place = "{85, 114}";
type = Stem;
},
{
place = "{484, 117}";
type = Stem;
},
{
horizontal = 1;
place = "{284, 93}";
type = Stem;
},
{
horizontal = 1;
place = "{607, 93}";
type = Stem;
},
{
horizontal = 1;
place = "{0, 21}";
target = up;
type = BottomGhost;
}
);
layerId = "0CF0EA28-C756-4A9E-9D7C-CFEF350B4CFE";
paths = (
{
closed = 1;
nodes = (
"189 375 LINE",
"189 605 LINE",
"345 605 LINE SMOOTH",
"434 605 OFFCURVE",
"475 563 OFFCURVE",
"475 490 CURVE SMOOTH",
"475 419 OFFCURVE",
"434 375 OFFCURVE",
"345 375 CURVE SMOOTH"
);
},
{
closed = 1;
nodes = (
"591 604 OFFCURVE",
"510 700 OFFCURVE",
"345 700 CURVE SMOOTH",
"75 700 LINE",
"75 0 LINE",
"189 0 LINE",
"189 280 LINE",
"345 280 LINE SMOOTH",
"526 280 OFFCURVE",
"591 391 OFFCURVE",
"591 490 CURVE SMOOTH"
);
}
);
width = 628.5;
},
{
hints = (
{
place = "{105, 22}";
type = Stem;
},
{
place = "{517, 22}";
type = Stem;
},
{
horizontal = 1;
place = "{314, 23}";
type = Stem;
},
{
horizontal = 1;
place = "{677, 23}";
type = Stem;
},
{
horizontal = 1;
place = "{0, 21}";
target = up;
type = BottomGhost;
}
);
layerId = "6E968933-CD79-43C6-9231-80D77C940F4D";
paths = (
{
closed = 1;
nodes = (
"117 325 LINE",
"117 680 LINE",
"304 680 LINE",
"454 680 OFFCURVE",
"508 611 OFFCURVE",
"508 503 CURVE SMOOTH",
"508 401 OFFCURVE",
"454 325 OFFCURVE",
"304 325 CURVE SMOOTH"
);
},
{
closed = 1;
nodes = (
"530 619 OFFCURVE",
"473 700 OFFCURVE",
"304 700 CURVE SMOOTH",
"95 700 LINE",
"95 0 LINE",
"117 0 LINE",
"117 305 LINE",
"304 305 LINE SMOOTH",
"451 305 OFFCURVE",
"530 375 OFFCURVE",
"530 503 CURVE SMOOTH"
);
}
);
width = 577.50266;
},
{
hints = (
{
place = "{53, 176}";
type = Stem;
},
{
place = "{444, 179}";
type = Stem;
},
{
horizontal = 1;
place = "{248, 140}";
type = Stem;
},
{
horizontal = 1;
place = "{558, 142}";
type = Stem;
},
{
horizontal = 1;
place = "{0, 21}";
target = up;
type = BottomGhost;
}
);
layerId = "BAF31694-0472-4296-B0EA-1654553C45D2";
paths = (
{
closed = 1;
nodes = (
"229 389 LINE",
"229 554 LINE",
"366 554 LINE SMOOTH",
"428 554 OFFCURVE",
"459 522 OFFCURVE",
"459 472 CURVE SMOOTH",
"459 419 OFFCURVE",
"428 389 OFFCURVE",
"366 389 CURVE SMOOTH"
);
},
{
closed = 1;
nodes = (
"636 594 OFFCURVE",
"550 700 OFFCURVE",
"377 700 CURVE SMOOTH",
"55 700 LINE",
"55 0 LINE",
"229 0 LINE",
"229 243 LINE",
"377 243 LINE SMOOTH",
"556 243 OFFCURVE",
"636 359 OFFCURVE",
"636 472 CURVE SMOOTH"
);
}
);
width = 663.50481;
},
{
hints = (
{
place = "{93, 80}";
type = Stem;
},
{
place = "{496, 81}";
type = Stem;
},
{
horizontal = 1;
place = "{295, 67}";
type = Stem;
},
{
horizontal = 1;
place = "{633, 67}";
type = Stem;
},
{
horizontal = 1;
place = "{0, 21}";
target = up;
type = BottomGhost;
}
);
layerId = "9F107B1E-3A61-4335-981B-27DD48125C7E";
paths = (
{
closed = 1;
nodes = (
"165 356 LINE",
"165 630 LINE",
"332 630 LINE",
"444 630 OFFCURVE",
"491 579 OFFCURVE",
"491 493 CURVE SMOOTH",
"491 410 OFFCURVE",
"444 356 OFFCURVE",
"332 356 CURVE SMOOTH"
);
},
{
closed = 1;
nodes = (
"570 607 OFFCURVE",
"495 700 OFFCURVE",
"332 700 CURVE SMOOTH",
"85 700 LINE",
"85 0 LINE",
"165 0 LINE",
"165 286 LINE",
"332 286 LINE SMOOTH",
"500 286 OFFCURVE",
"570 383 OFFCURVE",
"570 493 CURVE SMOOTH"
);
}
);
width = 612.496;
}
);
leftMetricsKey = H;
rightMetricsKey = "=H*0.5";
unicode = 0050;
},
{
glyphname = Thorn;
lastChange = "2021-09-02 15:54:38 +0000";
layers = (
{
hints = (
{
place = "{85, 114}";
type = Stem;
},
{
place = "{454, 117}";
type = Stem;
},
{
horizontal = 1;
place = "{143, 89}";
type = Stem;
},
{
horizontal = 1;
place = "{469, 89}";
type = Stem;
},
{
horizontal = 1;
place = "{0, 21}";
target = up;
type = BottomGhost;
},
{
horizontal = 1;
place = "{700, -20}";
target = down;
type = TopGhost;
}
);
layerId = "0CF0EA28-C756-4A9E-9D7C-CFEF350B4CFE";
paths = (
{
closed = 1;
nodes = (
"189 232 LINE",
"189 469 LINE",
"315 469 LINE SMOOTH",
"404 469 OFFCURVE",
"444 422 OFFCURVE",
"444 350 CURVE SMOOTH",
"444 279 OFFCURVE",
"404.005 232 OFFCURVE",
"315 232 CURVE SMOOTH"
);
},
{
closed = 1;
nodes = (
"561 464 OFFCURVE",
"480 558 OFFCURVE",
"315 558 CURVE SMOOTH",
"188 558 LINE",
"188 700 LINE",
"75 700 LINE",
"75 0 LINE",
"189 0 LINE",
"189 143 LINE",
"315 143 LINE SMOOTH",
"496 143 OFFCURVE",
"561 251 OFFCURVE",
"561 350 CURVE SMOOTH"
);
}
);
width = 598.5;
},
{
hints = (
{
place = "{105, 22}";
type = Stem;
},
{
place = "{487, 22}";
type = Stem;
},
{
horizontal = 1;
place = "{158, 22}";
type = Stem;
},
{
horizontal = 1;
place = "{522, 21}";
type = Stem;
},
{
horizontal = 1;
place = "{700, -20}";
target = down;
type = TopGhost;
},
{
horizontal = 1;
place = "{0, 21}";
target = up;
type = BottomGhost;
}
);
layerId = "6E968933-CD79-43C6-9231-80D77C940F4D";
paths = (
{
closed = 1;
nodes = (
"117 180 LINE",
"117 522 LINE",
"274 522 LINE SMOOTH",
"424 522 OFFCURVE",
"477 458 OFFCURVE",
"477 350 CURVE SMOOTH",
"477 247 OFFCURVE",
"424 180 OFFCURVE",
"274 180 CURVE SMOOTH"
);
},
{
closed = 1;
nodes = (
"499 466 OFFCURVE",
"434 543 OFFCURVE",
"274 543 CURVE SMOOTH",
"117 543 LINE",
"117 700 LINE",
"95 700 LINE",
"95 0 LINE",
"117 0 LINE",
"117 158 LINE",
"274 158 LINE SMOOTH",
"421 158 OFFCURVE",
"499 221 OFFCURVE",
"499 350 CURVE SMOOTH"
);
}
);
width = 546.49766;
},
{
hints = (
{
place = "{53, 176}";
type = Stem;
},
{
place = "{414, 179}";
type = Stem;
},
{
horizontal = 1;
place = "{131, 133}";
type = Stem;
},
{
horizontal = 1;
place = "{437, 134}";
type = Stem;
},
{
horizontal = 1;
place = "{0, 21}";
target = up;
type = BottomGhost;
},
{
horizontal = 1;
place = "{700, -20}";
target = down;
type = TopGhost;
}
);
layerId = "BAF31694-0472-4296-B0EA-1654553C45D2";
paths = (
{
closed = 1;
nodes = (
"232 264 LINE",
"232 437 LINE",
"321 437 LINE SMOOTH",
"388 437 OFFCURVE",
"416 403 OFFCURVE",
"416 351 CURVE SMOOTH",
"416 299 OFFCURVE",
"388 264 OFFCURVE",
"321 264 CURVE SMOOTH"
);
},
{
closed = 1;
nodes = (
"595 477 OFFCURVE",
"508 572 OFFCURVE",
"336 572 CURVE SMOOTH",
"230 572 LINE",
"230 700 LINE",
"55 700 LINE",
"55 0 LINE",
"232 0 LINE",
"232 132 LINE",
"336 132 LINE SMOOTH",
"515 132 OFFCURVE",
"595 237 OFFCURVE",
"595 351 CURVE SMOOTH"
);
}
);
width = 622.50245;
},
{
hints = (
{
place = "{93, 80}";
type = Stem;
},
{
place = "{466, 81}";
type = Stem;
},
{
horizontal = 1;
place = "{149, 64}";
type = Stem;
},
{
horizontal = 1;
place = "{489, 64}";
type = Stem;
},
{
horizontal = 1;
place = "{700, -20}";
target = down;
type = TopGhost;
},
{
horizontal = 1;
place = "{0, 21}";
target = up;
type = BottomGhost;
}
);
layerId = "9F107B1E-3A61-4335-981B-27DD48125C7E";
paths = (
{
closed = 1;
nodes = (
"164 213 LINE",
"164 489 LINE",
"302 489 LINE SMOOTH",
"414 489 OFFCURVE",
"458 436 OFFCURVE",
"458 350 CURVE SMOOTH",
"458 267 OFFCURVE",
"414.004 213 OFFCURVE",
"302 213 CURVE SMOOTH"
);
},
{
closed = 1;
nodes = (
"540 465 OFFCURVE",
"465 552 OFFCURVE",
"302 552 CURVE SMOOTH",
"163 552 LINE",
"163 700 LINE",
"85 700 LINE",
"85 0 LINE",
"164 0 LINE",
"164 149 LINE",
"302 149 LINE SMOOTH",
"470 149 OFFCURVE",
"540 240 OFFCURVE",
"540 350 CURVE SMOOTH"
);
}
);
width = 582.49787;
}
);
leftMetricsKey = H;
rightMetricsKey = D;
unicode = 00DE;
},
{
glyphname = Q;
lastChange = "2021-09-02 15:54:38 +0000";
layers = (
{
components = (
{
name = O;
}
);
hints = (
{
place = "{383, 114}";
type = Stem;
},
{
horizontal = 1;
place = "{-100, 21}";
target = up;
type = BottomGhost;
},
{
horizontal = 1;
place = "{200, -20}";
target = down;
type = TopGhost;
}
);
layerId = "0CF0EA28-C756-4A9E-9D7C-CFEF350B4CFE";
paths = (
{
closed = 1;
nodes = (
"339 -100 LINE",
"453 -100 LINE",
"453 200 LINE",
"339 200 LINE"
);
}
);
width = 785;
},
{
components = (
{
name = O;
}
);
hints = (
{
place = "{386, 22}";
type = Stem;
},
{
horizontal = 1;
place = "{-100, 21}";
target = up;
type = BottomGhost;
},
{
horizontal = 1;
place = "{102, -20}";
target = down;
type = TopGhost;
}
);
layerId = "6E968933-CD79-43C6-9231-80D77C940F4D";
paths = (
{
closed = 1;
nodes = (
"376 -100 LINE",
"398 -100 LINE",
"398 102 LINE",
"376 102 LINE"
);
}
);
width = 768.00298;
},
{
components = (
{
name = O;
}
);
hints = (
{
place = "{348, 131}";
type = Stem;
},
{
horizontal = 1;
place = "{-85, 21}";
target = up;
type = BottomGhost;
},
{
horizontal = 1;
place = "{238, -20}";
target = down;
type = TopGhost;
}
);
layerId = "BAF31694-0472-4296-B0EA-1654553C45D2";
paths = (
{
closed = 1;
nodes = (
"318 -85 LINE",
"454 -85 LINE",
"454 238 LINE",
"318 238 LINE"
);
}
);
width = 774.99755;
},
{
components = (
{
name = O;
}
);
hints = (
{
place = "{384, 80}";
type = Stem;
},
{
horizontal = 1;
place = "{-100, 21}";
target = up;
type = BottomGhost;
},
{
horizontal = 1;
place = "{163, -20}";
target = down;
type = TopGhost;
}
);
layerId = "9F107B1E-3A61-4335-981B-27DD48125C7E";
paths = (
{
closed = 1;
nodes = (
"353 -100 LINE",
"433 -100 LINE",
"433 163 LINE",
"353 163 LINE"
);
}
);
width = 781.00112;
}
);
leftMetricsKey = O;
rightMetricsKey = O;
unicode = 0051;
},
{
glyphname = R;
lastChange = "2021-09-02 15:54:38 +0000";
layers = (
{
anchors = (
{
name = bottom;
position = "{346, 0}";
},
{
name = top;
position = "{316, 700}";
}
);
hints = (
{
place = "{85, 114}";
type = Stem;
},
{
place = "{484, 117}";
type = Stem;
},
{
horizontal = 1;
place = "{280, 91}";
type = Stem;
},
{
horizontal = 1;
place = "{607, 93}";
type = Stem;
},
{
horizontal = 1;
place = "{0, 21}";
target = up;
type = BottomGhost;
}
);
layerId = "0CF0EA28-C756-4A9E-9D7C-CFEF350B4CFE";
paths = (
{
closed = 1;
nodes = (
"475 420 OFFCURVE",
"434 375 OFFCURVE",
"345 375 CURVE SMOOTH",
"189 375 LINE",
"189 605 LINE",
"345 605 LINE SMOOTH",
"434 605 OFFCURVE",
"475 561 OFFCURVE",
"475 490 CURVE SMOOTH"
);
},
{
closed = 1;
nodes = (
"75 700 LINE",
"75 0 LINE",
"189 0 LINE",
"189 279.999 LINE",
"345 279.999 LINE SMOOTH",
"526 279.999 OFFCURVE",
"591 391 OFFCURVE",
"591 490 CURVE SMOOTH",
"591 604 OFFCURVE",
"510 700 OFFCURVE",
"345 700 CURVE SMOOTH"
);
},
{
closed = 1;
nodes = (
"292 317 LINE",
"477 0 LINE",
"606 0 LINE",
"414 317 LINE"
);
}
);
width = 643.5;
},
{
anchors = (
{
name = bottom;
position = "{336, 0}";
},
{
name = top;
position = "{287, 700}";
}
);
hints = (
{
place = "{113, 22}";
type = Stem;
},
{
place = "{514, 22}";
type = Stem;
},
{
horizontal = 1;
place = "{678, 22}";
type = Stem;
},
{
horizontal = 1;
place = "{0, 21}";
target = up;
type = BottomGhost;
}
);
layerId = "6E968933-CD79-43C6-9231-80D77C940F4D";
paths = (
{
closed = 1;
nodes = (
"508 401 OFFCURVE",
"447 325 OFFCURVE",
"304 325 CURVE SMOOTH",
"117 325 LINE",
"117 680 LINE",
"302 680 LINE SMOOTH",
"452 680 OFFCURVE",
"508 610 OFFCURVE",
"508 503 CURVE SMOOTH"
);
},
{
closed = 1;
nodes = (
"95 700 LINE",
"95 0 LINE",
"117 0 LINE",
"117 305 LINE",
"304 305 LINE SMOOTH",
"451 305 OFFCURVE",
"530 377 OFFCURVE",
"530 503 CURVE SMOOTH",
"530 619 OFFCURVE",
"471 700 OFFCURVE",
"302 700 CURVE SMOOTH"
);
},
{
closed = 1;
nodes = (
"318 313 LINE",
"515 0 LINE",
"540 0 LINE",
"343 313 LINE"
);
}
);
width = 587.50138;
},
{
anchors = (
{
name = bottom;
position = "{346, 1}";
},
{
name = top;
position = "{333, 700}";
}
);
hints = (
{
place = "{36, 48}";
type = Stem;
},
{
place = "{223, 177}";
type = Stem;
},
{
horizontal = 1;
place = "{369, 168}";
type = Stem;
},
{
horizontal = 1;
place = "{553, 147}";
type = Stem;
},
{
horizontal = 1;
place = "{0, 21}";
target = up;
type = BottomGhost;
}
);
layerId = "BAF31694-0472-4296-B0EA-1654553C45D2";
paths = (
{
closed = 1;
nodes = (
"459 419 OFFCURVE",
"428 389 OFFCURVE",
"366 389 CURVE SMOOTH",
"229 389 LINE",
"229 554 LINE",
"366 554 LINE SMOOTH",
"428 554 OFFCURVE",
"459 522 OFFCURVE",
"459 472 CURVE SMOOTH"
);
},
{
closed = 1;
nodes = (
"55 700 LINE",
"55 0 LINE",
"229 0 LINE",
"229 243 LINE",
"377 243 LINE SMOOTH",
"556 243 OFFCURVE",
"636 359 OFFCURVE",
"636 472 CURVE SMOOTH",
"636 594 OFFCURVE",
"550 700 OFFCURVE",
"377 700 CURVE SMOOTH"
);
},
{
closed = 1;
nodes = (
"283 303 LINE",
"457 0 LINE",
"649 0 LINE",
"465 303 LINE"
);
}
);
width = 676.50396;
},
{
anchors = (
{
name = bottom;
position = "{344, 0}";
},
{
name = top;
position = "{307, 700}";
}
);
hints = (
{
place = "{345, 81}";
type = Stem;
},
{
place = "{368, 65}";
type = Stem;
},
{
horizontal = 1;
place = "{634, 66}";
type = Stem;
},
{
horizontal = 1;
place = "{0, 21}";
target = up;
type = BottomGhost;
}
);
layerId = "9F107B1E-3A61-4335-981B-27DD48125C7E";
paths = (
{
closed = 1;
nodes = (
"489 411 OFFCURVE",
"441 356 OFFCURVE",
"332 356 CURVE SMOOTH",
"165 356 LINE",
"165 630 LINE",
"331 630 LINE SMOOTH",
"443 630 OFFCURVE",
"489 577 OFFCURVE",
"489 493 CURVE SMOOTH"
);
},
{
closed = 1;
nodes = (
"85 700 LINE",
"85 0 LINE",
"165 0 LINE",
"165 286 LINE",
"332 286 LINE SMOOTH",
"500 286 OFFCURVE",
"570 384 OFFCURVE",
"570 493 CURVE SMOOTH",
"570 608 OFFCURVE",
"494 700 OFFCURVE",
"331 700 CURVE SMOOTH"
);
},
{
closed = 1;
nodes = (
"303 316 LINE",
"492 0 LINE",
"583 0 LINE",
"389 316 LINE"
);
}
);
width = 625.49552;
}
);
leftMetricsKey = H;
rightMetricsKey = "=H/2";
unicode = 0052;
},
{
glyphname = Rcommaaccent;
lastChange = "2021-09-02 09:18:01 +0000";
layers = (
{
anchors = (
{
name = _bottom;
position = "{356, 0}";
}
);
components = (
{
name = R;
}
);
hints = (
{
place = "{302, 116}";
type = Stem;
},
{
place = "{306, 112}";
type = Stem;
},
{
place = "{354, 64}";
type = Stem;
},
{
horizontal = 1;
place = "{-143, 96}";
type = Stem;
},
{
horizontal = 1;
place = "{-272, 21}";
target = up;
type = BottomGhost;
}
);
layerId = "0CF0EA28-C756-4A9E-9D7C-CFEF350B4CFE";
paths = (
{
closed = 1;
nodes = (
"302 -47 LINE",
"302 -143 LINE",
"354 -143 LINE",
"354 -165 LINE SMOOTH",
"354 -203.003 OFFCURVE",
"339 -222 OFFCURVE",
"306 -222 CURVE",
"306 -272 LINE",
"380 -272 OFFCURVE",
"418 -230 OFFCURVE",
"418 -146 CURVE SMOOTH",
"418 -117 OFFCURVE",
"414 -84 OFFCURVE",
"405 -47 CURVE"
);
}
);
width = 643.5;
},
{
anchors = (
{
name = _bottom;
position = "{313, 0}";
}
);
components = (
{
name = R;
}
);
hints = (
{
place = "{308, 24}";
type = Stem;
},
{
horizontal = 1;
place = "{-58, -20}";
target = down;
type = TopGhost;
},
{
horizontal = 1;
place = "{-177, 21}";
target = up;
type = BottomGhost;
}
);
layerId = "6E968933-CD79-43C6-9231-80D77C940F4D";
paths = (
{
closed = 1;
nodes = (
"287 -58 LINE",
"287 -97 LINE",
"319 -97 LINE",
"319 -105 LINE SMOOTH",
"319 -138 OFFCURVE",
"308 -158 OFFCURVE",
"276 -158 CURVE",
"276 -177 LINE",
"312 -177 OFFCURVE",
"342 -162 OFFCURVE",
"342 -91 CURVE SMOOTH",
"342 -81 OFFCURVE",
"341 -68 OFFCURVE",
"339 -58 CURVE"
);
}
);
width = 587.49638;
},
{
anchors = (
{
name = _bottom;
position = "{358, 1}";
}
);
components = (
{
name = R;
}
);
hints = (
{
place = "{289, 154}";
type = Stem;
},
{
place = "{332, 111}";
type = Stem;
},
{
place = "{-46, 73}";
type = Stem;
},
{
horizontal = 1;
place = "{-164, 125}";
type = Stem;
},
{
horizontal = 1;
place = "{-115, 21}";
target = up;
type = BottomGhost;
}
);
layerId = "BAF31694-0472-4296-B0EA-1654553C45D2";
paths = (
{
closed = 1;
nodes = (
"289 -38 LINE",
"289 -164 LINE",
"353 -164 LINE",
"353 -178 LINE SMOOTH",
"353 -224 OFFCURVE",
"335 -245 OFFCURVE",
"301 -245 CURVE",
"301 -312 LINE",
"398 -312 OFFCURVE",
"443 -248 OFFCURVE",
"443 -158 CURVE SMOOTH",
"443 -121 OFFCURVE",
"437 -81 OFFCURVE",
"423 -38 CURVE"
);
}
);
width = 676.5016;
},
{
anchors = (
{
name = _bottom;
position = "{340, 0}";
}
);
components = (
{
name = R;
}
);
hints = (
{
place = "{26, 69}";
type = Stem;
},
{
horizontal = 1;
place = "{-22, -20}";
target = down;
type = TopGhost;
},
{
horizontal = 1;
place = "{-236, 21}";
target = up;
type = BottomGhost;
}
);
layerId = "9F107B1E-3A61-4335-981B-27DD48125C7E";
paths = (
{
closed = 1;
nodes = (
"296 -51 LINE",
"296 -126 LINE",
"341 -126 LINE",
"341 -143 LINE SMOOTH",
"341 -179 OFFCURVE",
"327 -198 OFFCURVE",
"295 -198 CURVE",
"295 -236 LINE",
"355 -236 OFFCURVE",
"390 -205 OFFCURVE",
"390 -125 CURVE SMOOTH",
"390 -104 OFFCURVE",
"387 -78 OFFCURVE",
"380 -51 CURVE"
);
}
);
width = 625.50364;
}
);
leftMetricsKey = R;
rightMetricsKey = R;
unicode = 0156;
},
{
glyphname = S;
lastChange = "2021-09-02 18:08:54 +0000";
layers = (
{
anchors = (
{
name = bottom;
position = "{297, -7}";
},
{
name = top;
position = "{292, 700}";
}
);
hints = (
{
place = "{59, 116}";
type = Stem;
},
{
place = "{428, 115}";
type = Stem;
},
{
horizontal = 1;
place = "{-7, 97}";
type = Stem;
},
{
horizontal = 1;
place = "{611, 98}";
type = Stem;
}
);
layerId = "0CF0EA28-C756-4A9E-9D7C-CFEF350B4CFE";
paths = (
{
closed = 1;
nodes = (
"45 150 LINE",
"67.313 51.491 OFFCURVE",
"174 -7 OFFCURVE",
"297.862 -7 CURVE SMOOTH",
"452 -7 OFFCURVE",
"537 83.578 OFFCURVE",
"537 199.573 CURVE SMOOTH",
"537 445.927 OFFCURVE",
"169 350.673 OFFCURVE",
"169 512.526 CURVE SMOOTH",
"169 572.903 OFFCURVE",
"220.212 611.484 OFFCURVE",
"290 610 CURVE SMOOTH",
"354.071 608.638 OFFCURVE",
"406.314 574.091 OFFCURVE",
"419 530 CURVE",
"524 567 LINE",
"492.324 656.996 OFFCURVE",
"406 707 OFFCURVE",
"290.346 707 CURVE SMOOTH",
"150 707 OFFCURVE",
"53 633.367 OFFCURVE",
"53 505.207 CURVE SMOOTH",
"53 252.584 OFFCURVE",
"421 359 OFFCURVE",
"421 191.874 CURVE SMOOTH",
"421 133 OFFCURVE",
"375.334 90 OFFCURVE",
"294.424 90 CURVE SMOOTH",
"216 90 OFFCURVE",
"161.783 130.402 OFFCURVE",
"150 187 CURVE"
);
}
);
width = 582;
},
{
anchors = (
{
name = bottom;
position = "{270, 0}";
},
{
name = top;
position = "{270, 700}";
}
);
hints = (
{
place = "{73, 22}";
type = Stem;
},
{
place = "{479, 22}";
type = Stem;
},
{
horizontal = 1;
place = "{-7, 21}";
target = up;
type = BottomGhost;
},
{
horizontal = 1;
place = "{692, -20}";
target = down;
type = TopGhost;
}
);
layerId = "6E968933-CD79-43C6-9231-80D77C940F4D";
paths = (
{
closed = 1;
nodes = (
"57 139 LINE",
"79.606 61.675 OFFCURVE",
"153 -7 OFFCURVE",
"279.131 -7 CURVE SMOOTH",
"421 -7 OFFCURVE",
"489 79.881 OFFCURVE",
"489 179.36 CURVE SMOOTH",
"489 422.634 OFFCURVE",
"89 294.721 OFFCURVE",
"89 525.108 CURVE SMOOTH",
"89 631.312 OFFCURVE",
"174 687 OFFCURVE",
"275.399 687 CURVE SMOOTH",
"386 687 OFFCURVE",
"441.764 620.742 OFFCURVE",
"458 572 CURVE",
"476 579 LINE",
"454.514 641.155 OFFCURVE",
"394 707 OFFCURVE",
"275.014 707 CURVE SMOOTH",
"147 707 OFFCURVE",
"67 630.786 OFFCURVE",
"67 521.794 CURVE SMOOTH",
"67 274.073 OFFCURVE",
"467 402.511 OFFCURVE",
"467 176.331 CURVE SMOOTH",
"467 79.706 OFFCURVE",
"394 13 OFFCURVE",
"275.821 13 CURVE SMOOTH",
"148 13 OFFCURVE",
"90.882 91.039 OFFCURVE",
"74 147 CURVE"
);
}
);
width = 546.00026;
},
{
anchors = (
{
name = bottom;
position = "{305, -2}";
},
{
name = top;
position = "{303, 700}";
}
);
hints = (
{
place = "{38, 179}";
type = Stem;
},
{
place = "{389, 181}";
type = Stem;
},
{
horizontal = 1;
place = "{-6, 138}";
type = Stem;
},
{
horizontal = 1;
place = "{571, 138}";
type = Stem;
}
);
layerId = "BAF31694-0472-4296-B0EA-1654553C45D2";
paths = (
{
closed = 1;
nodes = (
"33 171 LINE",
"62.62 52.63 OFFCURVE",
"177 -7 OFFCURVE",
"311.891 -7 CURVE SMOOTH",
"477.607 -7 OFFCURVE",
"571 83 OFFCURVE",
"571 202.025 CURVE SMOOTH",
"571 438.08 OFFCURVE",
"216 384.759 OFFCURVE",
"216 502.217 CURVE SMOOTH",
"216 542.208 OFFCURVE",
"257.151 568.735 OFFCURVE",
"305.008 568.218 CURVE SMOOTH",
"343.214 567.806 OFFCURVE",
"388.69 550.124 OFFCURVE",
"395 513 CURVE",
"555 541 LINE",
"529.486 647.141 OFFCURVE",
"434 707 OFFCURVE",
"297.434 707 CURVE SMOOTH",
"149 707 OFFCURVE",
"41.11 636.286 OFFCURVE",
"38.543 502.004 CURVE SMOOTH",
"33.753 251.477 OFFCURVE",
"394 326.578 OFFCURVE",
"394 203.227 CURVE SMOOTH",
"394 161 OFFCURVE",
"351.778 132 OFFCURVE",
"298.482 132 CURVE SMOOTH",
"257 132 OFFCURVE",
"201.067 149.568 OFFCURVE",
"191 203 CURVE"
);
}
);
width = 604.00491;
},
{
anchors = (
{
name = bottom;
position = "{288, -4}";
},
{
name = top;
position = "{285, 700}";
}
);
hints = (
{
place = "{23, 69}";
type = Stem;
},
{
place = "{562, 70}";
type = Stem;
},
{
horizontal = 1;
place = "{-3, 21}";
target = up;
type = BottomGhost;
},
{
horizontal = 1;
place = "{260, -20}";
target = down;
type = TopGhost;
}
);
layerId = "9F107B1E-3A61-4335-981B-27DD48125C7E";
paths = (
{
closed = 1;
nodes = (
"51 146 LINE",
"76.075 54.877 OFFCURVE",
"168 -7 OFFCURVE",
"292.222 -7 CURVE SMOOTH",
"442 -7 OFFCURVE",
"520 82.955 OFFCURVE",
"520 192.499 CURVE SMOOTH",
"520 437.283 OFFCURVE",
"140 329.395 OFFCURVE",
"140 518.955 CURVE SMOOTH",
"140 596 OFFCURVE",
"202.774 639.649 OFFCURVE",
"282.996 638.801 CURVE SMOOTH",
"364.929 637.936 OFFCURVE",
"422.316 591.102 OFFCURVE",
"437 545 CURVE",
"508 572 LINE",
"479.591 651.619 OFFCURVE",
"403 707 OFFCURVE",
"286.091 707 CURVE SMOOTH",
"150 707 OFFCURVE",
"60 631.954 OFFCURVE",
"60 511.578 CURVE SMOOTH",
"60 260.22 OFFCURVE",
"440 377.091 OFFCURVE",
"440 186.455 CURVE SMOOTH",
"440 114.631 OFFCURVE",
"386.056 61 OFFCURVE",
"290.573 61 CURVE SMOOTH",
"192 61 OFFCURVE",
"135.369 118.158 OFFCURVE",
"122 174 CURVE"
);
}
);
width = 571.00285;
}
);
leftMetricsKey = "=H*0.6";
rightMetricsKey = "=H*0.6";
unicode = 0053;
},
{
glyphname = Scommaaccent;
lastChange = "2021-09-02 18:51:09 +0000";
layers = (
{
anchors = (
{
name = _bottom;
position = "{295, 0}";
}
);
components = (
{
name = S;
}
);
hints = (
{
place = "{240, 117}";
type = Stem;
},
{
place = "{244, 113}";
type = Stem;
},
{
place = "{293, 64}";
type = Stem;
},
{
horizontal = 1;
place = "{-143, 96}";
type = Stem;
},
{
horizontal = 1;
place = "{-272, 21}";
target = up;
type = BottomGhost;
}
);
layerId = "0CF0EA28-C756-4A9E-9D7C-CFEF350B4CFE";
paths = (
{
closed = 1;
nodes = (
"240 -47 LINE",
"240 -143 LINE",
"293 -143 LINE",
"293 -165 LINE SMOOTH",
"293 -203 OFFCURVE",
"278 -222 OFFCURVE",
"244 -222 CURVE",
"244 -272 LINE",
"319 -272 OFFCURVE",
"357 -230 OFFCURVE",
"357 -146 CURVE SMOOTH",
"357 -117 OFFCURVE",
"353 -84 OFFCURVE",
"343 -47 CURVE"
);
}
);
width = 582;
},
{
anchors = (
{
name = _bottom;
position = "{291, -7}";
}
);
components = (
{
name = S;
}
);
hints = (
{
place = "{289, 24}";
type = Stem;
},
{
horizontal = 1;
place = "{-58, -20}";
target = down;
type = TopGhost;
},
{
horizontal = 1;
place = "{-177, 21}";
target = up;
type = BottomGhost;
}
);
layerId = "6E968933-CD79-43C6-9231-80D77C940F4D";
paths = (
{
closed = 1;
nodes = (
"266 -58 LINE",
"266 -97 LINE",
"298 -97 LINE",
"298 -105 LINE SMOOTH",
"298 -138 OFFCURVE",
"287 -158 OFFCURVE",
"255 -158 CURVE",
"255 -177 LINE",
"292 -177 OFFCURVE",
"321 -162 OFFCURVE",
"321 -91 CURVE SMOOTH",
"321 -81 OFFCURVE",
"320 -68 OFFCURVE",
"319 -58 CURVE"
);
}
);
width = 546.00426;
},
{
anchors = (
{
name = _bottom;
position = "{323, 1}";
}
);
components = (
{
name = S;
}
);
hints = (
{
place = "{253, 154}";
type = Stem;
},
{
place = "{296, 111}";
type = Stem;
},
{
place = "{-72, 73}";
type = Stem;
},
{
horizontal = 1;
place = "{-164, 125}";
type = Stem;
},
{
horizontal = 1;
place = "{-115, 21}";
target = up;
type = BottomGhost;
}
);
layerId = "BAF31694-0472-4296-B0EA-1654553C45D2";
paths = (
{
closed = 1;
nodes = (
"253 -38 LINE",
"253 -164 LINE",
"317 -164 LINE",
"317 -178 LINE SMOOTH",
"317 -224 OFFCURVE",
"299 -245 OFFCURVE",
"265 -245 CURVE",
"265 -312 LINE",
"362 -312 OFFCURVE",
"408 -248 OFFCURVE",
"408 -158 CURVE SMOOTH",
"408 -121 OFFCURVE",
"401 -81 OFFCURVE",
"387 -38 CURVE"
);
}
);
width = 604.00208;
},
{
anchors = (
{
name = _bottom;
position = "{294, -3}";
}
);
components = (
{
name = S;
}
);
hints = (
{
place = "{19, 69}";
type = Stem;
},
{
horizontal = 1;
place = "{-22, -20}";
target = down;
type = TopGhost;
},
{
horizontal = 1;
place = "{-236, 21}";
target = up;
type = BottomGhost;
}
);
layerId = "9F107B1E-3A61-4335-981B-27DD48125C7E";
paths = (
{
closed = 1;
nodes = (
"250 -51 LINE",
"250 -126 LINE",
"295 -126 LINE",
"295 -143 LINE SMOOTH",
"295 -179 OFFCURVE",
"281 -198 OFFCURVE",
"248 -198 CURVE",
"248 -236 LINE",
"309 -236 OFFCURVE",
"344 -205 OFFCURVE",
"344 -125 CURVE SMOOTH",
"344 -104 OFFCURVE",
"341 -78 OFFCURVE",
"334 -51 CURVE"
);
}
);
width = 570.99785;
}
);
leftMetricsKey = S;
rightMetricsKey = S;
unicode = 0218;
},
{
glyphname = Schwa;
lastChange = "2021-09-02 09:18:01 +0000";
layers = (
{
anchors = (
{
name = top;
position = "{375, 709}";
}
);
hints = (
{
place = "{51, 119}";
type = Stem;
},
{
place = "{592, 124}";
type = Stem;
},
{
horizontal = 1;
place = "{-7, 103}";
type = Stem;
},
{
horizontal = 1;
place = "{286, 107}";
type = Stem;
},
{
horizontal = 1;
place = "{604, 104}";
type = Stem;
}
);
layerId = "0CF0EA28-C756-4A9E-9D7C-CFEF350B4CFE";
paths = (
{
closed = 1;
nodes = (
"586 307 LINE SMOOTH",
"586 176 OFFCURVE",
"495 96 OFFCURVE",
"376 96 CURVE SMOOTH",
"253 96 OFFCURVE",
"168 172 OFFCURVE",
"164 286 CURVE",
"607 286 LINE",
"607 393 LINE",
"49 393 LINE",
"46 369 OFFCURVE",
"45 346 OFFCURVE",
"45 325 CURVE SMOOTH",
"45 113 OFFCURVE",
"181 -7 OFFCURVE",
"376 -7 CURVE SMOOTH",
"577 -7 OFFCURVE",
"710 140 OFFCURVE",
"710 351 CURVE SMOOTH",
"710 562 OFFCURVE",
"573 708 OFFCURVE",
"375 708 CURVE SMOOTH",
"217 708 OFFCURVE",
"101 623 OFFCURVE",
"53 488 CURVE",
"185 488 LINE",
"216 561 OFFCURVE",
"283 604 OFFCURVE",
"375 604 CURVE SMOOTH",
"500 604 OFFCURVE",
"586 511 OFFCURVE",
"586 372 CURVE SMOOTH"
);
}
);
width = 755;
},
{
anchors = (
{
name = top;
position = "{376, 706}";
}
);
hints = (
{
place = "{68, 24}";
type = Stem;
},
{
place = "{686, 24}";
type = Stem;
},
{
horizontal = 1;
place = "{-8, 21}";
target = up;
type = BottomGhost;
},
{
horizontal = 1;
place = "{691, -20}";
target = down;
type = TopGhost;
}
);
layerId = "6E968933-CD79-43C6-9231-80D77C940F4D";
paths = (
{
closed = 1;
nodes = (
"680 345 LINE SMOOTH",
"680 130 OFFCURVE",
"544 12 OFFCURVE",
"370 12 CURVE SMOOTH",
"185 12 OFFCURVE",
"69 142 OFFCURVE",
"81 338 CURVE",
"687 338 LINE",
"687 357 LINE",
"59 357 LINE",
"58 342 OFFCURVE",
"57 327 OFFCURVE",
"57 312 CURVE SMOOTH",
"57 110 OFFCURVE",
"187 -8 OFFCURVE",
"370 -8 CURVE SMOOTH",
"569 -8 OFFCURVE",
"704 134 OFFCURVE",
"704 349 CURVE SMOOTH",
"704 559 OFFCURVE",
"570 706 OFFCURVE",
"376 706 CURVE SMOOTH",
"217 706 OFFCURVE",
"90 610 OFFCURVE",
"57 463 CURVE",
"80 463 LINE",
"113 604 OFFCURVE",
"236 686 OFFCURVE",
"376 686 CURVE SMOOTH",
"547 686 OFFCURVE",
"680 560 OFFCURVE",
"680 351 CURVE SMOOTH"
);
}
);
width = 761.00234;
},
{
anchors = (
{
name = top;
position = "{377, 714}";
}
);
hints = (
{
place = "{22, 51}";
type = Stem;
},
{
place = "{542, 183}";
type = Stem;
},
{
horizontal = 1;
place = "{-8, 162}";
type = Stem;
},
{
horizontal = 1;
place = "{284, 116}";
type = Stem;
},
{
horizontal = 1;
place = "{556, 158}";
type = Stem;
}
);
layerId = "BAF31694-0472-4296-B0EA-1654553C45D2";
paths = (
{
closed = 1;
nodes = (
"543 309 LINE SMOOTH",
"543 210 OFFCURVE",
"465 153 OFFCURVE",
"375 153 CURVE SMOOTH",
"285 153 OFFCURVE",
"218 206 OFFCURVE",
"214 284 CURVE",
"566 284 LINE",
"566 400 LINE",
"37 400 LINE",
"35 380 OFFCURVE",
"33 358 OFFCURVE",
"33 339 CURVE SMOOTH",
"33 122 OFFCURVE",
"171 -8 OFFCURVE",
"378 -8 CURVE SMOOTH",
"587 -8 OFFCURVE",
"726 136 OFFCURVE",
"726 353 CURVE SMOOTH",
"726 572 OFFCURVE",
"585 714 OFFCURVE",
"377 714 CURVE SMOOTH",
"206 714 OFFCURVE",
"82 612 OFFCURVE",
"44 468 CURVE",
"234 468 LINE",
"255 523 OFFCURVE",
"311 556 OFFCURVE",
"380 556 CURVE SMOOTH",
"470 556 OFFCURVE",
"543 494 OFFCURVE",
"543 385 CURVE SMOOTH"
);
}
);
width = 759.00151;
},
{
anchors = (
{
name = top;
position = "{376, 708}";
}
);
hints = (
{
place = "{204, 76}";
type = Stem;
},
{
place = "{635, 74}";
type = Stem;
},
{
horizontal = 1;
place = "{-3, 21}";
target = up;
type = BottomGhost;
},
{
horizontal = 1;
place = "{259, -20}";
target = down;
type = TopGhost;
}
);
layerId = "9F107B1E-3A61-4335-981B-27DD48125C7E";
paths = (
{
closed = 1;
nodes = (
"622 321 LINE SMOOTH",
"622 159 OFFCURVE",
"514 65 OFFCURVE",
"375 65 CURVE SMOOTH",
"229 65 OFFCURVE",
"132 161 OFFCURVE",
"134 306 CURVE",
"638 306 LINE",
"638 380 LINE",
"54 380 LINE",
"52 359 OFFCURVE",
"51 339 OFFCURVE",
"51 320 CURVE SMOOTH",
"51 112 OFFCURVE",
"184 -7 OFFCURVE",
"375 -7 CURVE SMOOTH",
"575 -7 OFFCURVE",
"709 138 OFFCURVE",
"709 350 CURVE SMOOTH",
"709 561 OFFCURVE",
"573 707 OFFCURVE",
"376 707 CURVE SMOOTH",
"218 707 OFFCURVE",
"98 618 OFFCURVE",
"56 479 CURVE",
"147 479 LINE",
"178 577 OFFCURVE",
"266 635 OFFCURVE",
"376 635 CURVE SMOOTH",
"519 635 OFFCURVE",
"622 529 OFFCURVE",
"622 364 CURVE SMOOTH"
);
}
);
width = 760.00213;
}
);
leftMetricsKey = S;
rightMetricsKey = S;
unicode = 018F;
},
{
glyphname = T;
lastChange = "2021-09-02 15:54:38 +0000";
layers = (
{
anchors = (
{
name = bottom;
position = "{308.5, 0}";
},
{
name = top;
position = "{310.5, 700}";
}
);
hints = (
{
place = "{258, 114}";
type = Stem;
},
{
horizontal = 1;
place = "{607, 93}";
type = Stem;
},
{
horizontal = 1;
place = "{0, 21}";
target = up;
type = BottomGhost;
}
);
layerId = "0CF0EA28-C756-4A9E-9D7C-CFEF350B4CFE";
paths = (
{
closed = 1;
nodes = (
"37.5 605 LINE",
"253.5 605 LINE",
"253.5 0 LINE",
"367.5 0 LINE",
"367.5 605 LINE",
"582.5 605 LINE",
"582.5 700 LINE",
"37.5 700 LINE"
);
}
);
width = 620;
},
{
anchors = (
{
name = bottom;
position = "{291.5, 0}";
},
{
name = top;
position = "{294.5, 700}";
}
);
hints = (
{
place = "{294, 22}";
type = Stem;
},
{
horizontal = 1;
place = "{685, -20}";
target = down;
type = TopGhost;
},
{
horizontal = 1;
place = "{0, 21}";
target = up;
type = BottomGhost;
}
);
layerId = "6E968933-CD79-43C6-9231-80D77C940F4D";
paths = (
{
closed = 1;
nodes = (
"47.5 680 LINE",
"282.5 680 LINE",
"282.5 0 LINE",
"304.5 0 LINE",
"304.5 680 LINE",
"538.5 680 LINE",
"538.5 700 LINE",
"47.5 700 LINE"
);
}
);
width = 585.99968;
},
{
anchors = (
{
name = bottom;
position = "{328.5, 1}";
},
{
name = top;
position = "{328.5, 700}";
}
);
hints = (
{
place = "{242, 176}";
type = Stem;
},
{
horizontal = 1;
place = "{559, 141}";
type = Stem;
},
{
horizontal = 1;
place = "{0, 21}";
target = up;
type = BottomGhost;
}
);
layerId = "BAF31694-0472-4296-B0EA-1654553C45D2";
paths = (
{
closed = 1;
nodes = (
"27.5 554 LINE",
"244.5 554 LINE",
"244.5 0 LINE",
"418.5 0 LINE",
"418.5 554 LINE",
"636.5 554 LINE",
"636.5 700 LINE",
"27.5 700 LINE"
);
}
);
width = 664.00378;
},
{
anchors = (
{
name = bottom;
position = "{303.5, 0}";
},
{
name = top;
position = "{306.5, 700}";
}
);
hints = (
{
place = "{490, 66}";
type = Stem;
},
{
horizontal = 1;
place = "{257, -20}";
target = down;
type = TopGhost;
},
{
horizontal = 1;
place = "{0, 21}";
target = up;
type = BottomGhost;
}
);
layerId = "9F107B1E-3A61-4335-981B-27DD48125C7E";
paths = (
{
closed = 1;
nodes = (
"42.5 630 LINE",
"265.5 630 LINE",
"265.5 0 LINE",
"345.5 0 LINE",
"345.5 630 LINE",
"567.5 630 LINE",
"567.5 700 LINE",
"42.5 700 LINE"
);
}
);
width = 609.99863;
}
);
leftMetricsKey = "=H/2";
rightMetricsKey = "=H/2";
unicode = 0054;
},
{
glyphname = Tcommaaccent;
lastChange = "2021-09-02 09:18:01 +0000";
layers = (
{
components = (
{
name = T;
}
);
hints = (
{
place = "{264, 116}";
type = Stem;
},
{
place = "{268, 112}";
type = Stem;
},
{
place = "{317, 63}";
type = Stem;
},
{
horizontal = 1;
place = "{-143, 96}";
type = Stem;
},
{
horizontal = 1;
place = "{-272, 21}";
target = up;
type = BottomGhost;
}
);
layerId = "0CF0EA28-C756-4A9E-9D7C-CFEF350B4CFE";
paths = (
{
closed = 1;
nodes = (
"264 -47 LINE",
"264 -143 LINE",
"317 -143 LINE",
"317 -165 LINE SMOOTH",
"317 -203.003 OFFCURVE",
"301 -222 OFFCURVE",
"268 -222 CURVE",
"268 -272 LINE",
"342 -272 OFFCURVE",
"380 -230 OFFCURVE",
"380 -146 CURVE SMOOTH",
"380 -117 OFFCURVE",
"376 -84 OFFCURVE",
"367 -47 CURVE"
);
}
);
width = 620;
},
{
components = (
{
name = T;
}
);
hints = (
{
place = "{298, 24}";
type = Stem;
},
{
horizontal = 1;
place = "{-58, -20}";
target = down;
type = TopGhost;
},
{
horizontal = 1;
place = "{-177, 21}";
target = up;
type = BottomGhost;
}
);
layerId = "6E968933-CD79-43C6-9231-80D77C940F4D";
paths = (
{
closed = 1;
nodes = (
"276 -58 LINE",
"276 -97 LINE",
"308 -97 LINE",
"308 -105 LINE SMOOTH",
"308 -138 OFFCURVE",
"297 -158 OFFCURVE",
"265 -158 CURVE",
"265 -177 LINE",
"301 -177 OFFCURVE",
"331 -162 OFFCURVE",
"331 -91 CURVE SMOOTH",
"331 -81 OFFCURVE",
"330 -68 OFFCURVE",
"328 -58 CURVE"
);
}
);
width = 586.00468;
},
{
components = (
{
name = T;
}
);
hints = (
{
place = "{112, 49}";
type = Stem;
},
{
place = "{263, 152}";
type = Stem;
},
{
place = "{325, 89}";
type = Stem;
},
{
horizontal = 1;
place = "{-164, 125}";
type = Stem;
},
{
horizontal = 1;
place = "{-312, 21}";
target = up;
type = BottomGhost;
}
);
layerId = "BAF31694-0472-4296-B0EA-1654553C45D2";
paths = (
{
closed = 1;
nodes = (
"261 -38 LINE",
"261 -164 LINE",
"325 -164 LINE",
"325 -178 LINE SMOOTH",
"325 -224 OFFCURVE",
"306 -245 OFFCURVE",
"273 -245 CURVE",
"273 -312 LINE",
"369 -312 OFFCURVE",
"415 -248 OFFCURVE",
"415 -158 CURVE SMOOTH",
"415 -121 OFFCURVE",
"409 -81 OFFCURVE",
"394 -38 CURVE"
);
}
);
width = 663.99642;
},
{
components = (
{
name = T;
}
);
hints = (
{
place = "{22, 69}";
type = Stem;
},
{
horizontal = 1;
place = "{-22, -20}";
target = down;
type = TopGhost;
},
{
horizontal = 1;
place = "{-236, 21}";
target = up;
type = BottomGhost;
}
);
layerId = "9F107B1E-3A61-4335-981B-27DD48125C7E";
paths = (
{
closed = 1;
nodes = (
"269 -51 LINE",
"269 -126 LINE",
"314 -126 LINE",
"314 -143 LINE SMOOTH",
"314 -179 OFFCURVE",
"300 -198 OFFCURVE",
"267 -198 CURVE",
"267 -236 LINE",
"327 -236 OFFCURVE",
"362 -205 OFFCURVE",
"362 -125 CURVE SMOOTH",
"362 -104 OFFCURVE",
"359 -78 OFFCURVE",
"352 -51 CURVE"
);
}
);
width = 610.00051;
}
);
leftMetricsKey = T;
rightMetricsKey = T;
unicode = 021A;
},
{
glyphname = U;
lastChange = "2021-09-02 15:54:38 +0000";
layers = (
{
anchors = (
{
name = ogonek;
position = "{425.25, 0}";
},
{
name = top;
position = "{352.25, 700}";
}
);
hints = (
{
place = "{80, 114}";
type = Stem;
},
{
place = "{529, 114}";
type = Stem;
},
{
horizontal = 1;
place = "{-7, 100}";
type = Stem;
},
{
horizontal = 1;
place = "{700, -20}";
target = down;
type = TopGhost;
}
);
layerId = "0CF0EA28-C756-4A9E-9D7C-CFEF350B4CFE";
paths = (
{
closed = 1;
nodes = (
"71.25 255 LINE SMOOTH",
"71.25 77 OFFCURVE",
"205.25 -7 OFFCURVE",
"351.25 -7 CURVE SMOOTH",
"496.25 -7 OFFCURVE",
"634.25 77 OFFCURVE",
"634.25 255 CURVE SMOOTH",
"634.25 700 LINE",
"520.25 700 LINE",
"520.25 253 LINE SMOOTH",
"520.25 144 OFFCURVE",
"449.25 90 OFFCURVE",
"352.25 90 CURVE SMOOTH",
"256.25 90 OFFCURVE",
"185.25 144 OFFCURVE",
"185.25 253 CURVE SMOOTH",
"185.25 700 LINE",
"71.25 700 LINE"
);
}
);
width = 705.5;
},
{
anchors = (
{
name = ogonek;
position = "{399.25, 0}";
},
{
name = top;
position = "{335.25, 700}";
}
);
hints = (
{
place = "{108, 22}";
type = Stem;
},
{
place = "{556, 22}";
type = Stem;
},
{
horizontal = 1;
place = "{-7, 21}";
target = up;
type = BottomGhost;
},
{
horizontal = 1;
place = "{700, -20}";
target = down;
type = TopGhost;
}
);
layerId = "6E968933-CD79-43C6-9231-80D77C940F4D";
paths = (
{
closed = 1;
nodes = (
"90.25 265 LINE SMOOTH",
"90.25 73 OFFCURVE",
"200.25 -7 OFFCURVE",
"338.25 -7 CURVE SMOOTH",
"476.25 -7 OFFCURVE",
"581.25 73 OFFCURVE",
"581.25 265 CURVE SMOOTH",
"581.25 700 LINE",
"559.25 700 LINE",
"559.25 265 LINE SMOOTH",
"559.25 80 OFFCURVE",
"460.25 13 OFFCURVE",
"338.25 13 CURVE SMOOTH",
"215.25 13 OFFCURVE",
"112.25 80 OFFCURVE",
"112.25 265 CURVE SMOOTH",
"112.25 700 LINE",
"90.25 700 LINE"
);
}
);
width = 671.50046;
},
{
anchors = (
{
name = ogonek;
position = "{437.25, 2}";
},
{
name = top;
position = "{354.25, 700}";
}
);
hints = (
{
place = "{50, 176}";
type = Stem;
},
{
place = "{486, 176}";
type = Stem;
},
{
horizontal = 1;
place = "{-7, 163}";
type = Stem;
},
{
horizontal = 1;
place = "{700, -20}";
target = down;
type = TopGhost;
}
);
layerId = "BAF31694-0472-4296-B0EA-1654553C45D2";
paths = (
{
closed = 1;
nodes = (
"52.25 284 LINE SMOOTH",
"52.25 90 OFFCURVE",
"188.25 -7 OFFCURVE",
"352.25 -7 CURVE SMOOTH",
"515.25 -7 OFFCURVE",
"662.25 90 OFFCURVE",
"662.25 284 CURVE SMOOTH",
"662.25 700 LINE",
"488.25 700 LINE",
"488.25 268 LINE SMOOTH",
"488.25 187 OFFCURVE",
"435.25 142 OFFCURVE",
"355.25 142 CURVE SMOOTH",
"276.25 142 OFFCURVE",
"226.25 187 OFFCURVE",
"226.25 268 CURVE SMOOTH",
"226.25 700 LINE",
"52.25 700 LINE"
);
}
);
width = 714.49981;
},
{
anchors = (
{
name = ogonek;
position = "{417.75, 0}";
},
{
name = top;
position = "{347.75, 700}";
}
);
hints = (
{
place = "{371, 80}";
type = Stem;
},
{
place = "{204, 71}";
type = Stem;
},
{
horizontal = 1;
place = "{-3, 21}";
target = up;
type = BottomGhost;
},
{
horizontal = 1;
place = "{700, -20}";
target = down;
type = TopGhost;
}
);
layerId = "9F107B1E-3A61-4335-981B-27DD48125C7E";
paths = (
{
closed = 1;
nodes = (
"80.75 259 LINE SMOOTH",
"80.75 76 OFFCURVE",
"205.75 -7 OFFCURVE",
"348.75 -7 CURVE SMOOTH",
"490.75 -7 OFFCURVE",
"616.75 76 OFFCURVE",
"616.75 259 CURVE SMOOTH",
"616.75 700 LINE",
"536.75 700 LINE",
"536.75 258 LINE SMOOTH",
"536.75 120 OFFCURVE",
"455.75 63 OFFCURVE",
"349.75 63 CURVE SMOOTH",
"242.75 63 OFFCURVE",
"160.75 120 OFFCURVE",
"160.75 258 CURVE SMOOTH",
"160.75 700 LINE",
"80.75 700 LINE"
);
}
);
width = 697.49755;
}
);
leftMetricsKey = "=H*0.95";
rightMetricsKey = "=H*0.95";
unicode = 0055;
},
{
glyphname = V;
lastChange = "2021-09-02 15:54:38 +0000";
layers = (
{
hints = (
{
horizontal = 1;
place = "{0, 21}";
target = up;
type = BottomGhost;
},
{
horizontal = 1;
place = "{700, -20}";
target = down;
type = TopGhost;
}
);
layerId = "0CF0EA28-C756-4A9E-9D7C-CFEF350B4CFE";
paths = (
{
closed = 1;
nodes = (
"352.497 117 LINE",
"145.997 700 LINE",
"24.997 700 LINE",
"286.497 0 LINE",
"418.497 0 LINE",
"679.997 700 LINE",
"558.997 700 LINE"
);
}
);
width = 705;
},
{
hints = (
{
horizontal = 1;
place = "{700, -20}";
target = down;
type = TopGhost;
},
{
horizontal = 1;
place = "{0, 21}";
target = up;
type = BottomGhost;
}
);
layerId = "6E968933-CD79-43C6-9231-80D77C940F4D";
paths = (
{
closed = 1;
nodes = (
"311.663 32 LINE",
"56.663 700 LINE",
"31.663 700 LINE",
"300.663 0 LINE",
"322.663 0 LINE",
"592.663 700 LINE",
"568.663 700 LINE"
);
}
);
width = 624.33163;
},
{
hints = (
{
horizontal = 1;
place = "{0, 21}";
target = up;
type = BottomGhost;
},
{
horizontal = 1;
place = "{700, -20}";
target = down;
type = TopGhost;
}
);
layerId = "BAF31694-0472-4296-B0EA-1654553C45D2";
paths = (
{
closed = 1;
nodes = (
"376.83 176 LINE",
"205.33 700 LINE",
"18.33 700 LINE",
"266.33 0 LINE",
"487.33 0 LINE",
"735.33 700 LINE",
"548.33 700 LINE"
);
}
);
width = 753.66812;
},
{
hints = (
{
horizontal = 1;
place = "{700, -20}";
target = down;
type = TopGhost;
},
{
horizontal = 1;
place = "{0, 21}";
target = up;
type = BottomGhost;
}
);
layerId = "9F107B1E-3A61-4335-981B-27DD48125C7E";
paths = (
{
closed = 1;
nodes = (
"338.333 85 LINE",
"113.333 700 LINE",
"28.333 700 LINE",
"290.333 0 LINE",
"382.333 0 LINE",
"648.333 700 LINE",
"563.333 700 LINE"
);
}
);
width = 676.66436;
}
);
leftMetricsKey = "=H/3";
rightMetricsKey = "=H/3";
unicode = 0056;
},
{
glyphname = W;
lastChange = "2021-09-02 15:54:38 +0000";
layers = (
{
anchors = (
{
name = bottom;
position = "{506, 0}";
},
{
name = top;
position = "{506, 700}";
}
);
hints = (
{
horizontal = 1;
place = "{700, -20}";
target = down;
type = TopGhost;
}
);
layerId = "0CF0EA28-C756-4A9E-9D7C-CFEF350B4CFE";
paths = (
{
closed = 1;
nodes = (
"505.5 529 LINE",
"656 0 LINE",
"784.5 0 LINE",
"986 700 LINE",
"864.5 700 LINE",
"720 132 LINE",
"569.5 700 LINE",
"441.5 700 LINE",
"291 130 LINE",
"146.5 700 LINE",
"25 700 LINE",
"226.5 0 LINE",
"355 0 LINE"
);
}
);
width = 1011;
},
{
anchors = (
{
name = bottom;
position = "{450, 0}";
},
{
name = top;
position = "{450, 700}";
}
);
hints = (
{
horizontal = 1;
place = "{700, -20}";
target = down;
type = TopGhost;
},
{
horizontal = 1;
place = "{0, 21}";
target = up;
type = BottomGhost;
}
);
layerId = "6E968933-CD79-43C6-9231-80D77C940F4D";
paths = (
{
closed = 1;
nodes = (
"450.26 664 LINE",
"658.16 0 LINE",
"679.16 0 LINE",
"868.66 700 LINE",
"844.16 700 LINE",
"668.16 41 LINE",
"462.16 700 LINE",
"438.16 700 LINE",
"232.16 41 LINE",
"56.16 700 LINE",
"31.66 700 LINE",
"221.16 0 LINE",
"242.16 0 LINE"
);
}
);
width = 900.33298;
},
{
anchors = (
{
name = bottom;
position = "{522, 0}";
},
{
name = top;
position = "{522, 700}";
}
);
hints = (
{
horizontal = 1;
place = "{700, -20}";
target = down;
type = TopGhost;
}
);
layerId = "BAF31694-0472-4296-B0EA-1654553C45D2";
paths = (
{
closed = 1;
nodes = (
"521.83 453 LINE",
"632.83 0 LINE",
"846.33 0 LINE",
"1025.33 700 LINE",
"835.83 700 LINE",
"737.33 206 LINE",
"620.33 700 LINE",
"426.33 700 LINE",
"306.33 205 LINE",
"207.83 700 LINE",
"18.33 700 LINE",
"197.33 0 LINE",
"410.83 0 LINE"
);
}
);
width = 1043.6667;
},
{
anchors = (
{
name = bottom;
position = "{485, 0}";
},
{
name = top;
position = "{485, 700}";
}
);
hints = (
{
horizontal = 1;
place = "{700, -20}";
target = down;
type = TopGhost;
},
{
horizontal = 1;
place = "{0, 21}";
target = up;
type = BottomGhost;
}
);
layerId = "9F107B1E-3A61-4335-981B-27DD48125C7E";
paths = (
{
closed = 1;
nodes = (
"485.33 580 LINE",
"657.33 0 LINE",
"745.33 0 LINE",
"942.33 700 LINE",
"857.83 700 LINE",
"701.33 98 LINE",
"529.83 700 LINE",
"440.83 700 LINE",
"269.33 97 LINE",
"112.83 700 LINE",
"28.33 700 LINE",
"225.33 0 LINE",
"313.33 0 LINE"
);
}
);
width = 970.66362;
}
);
leftMetricsKey = V;
rightMetricsKey = V;
unicode = 0057;
},
{
glyphname = X;
lastChange = "2021-09-02 16:09:38 +0000";
layers = (
{
hints = (
{
horizontal = 1;
place = "{700, -20}";
target = down;
type = TopGhost;
},
{
horizontal = 1;
place = "{0, 21}";
target = up;
type = BottomGhost;
}
);
layerId = "0CF0EA28-C756-4A9E-9D7C-CFEF350B4CFE";
paths = (
{
closed = 1;
nodes = (
"275.567 349.816 LINE",
"50.948 0 LINE",
"176.948 0 LINE",
"334.919 257.695 LINE",
"500.948 0 LINE",
"628.948 0 LINE",
"403.917 348.499 LINE",
"629.948 700 LINE",
"502.948 700 LINE",
"344.183 441.008 LINE",
"176.948 700 LINE",
"49.948 700 LINE"
);
}
);
width = 679.896;
},
{
hints = (
{
horizontal = 1;
place = "{700, -20}";
target = down;
type = TopGhost;
},
{
horizontal = 1;
place = "{0, 21}";
target = up;
type = BottomGhost;
}
);
layerId = "6E968933-CD79-43C6-9231-80D77C940F4D";
paths = (
{
closed = 1;
nodes = (
"278.707 354.9 LINE",
"63.266 0 LINE",
"88.266 0 LINE",
"290.753 335.604 LINE",
"500.266 0 LINE",
"525.266 0 LINE",
"306.58 350.299 LINE",
"525.266 700 LINE",
"500.266 700 LINE",
"294.628 369.442 LINE",
"88.266 700 LINE",
"63.266 700 LINE"
);
}
);
width = 588.5345;
},
{
hints = (
{
horizontal = 1;
place = "{700, -20}";
target = down;
type = TopGhost;
},
{
horizontal = 1;
place = "{0, 21}";
target = up;
type = BottomGhost;
}
);
layerId = "BAF31694-0472-4296-B0EA-1654553C45D2";
paths = (
{
closed = 1;
nodes = (
"278.136 356.394 LINE",
"42.63 0 LINE",
"242.63 0 LINE",
"377.354 215.23 LINE",
"528.63 0 LINE",
"734.63 0 LINE",
"491.062 346.54 LINE",
"724.63 700 LINE",
"524.63 700 LINE",
"391.79 487.78 LINE",
"242.63 700 LINE",
"36.63 700 LINE"
);
}
);
width = 771.25616;
},
{
hints = (
{
horizontal = 1;
place = "{700, -20}";
target = down;
type = TopGhost;
},
{
horizontal = 1;
place = "{0, 21}";
target = up;
type = BottomGhost;
}
);
layerId = "9F107B1E-3A61-4335-981B-27DD48125C7E";
paths = (
{
closed = 1;
nodes = (
"278.162 351.492 LINE",
"56.61 0 LINE",
"144.61 0 LINE",
"319.255 286.851 LINE",
"501.61 0 LINE",
"591.61 0 LINE",
"368.54 349.327 LINE",
"591.61 700 LINE",
"503.61 700 LINE",
"326.675 414.887 LINE",
"144.61 700 LINE",
"56.61 700 LINE"
);
}
);
width = 648.21835;
}
);
leftMetricsKey = "=H*0.666";
rightMetricsKey = "=H*0.666";
unicode = 0058;
},
{
glyphname = Y;
lastChange = "2021-09-02 15:59:39 +0000";
layers = (
{
anchors = (
{
name = top;
position = "{312, 700}";
}
);
hints = (
{
place = "{259, 114}";
type = Stem;
},
{
horizontal = 1;
place = "{700, -20}";
target = down;
type = TopGhost;
},
{
horizontal = 1;
place = "{0, 21}";
target = up;
type = BottomGhost;
}
);
layerId = "0CF0EA28-C756-4A9E-9D7C-CFEF350B4CFE";
paths = (
{
closed = 1;
nodes = (
"312 356 LINE",
"151 700 LINE",
"25 700 LINE",
"255 253 LINE",
"255 0 LINE",
"369 0 LINE",
"369 254 LINE",
"600 700 LINE",
"473 700 LINE"
);
}
);
width = 625;
},
{
anchors = (
{
name = top;
position = "{262.66, 700}";
}
);
hints = (
{
place = "{255, 22}";
type = Stem;
},
{
horizontal = 1;
place = "{700, -20}";
target = down;
type = TopGhost;
},
{
horizontal = 1;
place = "{0, 21}";
target = up;
type = BottomGhost;
}
);
layerId = "6E968933-CD79-43C6-9231-80D77C940F4D";
paths = (
{
closed = 1;
nodes = (
"262.66 316 LINE",
"55.66 700 LINE",
"31.66 700 LINE",
"251.66 294 LINE",
"251.66 0 LINE",
"273.66 0 LINE",
"273.66 294 LINE",
"491.66 700 LINE",
"469.66 700 LINE"
);
}
);
width = 523.33489;
},
{
anchors = (
{
name = top;
position = "{350.83, 700}";
}
);
hints = (
{
place = "{263, 176}";
type = Stem;
},
{
horizontal = 1;
place = "{700, -20}";
target = down;
type = TopGhost;
},
{
horizontal = 1;
place = "{0, 21}";
target = up;
type = BottomGhost;
}
);
layerId = "BAF31694-0472-4296-B0EA-1654553C45D2";
paths = (
{
closed = 1;
nodes = (
"350.83 411 LINE",
"217.33 700 LINE",
"18.33 700 LINE",
"263.83 230 LINE",
"263.83 0 LINE",
"437.83 0 LINE",
"437.83 230 LINE",
"683.33 700 LINE",
"484.33 700 LINE"
);
}
);
width = 701.67151;
},
{
anchors = (
{
name = top;
position = "{294.33, 700}";
}
);
hints = (
{
place = "{258, 80}";
type = Stem;
},
{
horizontal = 1;
place = "{700, -20}";
target = down;
type = TopGhost;
},
{
horizontal = 1;
place = "{0, 21}";
target = up;
type = BottomGhost;
}
);
layerId = "9F107B1E-3A61-4335-981B-27DD48125C7E";
paths = (
{
closed = 1;
nodes = (
"294.33 345 LINE",
"117.33 700 LINE",
"28.33 700 LINE",
"254.33 268 LINE",
"254.33 0 LINE",
"334.33 0 LINE",
"334.33 269 LINE",
"560.33 700 LINE",
"471.33 700 LINE"
);
}
);
width = 588.65933;
}
);
leftMetricsKey = V;
rightMetricsKey = V;
unicode = 0059;
},
{
glyphname = Z;
lastChange = "2021-09-02 15:59:44 +0000";
layers = (
{
anchors = (
{
name = top;
position = "{278.948, 700}";
}
);
hints = (
{
horizontal = 1;
place = "{0, 99}";
type = Stem;
},
{
horizontal = 1;
place = "{601, 100}";
type = Stem;
}
);
layerId = "0CF0EA28-C756-4A9E-9D7C-CFEF350B4CFE";
paths = (
{
closed = 1;
nodes = (
"547.948 700 LINE",
"49.948 700 LINE",
"49.948 605 LINE",
"411.948 605 LINE",
"49.948 85 LINE",
"49.948 0 LINE",
"547.948 0 LINE",
"547.948 95 LINE",
"184.948 95 LINE",
"547.948 615 LINE"
);
}
);
width = 597.898;
},
{
anchors = (
{
name = top;
position = "{273.266, 700}";
}
);
hints = (
{
horizontal = 1;
place = "{678, 22}";
type = Stem;
},
{
horizontal = 1;
place = "{0, 21}";
target = up;
type = BottomGhost;
}
);
layerId = "6E968933-CD79-43C6-9231-80D77C940F4D";
paths = (
{
closed = 1;
nodes = (
"511.266 700 LINE",
"75.266 700 LINE",
"75.266 678 LINE",
"487.266 678 LINE",
"63.266 20 LINE",
"63.266 0 LINE",
"521.266 0 LINE",
"521.266 21 LINE",
"87.266 21 LINE",
"511.266 679 LINE"
);
}
);
width = 584.53681;
},
{
anchors = (
{
name = top;
position = "{285.63, 700}";
}
);
hints = (
{
horizontal = 1;
place = "{0, 144}";
type = Stem;
},
{
horizontal = 1;
place = "{557, 144}";
type = Stem;
}
);
layerId = "BAF31694-0472-4296-B0EA-1654553C45D2";
paths = (
{
closed = 1;
nodes = (
"575.63 700 LINE",
"36.63 700 LINE",
"36.63 554 LINE",
"372.63 554 LINE",
"36.63 136 LINE",
"36.63 0 LINE",
"575.63 0 LINE",
"575.63 146 LINE",
"236.63 146 LINE",
"575.63 563 LINE"
);
}
);
width = 612.26205;
},
{
anchors = (
{
name = top;
position = "{277.61, 700}";
}
);
hints = (
{
horizontal = 1;
place = "{630, 71}";
type = Stem;
},
{
horizontal = 1;
place = "{0, 21}";
target = up;
type = BottomGhost;
}
);
layerId = "9F107B1E-3A61-4335-981B-27DD48125C7E";
paths = (
{
closed = 1;
nodes = (
"535.61 700 LINE",
"60.61 700 LINE",
"60.61 630 LINE",
"441.61 630 LINE",
"56.61 63 LINE",
"56.61 0 LINE",
"539.61 0 LINE",
"539.61 70 LINE",
"149.61 70 LINE",
"535.61 637 LINE"
);
}
);
width = 596.2173;
}
);
leftMetricsKey = "=H*0.666";
rightMetricsKey = "=H*0.666";
unicode = 005A;
},
{
glyphname = a;
lastChange = "2021-09-02 15:54:38 +0000";
layers = (
{
anchors = (
{
name = ogonek;
position = "{459.718, 0}";
},
{
name = top;
position = "{268.718, 500}";
}
);
guideLines = (
{
position = "{-5.284, 81.65}";
showMeasurement = 1;
},
{
position = "{-5.284, 419.86}";
},
{
position = "{-5.284, 299}";
},
{
position = "{-5.284, 207}";
}
);
hints = (
{
place = "{48, 117}";
type = Stem;
},
{
place = "{359, 116}";
type = Stem;
},
{
horizontal = 1;
place = "{-9, 99}";
type = Stem;
},
{
horizontal = 1;
place = "{411, 98}";
type = Stem;
}
);
layerId = "0CF0EA28-C756-4A9E-9D7C-CFEF350B4CFE";
paths = (
{
closed = 1;
nodes = (
"471.718 0 LINE",
"471.718 334.816 LINE SMOOTH",
"471.718 434.816 OFFCURVE",
"402.376 507 OFFCURVE",
"272.582 507 CURVE SMOOTH",
"164.718 507 OFFCURVE",
"85.081 455.575 OFFCURVE",
"59.718 367 CURVE",
"154.718 332 LINE",
"169.025 385.721 OFFCURVE",
"212.718 412 OFFCURVE",
"266.755 412 CURVE SMOOTH",
"329.488 412 OFFCURVE",
"357.718 381.844 OFFCURVE",
"357.718 349.168 CURVE SMOOTH",
"357.718 325.602 OFFCURVE",
"343.128 313.089 OFFCURVE",
"308.967 307.357 CURVE SMOOTH",
"224.762 293.228 LINE SMOOTH",
"105.318 273.186 OFFCURVE",
"41.718 217.576 OFFCURVE",
"41.718 133.179 CURVE SMOOTH",
"41.718 48.284 OFFCURVE",
"106.426 -7 OFFCURVE",
"211.953 -7 CURVE SMOOTH",
"284.718 -7 OFFCURVE",
"325.633 18.911 OFFCURVE",
"357.718 61 CURVE",
"366.718 0 LINE"
);
},
{
closed = 1;
nodes = (
"357.718 217 LINE SMOOTH",
"357.718 133 OFFCURVE",
"302.263 89 OFFCURVE",
"229.629 89 CURVE SMOOTH",
"182.527 89 OFFCURVE",
"155.718 107.166 OFFCURVE",
"155.718 139.083 CURVE SMOOTH",
"155.718 172 OFFCURVE",
"182.829 197.064 OFFCURVE",
"237.867 205.92 CURVE SMOOTH",
"310.091 217.542 LINE SMOOTH",
"333.21 221.262 OFFCURVE",
"350.618 227.362 OFFCURVE",
"357.718 233 CURVE"
);
}
);
width = 532.4652;
},
{
anchors = (
{
name = ogonek;
position = "{435.22, 0}";
},
{
name = top;
position = "{259.835, 500}";
}
);
hints = (
{
place = "{66, 22}";
type = Stem;
},
{
horizontal = 1;
place = "{-6, 21}";
target = up;
type = BottomGhost;
},
{
horizontal = 1;
place = "{497, -20}";
target = down;
type = TopGhost;
}
);
layerId = "6E968933-CD79-43C6-9231-80D77C940F4D";
paths = (
{
closed = 1;
nodes = (
"447.22 0 LINE",
"447.22 349 LINE SMOOTH",
"447.22 450.237 OFFCURVE",
"381.623 507 OFFCURVE",
"264.633 507 CURVE SMOOTH",
"159.836 507 OFFCURVE",
"92.544 458.638 OFFCURVE",
"69.835 367 CURVE",
"88.835 360 LINE",
"107.241 441.599 OFFCURVE",
"170.883 487 OFFCURVE",
"266.861 487 CURVE SMOOTH",
"368.301 487 OFFCURVE",
"425.22 437.354 OFFCURVE",
"425.22 348.874 CURVE SMOOTH",
"425.22 313.2 OFFCURVE",
"410.798 293.994 OFFCURVE",
"356.908 287.713 CURVE SMOOTH",
"247.835 275 LINE SMOOTH",
"115.162 259.535 OFFCURVE",
"52.835 211.098 OFFCURVE",
"52.835 129.657 CURVE SMOOTH",
"52.835 45.24 OFFCURVE",
"120.361 -7 OFFCURVE",
"223.553 -7 CURVE SMOOTH",
"329.15 -7 OFFCURVE",
"400.191 44.079 OFFCURVE",
"425.22 138 CURVE",
"425.22 0 LINE"
);
},
{
closed = 1;
nodes = (
"425.22 234 LINE SMOOTH",
"425.22 97.226 OFFCURVE",
"347.295 13 OFFCURVE",
"220.751 13 CURVE SMOOTH",
"133.299 13 OFFCURVE",
"74.835 58.519 OFFCURVE",
"74.835 131.096 CURVE SMOOTH",
"74.835 200.51 OFFCURVE",
"128.194 240.895 OFFCURVE",
"246.835 254.72 CURVE SMOOTH",
"356.246 267.469 LINE SMOOTH",
"390.025 271.405 OFFCURVE",
"415.119 279.484 OFFCURVE",
"425.22 290.481 CURVE"
);
}
);
width = 524.16927;
},
{
anchors = (
{
name = ogonek;
position = "{488.591, 0}";
},
{
name = top;
position = "{268.591, 500}";
}
);
hints = (
{
place = "{20, 50}";
type = Stem;
},
{
place = "{152, 49}";
type = Stem;
},
{
horizontal = 1;
place = "{167, 170}";
type = Stem;
},
{
horizontal = 1;
place = "{366, 143}";
type = Stem;
}
);
layerId = "BAF31694-0472-4296-B0EA-1654553C45D2";
paths = (
{
closed = 1;
nodes = (
"497.591 0 LINE",
"497.591 312 LINE SMOOTH",
"497.591 433.441 OFFCURVE",
"412.936 507 OFFCURVE",
"273.176 507 CURVE SMOOTH",
"161.711 507 OFFCURVE",
"87.725 460.201 OFFCURVE",
"56.591 370 CURVE",
"195.591 320 LINE",
"205.902 353.501 OFFCURVE",
"232.591 373 OFFCURVE",
"267.298 373 CURVE SMOOTH",
"305.729 373 OFFCURVE",
"323.591 350.799 OFFCURVE",
"323.591 332.226 CURVE SMOOTH",
"323.591 316.668 OFFCURVE",
"311.076 305.916 OFFCURVE",
"295.395 303.201 CURVE SMOOTH",
"213.725 289.062 LINE SMOOTH",
"87.968 267.291 OFFCURVE",
"30.591 219.737 OFFCURVE",
"30.591 137.28 CURVE SMOOTH",
"30.591 43.78 OFFCURVE",
"104.591 -7 OFFCURVE",
"191.753 -7 CURVE SMOOTH",
"256.591 -7 OFFCURVE",
"287.724 21.134 OFFCURVE",
"323.591 62 CURVE",
"334.591 0 LINE"
);
},
{
closed = 1;
nodes = (
"323.591 203 LINE SMOOTH",
"323.591 149.035 OFFCURVE",
"294.174 119 OFFCURVE",
"253.406 119 CURVE SMOOTH",
"218.412 119 OFFCURVE",
"198.591 131.946 OFFCURVE",
"198.591 154.803 CURVE SMOOTH",
"198.591 178.177 OFFCURVE",
"215.922 194.64 OFFCURVE",
"246.092 199.927 CURVE SMOOTH",
"291.591 207.9 LINE SMOOTH",
"302.861 209.875 OFFCURVE",
"314.784 212.61 OFFCURVE",
"323.591 217 CURVE"
);
}
);
width = 542.15468;
},
{
anchors = (
{
name = ogonek;
position = "{456.224, 0}";
},
{
name = top;
position = "{267.279, 500}";
}
);
hints = (
{
place = "{282, 70}";
type = Stem;
},
{
horizontal = 1;
place = "{-2, 21}";
target = up;
type = BottomGhost;
},
{
horizontal = 1;
place = "{186, -20}";
target = down;
type = TopGhost;
}
);
layerId = "9F107B1E-3A61-4335-981B-27DD48125C7E";
paths = (
{
closed = 1;
nodes = (
"464.224 0 LINE",
"464.224 338 LINE SMOOTH",
"464.224 441.481 OFFCURVE",
"389.468 507 OFFCURVE",
"271.399 507 CURVE SMOOTH",
"168.301 507 OFFCURVE",
"93.051 455.389 OFFCURVE",
"67.279 367 CURVE",
"135.279 343 LINE",
"151.747 402.516 OFFCURVE",
"199.894 436 OFFCURVE",
"269.004 436 CURVE SMOOTH",
"339.181 436 OFFCURVE",
"384.279 400.424 OFFCURVE",
"384.279 345.065 CURVE",
"384.279 318.763 OFFCURVE",
"370.005 303.74 OFFCURVE",
"332.665 299.083 CURVE SMOOTH",
"230.2 286.304 LINE SMOOTH",
"111.962 271.558 OFFCURVE",
"47.279 217.684 OFFCURVE",
"47.279 133.949 CURVE SMOOTH",
"47.279 47.37 OFFCURVE",
"113.294 -7 OFFCURVE",
"218.418 -7 CURVE SMOOTH",
"302.279 -7 OFFCURVE",
"355.346 29.092 OFFCURVE",
"384.279 90 CURVE",
"390.279 0 LINE"
);
},
{
closed = 1;
nodes = (
"384.279 224 LINE SMOOTH",
"384.279 135 OFFCURVE",
"327.371 63 OFFCURVE",
"227.109 63 CURVE SMOOTH",
"163.997 63 OFFCURVE",
"127.279 90.656 OFFCURVE",
"127.279 138.191 CURVE SMOOTH",
"127.279 185.014 OFFCURVE",
"161.482 212.671 OFFCURVE",
"230.108 221.339 CURVE SMOOTH",
"336.279 234.75 LINE SMOOTH",
"362.117 238.014 OFFCURVE",
"377.863 243.766 OFFCURVE",
"384.279 248.5 CURVE"
);
}
);
width = 533.06923;
},
{
associatedMasterId = "6E968933-CD79-43C6-9231-80D77C940F4D";
layerId = "6E4CF43C-7357-46F6-B177-E4D44CE7ABF2";
width = 600;
},
{
associatedMasterId = "6E968933-CD79-43C6-9231-80D77C940F4D";
layerId = "0AB37D12-DD1B-4F6C-A243-298BB94F98F2";
width = 600;
}
);
leftMetricsKey = "=l*0.618";
rightMetricsKey = "=l*0.9";
unicode = 0061;
},
{
glyphname = ae;
lastChange = "2021-09-02 18:08:13 +0000";
layers = (
{
anchors = (
{
name = bottom;
position = "{438.171, 5}";
},
{
name = ogonek;
position = "{695.59, 5}";
},
{
name = right;
position = "{3397.59, 238}";
},
{
name = top;
position = "{438.171, 496}";
}
);
guideLines = (
{
position = "{1.95, 426.08}";
}
);
hints = (
{
place = "{48, 117}";
type = Stem;
},
{
place = "{727, 119}";
type = Stem;
},
{
horizontal = 1;
place = "{-9, 97}";
type = Stem;
},
{
horizontal = 1;
place = "{207, 92}";
type = Stem;
},
{
horizontal = 1;
place = "{411, 97}";
type = Stem;
},
{
horizontal = 1;
place = "{413, 96}";
type = Stem;
},
{
horizontal = 1;
place = "{-9, 99}";
type = Stem;
},
{
place = "{48, 117}";
type = Stem;
},
{
place = "{359, 116}";
type = Stem;
},
{
horizontal = 1;
place = "{-9, 99}";
type = Stem;
},
{
horizontal = 1;
place = "{411, 98}";
type = Stem;
},
{
place = "{727.25, 119}";
type = Stem;
},
{
horizontal = 1;
place = "{-8, 96}";
type = Stem;
},
{
horizontal = 1;
place = "{207, 92}";
type = Stem;
},
{
horizontal = 1;
place = "{413, 96}";
type = Stem;
},
{
place = "{46, 117}";
type = Stem;
},
{
place = "{357, 116}";
type = Stem;
},
{
horizontal = 1;
place = "{-9, 99}";
type = Stem;
},
{
horizontal = 1;
place = "{411, 98}";
type = Stem;
}
);
layerId = "0CF0EA28-C756-4A9E-9D7C-CFEF350B4CFE";
paths = (
{
closed = 1;
nodes = (
"707.59 -7 OFFCURVE",
"780.59 44 OFFCURVE",
"819.59 121 CURVE",
"724.59 153 LINE",
"702.59 108 OFFCURVE",
"661.59 90 OFFCURVE",
"592.59 90 CURVE SMOOTH",
"523.59 90 OFFCURVE",
"474.59 133 OFFCURVE",
"467.59 207 CURVE",
"825.59 207 LINE",
"829.59 228 OFFCURVE",
"830.59 245 OFFCURVE",
"830.59 262 CURVE SMOOTH",
"830.59 410 OFFCURVE",
"735.59 507 OFFCURVE",
"592.59 507 CURVE SMOOTH",
"443.59 507 OFFCURVE",
"359.59 409 OFFCURVE",
"359.59 252 CURVE SMOOTH",
"359.59 96 OFFCURVE",
"451.59 -7 OFFCURVE",
"595.59 -7 CURVE SMOOTH"
);
},
{
closed = 1;
nodes = (
"471.59 299 LINE",
"483.59 368 OFFCURVE",
"528.59 412 OFFCURVE",
"590.59 412 CURVE SMOOTH",
"661.59 412 OFFCURVE",
"711.59 371 OFFCURVE",
"714.59 299 CURVE"
);
},
{
closed = 1;
nodes = (
"466.723 222.189 LINE",
"466.723 334.816 LINE SMOOTH",
"466.723 434.816 OFFCURVE",
"400.381 507 OFFCURVE",
"272.587 507 CURVE SMOOTH",
"162.723 507 OFFCURVE",
"85.086 455.575 OFFCURVE",
"59.723 367 CURVE",
"154.723 332 LINE",
"169.03 385.721 OFFCURVE",
"212.723 412 OFFCURVE",
"266.76 412 CURVE SMOOTH",
"327.493 412 OFFCURVE",
"357.723 381.844 OFFCURVE",
"357.723 349.168 CURVE SMOOTH",
"357.723 325.269 OFFCURVE",
"342.651 313.008 OFFCURVE",
"308.972 307.357 CURVE SMOOTH",
"224.767 293.228 LINE SMOOTH",
"134.889 278.147 OFFCURVE",
"41.723 241.003 OFFCURVE",
"41.723 133.984 CURVE SMOOTH",
"41.723 41.599 OFFCURVE",
"111.196 -7 OFFCURVE",
"212.501 -7 CURVE SMOOTH",
"293.723 -7 OFFCURVE",
"395.183 29.834 OFFCURVE",
"431.171 127.679 CURVE",
"422.27 197.44 LINE"
);
},
{
closed = 1;
nodes = (
"357.723 214 LINE SMOOTH",
"357.723 130 OFFCURVE",
"301.371 89 OFFCURVE",
"231.414 89 CURVE SMOOTH",
"187.199 89 OFFCURVE",
"155.723 103.93 OFFCURVE",
"155.723 140.324 CURVE SMOOTH",
"155.723 173 OFFCURVE",
"181.022 196.772 OFFCURVE",
"237.872 205.92 CURVE SMOOTH",
"310.096 217.542 LINE SMOOTH",
"333.215 221.262 OFFCURVE",
"350.623 227.362 OFFCURVE",
"357.723 233 CURVE"
);
}
);
width = 871.0942;
},
{
anchors = (
{
name = bottom;
position = "{451.811, 0}";
},
{
name = ogonek;
position = "{705.067, -3}";
},
{
name = right;
position = "{3557.067, 243}";
},
{
name = top;
position = "{451.811, 498}";
}
);
hints = (
{
place = "{61, 22}";
type = Stem;
},
{
place = "{430, 23}";
type = Stem;
},
{
place = "{859, 22}";
type = Stem;
},
{
horizontal = 1;
place = "{497, -20}";
target = down;
type = TopGhost;
},
{
horizontal = 1;
place = "{-6, 21}";
target = up;
type = BottomGhost;
},
{
place = "{66, 22}";
type = Stem;
},
{
horizontal = 1;
place = "{-6, 21}";
target = up;
type = BottomGhost;
},
{
horizontal = 1;
place = "{497, -20}";
target = down;
type = TopGhost;
},
{
place = "{427.847, 22}";
type = Stem;
},
{
place = "{860.847, 22}";
type = Stem;
},
{
horizontal = 1;
place = "{497, -20}";
target = down;
type = TopGhost;
},
{
horizontal = 1;
place = "{-6, 21}";
target = up;
type = BottomGhost;
},
{
place = "{65, 22}";
type = Stem;
},
{
horizontal = 1;
place = "{-6, 21}";
target = up;
type = BottomGhost;
},
{
horizontal = 1;
place = "{497, -20}";
target = down;
type = TopGhost;
}
);
layerId = "6E968933-CD79-43C6-9231-80D77C940F4D";
paths = (
{
closed = 1;
nodes = (
"765.067 -7 OFFCURVE",
"836.067 48 OFFCURVE",
"866.067 129 CURVE",
"850.067 136 LINE",
"818.067 58 OFFCURVE",
"750.067 13 OFFCURVE",
"653.067 13 CURVE SMOOTH",
"544.067 13 OFFCURVE",
"448.067 85 OFFCURVE",
"446.067 250 CURVE",
"873.067 250 LINE",
"874.067 267 OFFCURVE",
"873.067 281 OFFCURVE",
"873.067 291 CURVE SMOOTH",
"873.067 398 OFFCURVE",
"803.067 507 OFFCURVE",
"653.067 507 CURVE SMOOTH",
"514.067 507 OFFCURVE",
"427.067 412 OFFCURVE",
"427.067 255 CURVE SMOOTH",
"427.067 94 OFFCURVE",
"514.067 -7 OFFCURVE",
"653.067 -7 CURVE SMOOTH"
);
},
{
closed = 1;
nodes = (
"446.067 270 LINE",
"451.067 421 OFFCURVE",
"546.067 487 OFFCURVE",
"653.067 487 CURVE SMOOTH",
"767.067 487 OFFCURVE",
"863.067 411 OFFCURVE",
"853.067 270 CURVE"
);
},
{
closed = 1;
nodes = (
"443.221 259.598 LINE",
"443.221 349 LINE SMOOTH",
"443.221 454.927 OFFCURVE",
"373.204 507 OFFCURVE",
"264.634 507 CURVE SMOOTH",
"165.836 507 OFFCURVE",
"93.845 463.883 OFFCURVE",
"69.836 367 CURVE",
"88.836 360 LINE",
"109.726 452.611 OFFCURVE",
"183.836 487 OFFCURVE",
"266.862 487 CURVE SMOOTH",
"373.849 487 OFFCURVE",
"425.221 429.899 OFFCURVE",
"425.221 348.874 CURVE SMOOTH",
"425.221 313.2 OFFCURVE",
"410.8 293.994 OFFCURVE",
"356.909 287.713 CURVE SMOOTH",
"247.836 275 LINE SMOOTH",
"192.879 268.594 OFFCURVE",
"52.836 256 OFFCURVE",
"52.836 131.657 CURVE SMOOTH",
"52.836 42.762 OFFCURVE",
"125.836 -7 OFFCURVE",
"223.554 -7 CURVE SMOOTH",
"328.836 -7 OFFCURVE",
"416.248 46.71 OFFCURVE",
"440.665 180.098 CURVE",
"434.45 250 LINE"
);
},
{
closed = 1;
nodes = (
"425.221 234 LINE SMOOTH",
"425.221 105.997 OFFCURVE",
"352.411 13 OFFCURVE",
"220.752 13 CURVE SMOOTH",
"140.937 13 OFFCURVE",
"74.836 53.181 OFFCURVE",
"74.836 132.096 CURVE SMOOTH",
"74.836 214 OFFCURVE",
"145.827 242.95 OFFCURVE",
"246.836 254.72 CURVE SMOOTH",
"356.247 267.469 LINE SMOOTH",
"390.026 271.405 OFFCURVE",
"415.12 279.484 OFFCURVE",
"425.221 290.481 CURVE"
);
}
);
width = 924.80927;
},
{
anchors = (
{
name = bottom;
position = "{406.375, 8}";
},
{
name = ogonek;
position = "{565.766, 145.805}";
},
{
name = right;
position = "{3262.375, 236}";
},
{
name = top;
position = "{416.375, 499}";
}
);
hints = (
{
place = "{20, 50}";
type = Stem;
},
{
place = "{309, 51}";
type = Stem;
},
{
horizontal = 1;
place = "{-4, 41}";
type = Stem;
},
{
horizontal = 1;
place = "{84, 141}";
type = Stem;
},
{
horizontal = 1;
place = "{291, 106}";
type = Stem;
},
{
horizontal = 1;
place = "{365, 143}";
type = Stem;
},
{
horizontal = 1;
place = "{-9, 134}";
type = Stem;
},
{
place = "{20, 50}";
type = Stem;
},
{
place = "{152, 49}";
type = Stem;
},
{
horizontal = 1;
place = "{167, 170}";
type = Stem;
},
{
horizontal = 1;
place = "{366, 143}";
type = Stem;
},
{
place = "{468.675, 51}";
type = Stem;
},
{
horizontal = 1;
place = "{-7, 142}";
type = Stem;
},
{
horizontal = 1;
place = "{205, 104}";
type = Stem;
},
{
horizontal = 1;
place = "{370, 138}";
type = Stem;
},
{
place = "{21, 50}";
type = Stem;
},
{
place = "{153, 49}";
type = Stem;
},
{
horizontal = 1;
place = "{167, 170}";
type = Stem;
},
{
horizontal = 1;
place = "{366, 143}";
type = Stem;
}
);
layerId = "BAF31694-0472-4296-B0EA-1654553C45D2";
paths = (
{
closed = 1;
nodes = (
"675.375 -6 OFFCURVE",
"755.375 40 OFFCURVE",
"798.375 139 CURVE",
"650.375 176 LINE",
"633.375 147 OFFCURVE",
"610.375 133 OFFCURVE",
"567.375 133 CURVE SMOOTH",
"528.375 133 OFFCURVE",
"491.375 162 OFFCURVE",
"482.375 206 CURVE",
"801.375 206 LINE",
"804.375 227 OFFCURVE",
"805.375 244 OFFCURVE",
"805.375 258 CURVE SMOOTH",
"805.375 411 OFFCURVE",
"705.375 507 OFFCURVE",
"557.375 507 CURVE SMOOTH",
"406.375 507 OFFCURVE",
"323.375 414 OFFCURVE",
"323.375 256 CURVE SMOOTH",
"323.375 97 OFFCURVE",
"410.375 -7 OFFCURVE",
"558.375 -7 CURVE SMOOTH"
);
},
{
closed = 1;
nodes = (
"484.375 302 LINE",
"488.375 340 OFFCURVE",
"516.385 371.163 OFFCURVE",
"556.375 372 CURVE SMOOTH",
"599.377 372.9 OFFCURVE",
"624.375 341 OFFCURVE",
"626.375 302 CURVE"
);
},
{
closed = 1;
nodes = (
"477.591 216.938 LINE",
"477.591 312 LINE SMOOTH",
"477.591 434 OFFCURVE",
"412.292 507 OFFCURVE",
"273.176 507 CURVE SMOOTH",
"165.591 507 OFFCURVE",
"88.809 463.341 OFFCURVE",
"56.591 370 CURVE",
"195.591 320 LINE",
"205.902 353.501 OFFCURVE",
"232.591 373 OFFCURVE",
"267.298 373 CURVE SMOOTH",
"305.729 373 OFFCURVE",
"323.591 349.799 OFFCURVE",
"323.591 331.226 CURVE SMOOTH",
"323.591 315.668 OFFCURVE",
"311.076 304.916 OFFCURVE",
"295.395 302.201 CURVE SMOOTH",
"213.725 288.062 LINE SMOOTH",
"109.561 270.029 OFFCURVE",
"30.591 233.895 OFFCURVE",
"30.591 137.28 CURVE SMOOTH",
"30.591 43.78 OFFCURVE",
"104.591 -7 OFFCURVE",
"191.753 -7 CURVE SMOOTH",
"286.591 -7 OFFCURVE",
"352.923 13.885 OFFCURVE",
"403.617 91.775 CURVE",
"387.849 185.61 LINE"
);
},
{
closed = 1;
nodes = (
"323.591 200 LINE SMOOTH",
"323.591 146.035 OFFCURVE",
"294.174 119 OFFCURVE",
"250.406 119 CURVE SMOOTH",
"221.16 119 OFFCURVE",
"198.591 129.498 OFFCURVE",
"198.591 154.803 CURVE SMOOTH",
"198.591 174.49 OFFCURVE",
"211.805 192.919 OFFCURVE",
"240.271 197.907 CURVE SMOOTH",
"291.591 206.9 LINE SMOOTH",
"302.861 208.875 OFFCURVE",
"314.784 211.61 OFFCURVE",
"323.591 216 CURVE"
);
}
);
width = 835.08468;
},
{
anchors = (
{
name = bottom;
position = "{447.745, 4}";
},
{
name = ogonek;
position = "{698.138, 2}";
},
{
name = right;
position = "{3456.138, 240}";
},
{
name = top;
position = "{447.745, 498}";
}
);
hints = (
{
place = "{152, 66}";
type = Stem;
},
{
place = "{418, 69}";
type = Stem;
},
{
place = "{580, 68}";
type = Stem;
},
{
horizontal = 1;
place = "{186, -20}";
target = down;
type = TopGhost;
},
{
horizontal = 1;
place = "{-2, 21}";
target = up;
type = BottomGhost;
},
{
place = "{282, 70}";
type = Stem;
},
{
horizontal = 1;
place = "{-2, 21}";
target = up;
type = BottomGhost;
},
{
horizontal = 1;
place = "{186, -20}";
target = down;
type = TopGhost;
},
{
place = "{487.318, 66}";
type = Stem;
},
{
place = "{778.318, 68}";
type = Stem;
},
{
horizontal = 1;
place = "{186, -20}";
target = down;
type = TopGhost;
},
{
horizontal = 1;
place = "{-2, 21}";
target = up;
type = BottomGhost;
},
{
place = "{282, 70}";
type = Stem;
},
{
horizontal = 1;
place = "{-2, 21}";
target = up;
type = BottomGhost;
},
{
horizontal = 1;
place = "{186, -20}";
target = down;
type = TopGhost;
}
);
layerId = "9F107B1E-3A61-4335-981B-27DD48125C7E";
paths = (
{
closed = 1;
nodes = (
"733.138 -7 OFFCURVE",
"804.138 45 OFFCURVE",
"841.138 123 CURVE",
"776.138 149 LINE",
"751.138 91 OFFCURVE",
"697.138 64 OFFCURVE",
"619.138 64 CURVE SMOOTH",
"534.138 64 OFFCURVE",
"467.138 115 OFFCURVE",
"462.138 224 CURVE",
"849.138 224 LINE",
"852.138 243 OFFCURVE",
"852.138 259 OFFCURVE",
"852.138 273 CURVE SMOOTH",
"852.138 406 OFFCURVE",
"766.138 507 OFFCURVE",
"619.138 507 CURVE SMOOTH",
"474.138 507 OFFCURVE",
"387.138 412 OFFCURVE",
"387.138 255 CURVE SMOOTH",
"387.138 96 OFFCURVE",
"479.138 -7 OFFCURVE",
"621.138 -7 CURVE SMOOTH"
);
},
{
closed = 1;
nodes = (
"464.138 289 LINE",
"473.138 388 OFFCURVE",
"538.138 436 OFFCURVE",
"617.138 436 CURVE SMOOTH",
"704.138 436 OFFCURVE",
"773.138 386 OFFCURVE",
"771.138 289 CURVE"
);
},
{
closed = 1;
nodes = (
"461.227 249.761 LINE",
"461.227 338 LINE SMOOTH",
"461.227 439.821 OFFCURVE",
"389.365 507 OFFCURVE",
"271.402 507 CURVE SMOOTH",
"164.282 507 OFFCURVE",
"92.549 453.655 OFFCURVE",
"67.282 367 CURVE",
"135.282 343 LINE",
"152.557 405.431 OFFCURVE",
"203.282 436 OFFCURVE",
"269.007 436 CURVE SMOOTH",
"347.863 436 OFFCURVE",
"384.282 392 OFFCURVE",
"384.282 345.065 CURVE",
"384.282 318.763 OFFCURVE",
"370.008 303.74 OFFCURVE",
"332.668 299.083 CURVE SMOOTH",
"230.203 286.304 LINE SMOOTH",
"141.508 275.242 OFFCURVE",
"47.282 240 OFFCURVE",
"47.282 133.949 CURVE SMOOTH",
"47.282 42.441 OFFCURVE",
"117.282 -7 OFFCURVE",
"218.421 -7 CURVE SMOOTH",
"302.282 -7 OFFCURVE",
"393.487 24.503 OFFCURVE",
"431.796 124.63 CURVE",
"424.568 200.566 LINE"
);
},
{
closed = 1;
nodes = (
"384.282 224 LINE SMOOTH",
"384.282 135 OFFCURVE",
"325.374 63 OFFCURVE",
"227.112 63 CURVE SMOOTH",
"172.282 63 OFFCURVE",
"127.282 84.418 OFFCURVE",
"127.282 138.191 CURVE SMOOTH",
"127.282 185 OFFCURVE",
"159.497 212.419 OFFCURVE",
"230.111 221.339 CURVE SMOOTH",
"336.282 234.75 LINE SMOOTH",
"362.12 238.014 OFFCURVE",
"377.866 243.766 OFFCURVE",
"384.282 248.5 CURVE"
);
}
);
width = 898.03523;
}
);
leftMetricsKey = a;
rightMetricsKey = e;
unicode = 00E6;
},
{
glyphname = b;
lastChange = "2021-09-02 18:07:14 +0000";
layers = (
{
hints = (
{
place = "{77, 114}";
type = Stem;
},
{
place = "{467, 116}";
type = Stem;
},
{
horizontal = 1;
place = "{-8, 98}";
type = Stem;
},
{
horizontal = 1;
place = "{410, 98}";
type = Stem;
},
{
horizontal = 1;
place = "{720, -20}";
target = down;
type = TopGhost;
}
);
layerId = "0CF0EA28-C756-4A9E-9D7C-CFEF350B4CFE";
rightMetricsKey = "=l*0.5";
paths = (
{
closed = 1;
nodes = (
"181.5 423 LINE",
"181.5 720 LINE",
"67.5 720 LINE",
"67.5 0 LINE",
"171.5 0 LINE",
"179.5 62 LINE",
"213.5 23 OFFCURVE",
"267.5 -7 OFFCURVE",
"342.5 -7 CURVE SMOOTH",
"475.5 -7 OFFCURVE",
"566.5 95 OFFCURVE",
"566.5 250 CURVE SMOOTH",
"566.5 403.871 OFFCURVE",
"476.613 507 OFFCURVE",
"342.5 507 CURVE SMOOTH",
"262.5 507 OFFCURVE",
"201.5 471 OFFCURVE",
"169.5 426 CURVE"
);
},
{
closed = 1;
nodes = (
"450.5 155.19 OFFCURVE",
"396.403 91 OFFCURVE",
"316.5 91 CURVE SMOOTH",
"243.5 91 OFFCURVE",
"181.5 147 OFFCURVE",
"181.5 250 CURVE SMOOTH",
"181.5 352 OFFCURVE",
"243.5 409 OFFCURVE",
"316.5 409 CURVE SMOOTH",
"395.981 409 OFFCURVE",
"450.5 344.31 OFFCURVE",
"450.5 250 CURVE SMOOTH"
);
}
);
width = 600.255;
},
{
hints = (
{
place = "{93, 22}";
type = Stem;
},
{
place = "{549, 22}";
type = Stem;
},
{
horizontal = 1;
place = "{-6, 21}";
target = up;
type = BottomGhost;
},
{
horizontal = 1;
place = "{720, -20}";
target = down;
type = TopGhost;
}
);
layerId = "6E968933-CD79-43C6-9231-80D77C940F4D";
paths = (
{
closed = 1;
nodes = (
"107.5 351 LINE",
"107.5 720 LINE",
"85.5 720 LINE",
"85.5 0 LINE",
"107.5 0 LINE",
"107.5 145 LINE",
"132.917 58.813 OFFCURVE",
"207.5 -7 OFFCURVE",
"316.5 -7 CURVE SMOOTH",
"457.5 -7 OFFCURVE",
"549.5 93 OFFCURVE",
"549.5 250 CURVE SMOOTH",
"549.5 406 OFFCURVE",
"457.5 507 OFFCURVE",
"316.5 507 CURVE SMOOTH",
"201.5 507 OFFCURVE",
"129.957 440.161 OFFCURVE",
"106.5 354 CURVE"
);
},
{
closed = 1;
nodes = (
"527.5 104.367 OFFCURVE",
"446.156 13 OFFCURVE",
"316.5 13 CURVE SMOOTH",
"190.5 13 OFFCURVE",
"107.5 110 OFFCURVE",
"107.5 250 CURVE SMOOTH",
"107.5 390 OFFCURVE",
"189.5 487 OFFCURVE",
"316.5 487 CURVE SMOOTH",
"445.711 487 OFFCURVE",
"527.5 395.133 OFFCURVE",
"527.5 250 CURVE SMOOTH"
);
}
);
width = 600.80245;
},
{
hints = (
{
place = "{49, 176}";
type = Stem;
},
{
place = "{399, 179}";
type = Stem;
},
{
horizontal = 1;
place = "{-7, 153}";
type = Stem;
},
{
horizontal = 1;
place = "{355, 153}";
type = Stem;
},
{
horizontal = 1;
place = "{720, -20}";
target = down;
type = TopGhost;
}
);
layerId = "BAF31694-0472-4296-B0EA-1654553C45D2";
paths = (
{
closed = 1;
nodes = (
"223.5 422 LINE",
"223.5 720 LINE",
"49.5 720 LINE",
"49.5 0 LINE",
"207.5 0 LINE",
"216.5 63 LINE",
"239.5 25 OFFCURVE",
"295.5 -7 OFFCURVE",
"354.5 -7 CURVE SMOOTH",
"478.5 -7 OFFCURVE",
"570.5 92 OFFCURVE",
"570.5 250 CURVE SMOOTH",
"570.5 409 OFFCURVE",
"479.5 507 OFFCURVE",
"354.5 507 CURVE SMOOTH",
"280.5 507 OFFCURVE",
"227.5 468 OFFCURVE",
"199.5 422 CURVE"
);
},
{
closed = 1;
nodes = (
"393.5 187.747 OFFCURVE",
"359.38 146 OFFCURVE",
"308.5 146 CURVE SMOOTH",
"261.5 146 OFFCURVE",
"223.5 182 OFFCURVE",
"223.5 250 CURVE SMOOTH",
"223.5 317 OFFCURVE",
"261.5 355 OFFCURVE",
"308.5 355 CURVE SMOOTH",
"359.524 355 OFFCURVE",
"393.5 313.029 OFFCURVE",
"393.5 250 CURVE SMOOTH"
);
}
);
width = 600.21005;
},
{
hints = (
{
place = "{30, 70}";
type = Stem;
},
{
place = "{462, 70}";
type = Stem;
},
{
horizontal = 1;
place = "{-2, 21}";
target = up;
type = BottomGhost;
},
{
horizontal = 1;
place = "{720, -20}";
target = down;
type = TopGhost;
}
);
layerId = "9F107B1E-3A61-4335-981B-27DD48125C7E";
paths = (
{
closed = 1;
nodes = (
"156.5 398 LINE",
"156.5 720 LINE",
"76.5 720 LINE",
"76.5 0 LINE",
"150.5 0 LINE",
"155.5 93 LINE",
"186.5 37 OFFCURVE",
"246.5 -7 OFFCURVE",
"336.5 -7 CURVE SMOOTH",
"473.5 -7 OFFCURVE",
"565.5 93 OFFCURVE",
"565.5 250 CURVE SMOOTH",
"565.5 406 OFFCURVE",
"474.5 507 OFFCURVE",
"336.5 507 CURVE SMOOTH",
"241.5 507 OFFCURVE",
"178.5 460 OFFCURVE",
"148.5 399 CURVE"
);
},
{
closed = 1;
nodes = (
"484.5 135.268 OFFCURVE",
"421.12 63 OFFCURVE",
"320.5 63 CURVE SMOOTH",
"226.5 63 OFFCURVE",
"156.5 132 OFFCURVE",
"156.5 250 CURVE SMOOTH",
"156.5 367 OFFCURVE",
"226.5 437 OFFCURVE",
"320.5 437 CURVE SMOOTH",
"420.682 437 OFFCURVE",
"484.5 364.232 OFFCURVE",
"484.5 250 CURVE SMOOTH"
);
}
);
width = 611.40404;
}
);
leftMetricsKey = l;
rightMetricsKey = o;
unicode = 0062;
},
{
glyphname = c;
lastChange = "2021-09-02 18:07:14 +0000";
layers = (
{
anchors = (
{
name = bottom;
position = "{277.5, 5}";
},
{
name = top;
position = "{277.5, 500}";
}
);
hints = (
{
place = "{46, 117}";
type = Stem;
},
{
horizontal = 1;
place = "{-8, 98}";
type = Stem;
},
{
horizontal = 1;
place = "{410, 98}";
type = Stem;
}
);
layerId = "0CF0EA28-C756-4A9E-9D7C-CFEF350B4CFE";
paths = (
{
closed = 1;
nodes = (
"384.074 -7 OFFCURVE",
"471.997 43.952 OFFCURVE",
"509.5 124 CURVE",
"413.5 158 LINE",
"391.83 115.682 OFFCURVE",
"345.768 90 OFFCURVE",
"291.537 90 CURVE SMOOTH",
"208.32 90 OFFCURVE",
"156.5 150.843 OFFCURVE",
"156.5 248.548 CURVE SMOOTH",
"156.5 346.981 OFFCURVE",
"208.624 410 OFFCURVE",
"290.04 410 CURVE SMOOTH",
"344.28 410 OFFCURVE",
"391.869 382.114 OFFCURVE",
"409.5 340 CURVE",
"507.5 374 LINE",
"473.441 455.841 OFFCURVE",
"388.444 507 OFFCURVE",
"286.53 507 CURVE SMOOTH",
"140.851 507 OFFCURVE",
"40.5 401.382 OFFCURVE",
"40.5 248.057 CURVE SMOOTH",
"40.5 96.866 OFFCURVE",
"139.434 -7 OFFCURVE",
"283.446 -7 CURVE SMOOTH"
);
}
);
width = 558.096;
},
{
anchors = (
{
name = bottom;
position = "{286.3, 1}";
},
{
name = top;
position = "{286.3, 500}";
}
);
hints = (
{
place = "{64, 22}";
type = Stem;
},
{
horizontal = 1;
place = "{497, -20}";
target = down;
type = TopGhost;
},
{
horizontal = 1;
place = "{-6, 21}";
target = up;
type = BottomGhost;
}
);
layerId = "6E968933-CD79-43C6-9231-80D77C940F4D";
paths = (
{
closed = 1;
nodes = (
"388.977 -7 OFFCURVE",
"463.993 40.842 OFFCURVE",
"501.3 128 CURVE",
"481.3 133 LINE",
"445.402 54.849 OFFCURVE",
"378.615 13 OFFCURVE",
"289.79 13 CURVE SMOOTH",
"157.548 13 OFFCURVE",
"73.3 104.932 OFFCURVE",
"73.3 249.235 CURVE SMOOTH",
"73.3 393.127 OFFCURVE",
"158.37 487 OFFCURVE",
"288.77 487 CURVE SMOOTH",
"380.351 487 OFFCURVE",
"453.382 440.481 OFFCURVE",
"480.3 365 CURVE",
"499.3 371 LINE",
"470.062 455.383 OFFCURVE",
"390.179 507 OFFCURVE",
"288.826 507 CURVE SMOOTH",
"145.638 507 OFFCURVE",
"51.3 404.368 OFFCURVE",
"51.3 248.589 CURVE SMOOTH",
"51.3 93.791 OFFCURVE",
"145.282 -7 OFFCURVE",
"289.621 -7 CURVE SMOOTH"
);
}
);
width = 562.86379;
},
{
anchors = (
{
name = bottom;
position = "{272.7, 11}";
},
{
name = top;
position = "{272.7, 500}";
}
);
hints = (
{
place = "{29, 177}";
type = Stem;
},
{
horizontal = 1;
place = "{-7, 150}";
type = Stem;
},
{
horizontal = 1;
place = "{357, 150}";
type = Stem;
}
);
layerId = "BAF31694-0472-4296-B0EA-1654553C45D2";
paths = (
{
closed = 1;
nodes = (
"393.671 -5.561 OFFCURVE",
"486.21 58.205 OFFCURVE",
"517.7 157 CURVE",
"360.7 192 LINE",
"346 159.606 OFFCURVE",
"320.796 142 OFFCURVE",
"289.123 142 CURVE SMOOTH",
"239.084 142 OFFCURVE",
"203.7 186.245 OFFCURVE",
"203.7 248.814 CURVE SMOOTH",
"203.7 312.042 OFFCURVE",
"240.174 358 OFFCURVE",
"290.354 358 CURVE SMOOTH",
"322.152 358 OFFCURVE",
"347.842 339.477 OFFCURVE",
"359.7 308 CURVE",
"516.7 342 LINE",
"483.36 444.142 OFFCURVE",
"392.579 507 OFFCURVE",
"278.405 507 CURVE SMOOTH",
"130.923 507 OFFCURVE",
"29.7 401.849 OFFCURVE",
"29.7 248.644 CURVE SMOOTH",
"29.7 95.348 OFFCURVE",
"131.616 -8.869 OFFCURVE",
"279.7 -7 CURVE SMOOTH"
);
}
);
width = 553.348;
},
{
anchors = (
{
name = bottom;
position = "{281.9, 4}";
},
{
name = top;
position = "{281.9, 500}";
}
);
hints = (
{
place = "{280, 70}";
type = Stem;
},
{
horizontal = 1;
place = "{186, -20}";
target = down;
type = TopGhost;
},
{
horizontal = 1;
place = "{-2, 21}";
target = up;
type = BottomGhost;
}
);
layerId = "9F107B1E-3A61-4335-981B-27DD48125C7E";
paths = (
{
closed = 1;
nodes = (
"392.077 -7 OFFCURVE",
"474.664 42.605 OFFCURVE",
"509.9 125 CURVE",
"441.9 149 LINE",
"416.737 96.618 OFFCURVE",
"359.291 64 OFFCURVE",
"292.199 64 CURVE SMOOTH",
"191.391 64 OFFCURVE",
"126.9 136.27 OFFCURVE",
"126.9 249.239 CURVE SMOOTH",
"126.9 362.904 OFFCURVE",
"192.33 436 OFFCURVE",
"294.074 436 CURVE SMOOTH",
"363.047 436 OFFCURVE",
"419.393 402.384 OFFCURVE",
"439.9 349 CURVE",
"508.9 373 LINE",
"474.651 456.394 OFFCURVE",
"392.095 507 OFFCURVE",
"290.297 507 CURVE SMOOTH",
"144.475 507 OFFCURVE",
"45.9 402.66 OFFCURVE",
"45.9 248.308 CURVE SMOOTH",
"45.9 95.187 OFFCURVE",
"143.654 -7 OFFCURVE",
"290.134 -7 CURVE SMOOTH"
);
}
);
width = 564.97842;
}
);
leftMetricsKey = o;
rightMetricsKey = "=o*1.2";
unicode = 0063;
},
{
glyphname = d;
lastChange = "2021-09-02 18:07:14 +0000";
layers = (
{
anchors = (
{
name = bottom;
position = "{305.5, 0}";
},
{
name = center;
position = "{305.5, 250}";
},
{
name = top;
position = "{305.5, 500}";
},
{
name = topright;
position = "{592.5, 720}";
}
);
hints = (
{
place = "{38, 116}";
type = Stem;
},
{
place = "{431, 114}";
type = Stem;
},
{
horizontal = 1;
place = "{-8, 98}";
type = Stem;
},
{
horizontal = 1;
place = "{410, 98}";
type = Stem;
},
{
horizontal = 1;
place = "{720, -20}";
target = down;
type = TopGhost;
}
);
layerId = "0CF0EA28-C756-4A9E-9D7C-CFEF350B4CFE";
paths = (
{
closed = 1;
nodes = (
"405.5 471 OFFCURVE",
"344.5 507 OFFCURVE",
"264.5 507 CURVE SMOOTH",
"130.5 507 OFFCURVE",
"40.5 404 OFFCURVE",
"40.5 250 CURVE SMOOTH",
"40.5 95 OFFCURVE",
"131.5 -7 OFFCURVE",
"264.5 -7 CURVE SMOOTH",
"339.5 -7 OFFCURVE",
"393.5 23 OFFCURVE",
"427.5 62 CURVE",
"435.5 0 LINE",
"539.5 0 LINE",
"539.5 720 LINE",
"425.5 720 LINE",
"425.5 423 LINE",
"437.5 426 LINE"
);
},
{
closed = 1;
nodes = (
"156.5 344.743 OFFCURVE",
"211.019 409 OFFCURVE",
"290.5 409 CURVE SMOOTH",
"363.5 409 OFFCURVE",
"425.5 352 OFFCURVE",
"425.5 250 CURVE SMOOTH",
"425.5 147 OFFCURVE",
"363.5 91 OFFCURVE",
"290.5 91 CURVE SMOOTH",
"210.597 91 OFFCURVE",
"156.5 155.624 OFFCURVE",
"156.5 250 CURVE SMOOTH"
);
}
);
width = 607;
},
{
anchors = (
{
name = bottom;
position = "{265.1, 0}";
},
{
name = center;
position = "{265.1, 250}";
},
{
name = top;
position = "{265.1, 500}";
},
{
name = topright;
position = "{551.1, 720}";
}
);
hints = (
{
place = "{47, 22}";
type = Stem;
},
{
place = "{503, 22}";
type = Stem;
},
{
horizontal = 1;
place = "{-6, 21}";
target = up;
type = BottomGhost;
},
{
horizontal = 1;
place = "{721, -20}";
target = down;
type = TopGhost;
}
);
layerId = "6E968933-CD79-43C6-9231-80D77C940F4D";
paths = (
{
closed = 1;
nodes = (
"470.843 440.161 OFFCURVE",
"399.3 507 OFFCURVE",
"284.3 507 CURVE SMOOTH",
"143.3 507 OFFCURVE",
"51.3 406 OFFCURVE",
"51.3 250 CURVE SMOOTH",
"51.3 93 OFFCURVE",
"143.3 -7 OFFCURVE",
"284.3 -7 CURVE SMOOTH",
"393.3 -7 OFFCURVE",
"467.883 58.813 OFFCURVE",
"493.3 145 CURVE",
"493.3 0 LINE",
"515.3 0 LINE",
"515.3 720 LINE",
"493.3 720 LINE",
"493.3 351 LINE",
"494.3 354 LINE"
);
},
{
closed = 1;
nodes = (
"73.3 395.133 OFFCURVE",
"155.089 487 OFFCURVE",
"284.3 487 CURVE SMOOTH",
"411.3 487 OFFCURVE",
"493.3 390 OFFCURVE",
"493.3 250 CURVE SMOOTH",
"493.3 110 OFFCURVE",
"410.3 13 OFFCURVE",
"284.3 13 CURVE SMOOTH",
"154.644 13 OFFCURVE",
"73.3 104.367 OFFCURVE",
"73.3 250 CURVE SMOOTH"
);
}
);
width = 600.80277;
},
{
anchors = (
{
name = bottom;
position = "{297.7, 0}";
},
{
name = center;
position = "{297.7, 195}";
},
{
name = top;
position = "{297.7, 500}";
},
{
name = topright;
position = "{514.7, 638}";
}
);
hints = (
{
place = "{24, 179}";
type = Stem;
},
{
place = "{377, 176}";
type = Stem;
},
{
horizontal = 1;
place = "{-7, 153}";
type = Stem;
},
{
horizontal = 1;
place = "{355, 153}";
type = Stem;
},
{
horizontal = 1;
place = "{720, -20}";
target = down;
type = TopGhost;
}
);
layerId = "BAF31694-0472-4296-B0EA-1654553C45D2";
paths = (
{
closed = 1;
nodes = (
"372.7 468 OFFCURVE",
"319.7 507 OFFCURVE",
"245.7 507 CURVE SMOOTH",
"120.7 507 OFFCURVE",
"29.7 409 OFFCURVE",
"29.7 250 CURVE SMOOTH",
"29.7 92 OFFCURVE",
"121.7 -7 OFFCURVE",
"245.7 -7 CURVE SMOOTH",
"304.7 -7 OFFCURVE",
"360.7 25 OFFCURVE",
"383.7 63 CURVE",
"392.7 0 LINE",
"550.7 0 LINE",
"550.7 720 LINE",
"376.7 720 LINE",
"376.7 422 LINE",
"400.7 422 LINE"
);
},
{
closed = 1;
nodes = (
"206.7 313.029 OFFCURVE",
"240.676 355 OFFCURVE",
"291.7 355 CURVE SMOOTH",
"338.7 355 OFFCURVE",
"376.7 317 OFFCURVE",
"376.7 250 CURVE SMOOTH",
"376.7 182 OFFCURVE",
"338.7 146 OFFCURVE",
"291.7 146 CURVE SMOOTH",
"240.82 146 OFFCURVE",
"206.7 187.747 OFFCURVE",
"206.7 250 CURVE SMOOTH"
);
}
);
width = 600.21217;
},
{
anchors = (
{
name = bottom;
position = "{306.9, 0}";
},
{
name = center;
position = "{306.9, 250}";
},
{
name = top;
position = "{306.9, 500}";
},
{
name = topright;
position = "{594.9, 720}";
}
);
hints = (
{
place = "{13, 70}";
type = Stem;
},
{
place = "{445, 70}";
type = Stem;
},
{
horizontal = 1;
place = "{-2, 21}";
target = up;
type = BottomGhost;
},
{
horizontal = 1;
place = "{720, -20}";
target = down;
type = TopGhost;
}
);
layerId = "9F107B1E-3A61-4335-981B-27DD48125C7E";
paths = (
{
closed = 1;
nodes = (
"432.9 460 OFFCURVE",
"369.9 507 OFFCURVE",
"274.9 507 CURVE SMOOTH",
"136.9 507 OFFCURVE",
"45.9 406 OFFCURVE",
"45.9 250 CURVE SMOOTH",
"45.9 93 OFFCURVE",
"137.9 -7 OFFCURVE",
"274.9 -7 CURVE SMOOTH",
"364.9 -7 OFFCURVE",
"424.9 37 OFFCURVE",
"455.9 93 CURVE",
"460.9 0 LINE",
"534.9 0 LINE",
"534.9 720 LINE",
"454.9 720 LINE",
"454.9 398 LINE",
"462.9 399 LINE"
);
},
{
closed = 1;
nodes = (
"126.9 364.232 OFFCURVE",
"190.718 437 OFFCURVE",
"290.9 437 CURVE SMOOTH",
"384.9 437 OFFCURVE",
"454.9 367 OFFCURVE",
"454.9 250 CURVE SMOOTH",
"454.9 132 OFFCURVE",
"384.9 63 OFFCURVE",
"290.9 63 CURVE SMOOTH",
"190.28 63 OFFCURVE",
"126.9 135.268 OFFCURVE",
"126.9 250 CURVE SMOOTH"
);
}
);
width = 611.39604;
}
);
leftMetricsKey = o;
rightMetricsKey = l;
unicode = 0064;
},
{
glyphname = eth;
lastChange = "2021-09-02 18:07:14 +0000";
layers = (
{
hints = (
{
place = "{46, 117}";
type = Stem;
},
{
place = "{442, 117}";
type = Stem;
},
{
horizontal = 1;
place = "{-8, 96}";
type = Stem;
},
{
horizontal = 1;
place = "{413, 96}";
type = Stem;
}
);
layerId = "0CF0EA28-C756-4A9E-9D7C-CFEF350B4CFE";
paths = (
{
closed = 1;
nodes = (
"416.162 643.023 LINE",
"398.504 663.3 OFFCURVE",
"379.261 682.395 OFFCURVE",
"358.5 700 CURVE",
"238.5 700 LINE",
"270.857 673.353 OFFCURVE",
"299.012 643.227 OFFCURVE",
"323.351 612.548 CURVE",
"242.5 586 LINE",
"242.5 521 LINE",
"361.361 560.029 LINE",
"382.6 527.961 OFFCURVE",
"399.829 497.136 OFFCURVE",
"413.5 471 CURVE",
"378.5 496 OFFCURVE",
"339.5 509 OFFCURVE",
"286.5 509 CURVE SMOOTH",
"150.5 509 OFFCURVE",
"40.5 408 OFFCURVE",
"40.5 251 CURVE SMOOTH",
"40.5 94 OFFCURVE",
"149.5 -8 OFFCURVE",
"293.5 -8 CURVE SMOOTH",
"440.5 -8 OFFCURVE",
"553.5 92 OFFCURVE",
"553.5 287 CURVE SMOOTH",
"553.5 389.656 OFFCURVE",
"519.363 498.651 OFFCURVE",
"456.196 591.169 CURVE",
"510.5 609 LINE",
"510.5 674 LINE"
);
},
{
closed = 1;
nodes = (
"220.5 88 OFFCURVE",
"157.5 143 OFFCURVE",
"157.5 251 CURVE SMOOTH",
"157.5 359 OFFCURVE",
"222.5 413 OFFCURVE",
"294.5 413 CURVE SMOOTH",
"368.5 413 OFFCURVE",
"436.5 359 OFFCURVE",
"436.5 251 CURVE SMOOTH",
"436.5 143 OFFCURVE",
"365.5 88 OFFCURVE",
"293.5 88 CURVE SMOOTH"
);
}
);
width = 594;
},
{
hints = (
{
place = "{56, 22}";
type = Stem;
},
{
place = "{522, 22}";
type = Stem;
},
{
horizontal = 1;
place = "{-6, 21}";
target = up;
type = BottomGhost;
}
);
layerId = "6E968933-CD79-43C6-9231-80D77C940F4D";
paths = (
{
closed = 1;
nodes = (
"385.744 641.575 LINE",
"365.188 661.504 OFFCURVE",
"342.408 680.969 OFFCURVE",
"317.3 700 CURVE",
"292.3 700 LINE",
"320.137 678.142 OFFCURVE",
"344.797 656.388 OFFCURVE",
"366.64 634.622 CURVE",
"230.3 585 LINE",
"230.3 565 LINE",
"381.025 619.858 LINE",
"461.471 526.735 OFFCURVE",
"505.617 450.615 OFFCURVE",
"521.3 340 CURVE",
"483.951 461.986 OFFCURVE",
"393.3 507 OFFCURVE",
"296.3 507 CURVE SMOOTH",
"147.3 507 OFFCURVE",
"51.3 407 OFFCURVE",
"51.3 259 CURVE SMOOTH",
"51.3 99 OFFCURVE",
"143.3 -7 OFFCURVE",
"296.3 -7 CURVE SMOOTH",
"440.3 -7 OFFCURVE",
"542.3 88 OFFCURVE",
"542.3 285 CURVE SMOOTH",
"542.3 413.17 OFFCURVE",
"500.502 525.945 OFFCURVE",
"400.392 626.906 CURVE",
"513.3 668 LINE",
"513.3 688 LINE"
);
},
{
closed = 1;
nodes = (
"166.3 13 OFFCURVE",
"74.3 100 OFFCURVE",
"74.3 259 CURVE SMOOTH",
"74.3 405 OFFCURVE",
"169.3 487 OFFCURVE",
"296.3 487 CURVE SMOOTH",
"417.3 487 OFFCURVE",
"518.3 407 OFFCURVE",
"518.3 251 CURVE SMOOTH",
"518.3 100 OFFCURVE",
"420.3 13 OFFCURVE",
"296.3 13 CURVE SMOOTH"
);
}
);
width = 593.59511;
},
{
hints = (
{
place = "{20, 50}";
type = Stem;
},
{
place = "{197, 179}";
type = Stem;
},
{
horizontal = 1;
place = "{187, 170}";
type = Stem;
},
{
horizontal = 1;
place = "{172, 151}";
type = Stem;
}
);
layerId = "BAF31694-0472-4296-B0EA-1654553C45D2";
paths = (
{
closed = 1;
nodes = (
"431.073 643.4 LINE",
"415.357 664.158 OFFCURVE",
"398.503 683.214 OFFCURVE",
"380.7 700 CURVE",
"209.7 700 LINE",
"235.969 677.672 OFFCURVE",
"260.512 645.568 OFFCURVE",
"282.575 611.66 CURVE",
"232.7 601 LINE",
"232.7 530 LINE",
"320.387 548.742 LINE",
"332.878 526.651 OFFCURVE",
"344.058 505.947 OFFCURVE",
"353.7 489 CURVE",
"331.7 500 OFFCURVE",
"308.7 506 OFFCURVE",
"279.7 506 CURVE SMOOTH",
"140.7 506 OFFCURVE",
"29.7 409 OFFCURVE",
"29.7 252 CURVE SMOOTH",
"29.7 94 OFFCURVE",
"149.7 -6 OFFCURVE",
"295.7 -6 CURVE SMOOTH",
"440.7 -6 OFFCURVE",
"557.7 93 OFFCURVE",
"557.7 283 CURVE SMOOTH",
"557.7 377.059 OFFCURVE",
"525.2 488.271 OFFCURVE",
"472.028 581.154 CURVE",
"494.7 586 LINE",
"494.7 657 LINE"
);
},
{
closed = 1;
nodes = (
"252.7 144 OFFCURVE",
"208.7 177 OFFCURVE",
"208.7 251 CURVE SMOOTH",
"208.7 324 OFFCURVE",
"251.7 356 OFFCURVE",
"293.7 356 CURVE SMOOTH",
"335.7 356 OFFCURVE",
"378.7 324 OFFCURVE",
"378.7 251 CURVE SMOOTH",
"378.7 177 OFFCURVE",
"336.7 144 OFFCURVE",
"295.7 144 CURVE SMOOTH"
);
}
);
width = 587.41198;
},
{
hints = (
{
place = "{16, 68}";
type = Stem;
},
{
place = "{454, 68}";
type = Stem;
},
{
horizontal = 1;
place = "{-2, 21}";
target = up;
type = BottomGhost;
}
);
layerId = "9F107B1E-3A61-4335-981B-27DD48125C7E";
paths = (
{
closed = 1;
nodes = (
"405.829 642.659 LINE",
"387.019 662.779 OFFCURVE",
"366.375 681.955 OFFCURVE",
"343.9 700 CURVE",
"259.9 700 LINE",
"291.555 674.734 OFFCURVE",
"318.824 648.204 OFFCURVE",
"342.295 621.094 CURVE",
"238.9 586 LINE",
"238.9 538 LINE",
"372.386 583.307 LINE",
"412.226 528.791 OFFCURVE",
"438.203 473.241 OFFCURVE",
"454.9 422 CURVE",
"419.9 481 OFFCURVE",
"360.9 508 OFFCURVE",
"291.9 508 CURVE SMOOTH",
"150.9 508 OFFCURVE",
"45.9 408 OFFCURVE",
"45.9 254 CURVE SMOOTH",
"45.9 96 OFFCURVE",
"148.9 -8 OFFCURVE",
"295.9 -8 CURVE SMOOTH",
"441.9 -8 OFFCURVE",
"549.9 91 OFFCURVE",
"549.9 286 CURVE SMOOTH",
"549.9 398.109 OFFCURVE",
"512.365 510.217 OFFCURVE",
"437.695 605.474 CURVE",
"512.9 631 LINE",
"512.9 679 LINE"
);
},
{
closed = 1;
nodes = (
"201.9 60 OFFCURVE",
"127.9 127 OFFCURVE",
"127.9 254 CURVE SMOOTH",
"127.9 376 OFFCURVE",
"203.9 441 OFFCURVE",
"296.9 441 CURVE SMOOTH",
"387.9 441 OFFCURVE",
"468.9 377 OFFCURVE",
"468.9 251 CURVE SMOOTH",
"468.9 127 OFFCURVE",
"386.9 60 OFFCURVE",
"295.9 60 CURVE SMOOTH"
);
}
);
width = 595.80317;
}
);
leftMetricsKey = o;
rightMetricsKey = o;
unicode = 00F0;
},
{
glyphname = dcaron;
lastChange = "2021-09-02 18:07:14 +0000";
layers = (
{
components = (
{
name = d;
}
);
hints = (
{
place = "{588, 117}";
type = Stem;
},
{
place = "{592, 113}";
type = Stem;
},
{
place = "{635, 70}";
type = Stem;
},
{
horizontal = 1;
place = "{572, 97}";
type = Stem;
},
{
horizontal = 1;
place = "{459, 21}";
target = up;
type = BottomGhost;
}
);
layerId = "0CF0EA28-C756-4A9E-9D7C-CFEF350B4CFE";
paths = (
{
closed = 1;
nodes = (
"588 669 LINE",
"588 572 LINE",
"635 572 LINE",
"635 559 LINE SMOOTH",
"635 529 OFFCURVE",
"622 514 OFFCURVE",
"591 514 CURVE",
"591 459 LINE",
"667 459 OFFCURVE",
"705 498 OFFCURVE",
"705 575 CURVE SMOOTH",
"705 602 OFFCURVE",
"700 633 OFFCURVE",
"691 669 CURVE"
);
}
);
width = 772.5;
},
{
components = (
{
name = d;
}
);
hints = (
{
place = "{572, 57}";
type = Stem;
},
{
place = "{606, 24}";
type = Stem;
},
{
horizontal = 1;
place = "{672, -20}";
target = down;
type = TopGhost;
},
{
horizontal = 1;
place = "{547, 21}";
target = up;
type = BottomGhost;
}
);
layerId = "6E968933-CD79-43C6-9231-80D77C940F4D";
paths = (
{
closed = 1;
nodes = (
"572 686 LINE",
"572 635 LINE",
"607 635 LINE",
"607 609 LINE SMOOTH",
"607 582 OFFCURVE",
"598 568 OFFCURVE",
"565 568 CURVE",
"565 547 LINE",
"604 547 OFFCURVE",
"630 562 OFFCURVE",
"630 621 CURVE SMOOTH",
"630 638 OFFCURVE",
"629 659 OFFCURVE",
"626 686 CURVE"
);
}
);
width = 715.49957;
},
{
components = (
{
name = d;
}
);
hints = (
{
place = "{250, 50}";
type = Stem;
},
{
place = "{568, 157}";
type = Stem;
},
{
place = "{595, 130}";
type = Stem;
},
{
horizontal = 1;
place = "{528, 129}";
type = Stem;
},
{
horizontal = 1;
place = "{401, 21}";
target = up;
type = BottomGhost;
}
);
layerId = "BAF31694-0472-4296-B0EA-1654553C45D2";
paths = (
{
closed = 1;
nodes = (
"592 657 LINE",
"592 528 LINE",
"647 528 LINE",
"647 521 LINE SMOOTH",
"645 494 OFFCURVE",
"630 480 OFFCURVE",
"602 480 CURVE",
"602 401 LINE",
"703 401 OFFCURVE",
"750 460 OFFCURVE",
"750 544 CURVE SMOOTH",
"750 576 OFFCURVE",
"744 614 OFFCURVE",
"729 657 CURVE"
);
}
);
width = 799.50642;
},
{
components = (
{
name = d;
}
);
hints = (
{
place = "{611, 65}";
type = Stem;
},
{
place = "{585, 70}";
type = Stem;
},
{
horizontal = 1;
place = "{252, -20}";
target = down;
type = TopGhost;
},
{
horizontal = 1;
place = "{492, 21}";
target = up;
type = BottomGhost;
}
);
layerId = "9F107B1E-3A61-4335-981B-27DD48125C7E";
paths = (
{
closed = 1;
nodes = (
"582 675 LINE",
"582 596 LINE",
"625 596 LINE",
"625 578 LINE SMOOTH",
"625 549 OFFCURVE",
"613 534 OFFCURVE",
"581 534 CURVE",
"581 492 LINE",
"643 492 OFFCURVE",
"677 522 OFFCURVE",
"677 592 CURVE SMOOTH",
"677 616 OFFCURVE",
"673 643 OFFCURVE",
"667 675 CURVE"
);
}
);
width = 753.49984;
}
);
leftMetricsKey = d;
rightMetricsKey = d;
unicode = 010F;
},
{
glyphname = dcroat;
lastChange = "2021-09-02 18:07:14 +0000";
layers = (
{
components = (
{
name = d;
}
);
hints = (
{
horizontal = 1;
place = "{525, 69}";
type = Stem;
}
);
layerId = "0CF0EA28-C756-4A9E-9D7C-CFEF350B4CFE";
paths = (
{
closed = 1;
nodes = (
"367 525 LINE",
"608 525 LINE",
"608 594 LINE",
"367 594 LINE"
);
}
);
width = 675.5;
},
{
components = (
{
name = d;
}
);
hints = (
{
horizontal = 1;
place = "{589, 21}";
target = up;
type = BottomGhost;
},
{
horizontal = 1;
place = "{607, -20}";
target = down;
type = TopGhost;
}
);
layerId = "6E968933-CD79-43C6-9231-80D77C940F4D";
paths = (
{
closed = 1;
nodes = (
"313 600 LINE",
"584 600 LINE",
"584 619 LINE",
"313 619 LINE"
);
}
);
width = 669.50106;
},
{
components = (
{
name = d;
}
);
hints = (
{
horizontal = 1;
place = "{507, 93}";
type = Stem;
}
);
layerId = "BAF31694-0472-4296-B0EA-1654553C45D2";
paths = (
{
closed = 1;
nodes = (
"309 507 LINE",
"598 507 LINE",
"598 600 LINE",
"309 600 LINE"
);
}
);
width = 647.51415;
},
{
components = (
{
name = d;
}
);
hints = (
{
horizontal = 1;
place = "{221, 21}";
target = up;
type = BottomGhost;
},
{
horizontal = 1;
place = "{228, -20}";
target = down;
type = TopGhost;
}
);
layerId = "9F107B1E-3A61-4335-981B-27DD48125C7E";
paths = (
{
closed = 1;
nodes = (
"347 553 LINE",
"599 553 LINE",
"599 603 LINE",
"347 603 LINE"
);
}
);
width = 675.4954;
}
);
leftMetricsKey = d;
rightMetricsKey = d;
unicode = 0111;
},
{
glyphname = e;
lastChange = "2021-09-02 18:07:14 +0000";
layers = (
{
anchors = (
{
name = bottom;
position = "{285.5, 5}";
},
{
name = ogonek;
position = "{371.5, 5}";
},
{
name = right;
position = "{3073.5, 238}";
},
{
name = top;
position = "{285.5, 500}";
}
);
hints = (
{
place = "{414, 119}";
type = Stem;
},
{
horizontal = 1;
place = "{-8, 96}";
type = Stem;
},
{
horizontal = 1;
place = "{207, 92}";
type = Stem;
},
{
horizontal = 1;
place = "{413, 96}";
type = Stem;
}
);
layerId = "0CF0EA28-C756-4A9E-9D7C-CFEF350B4CFE";
paths = (
{
closed = 1;
nodes = (
"388.329 -7 OFFCURVE",
"470.96 41.14 OFFCURVE",
"510.5 121 CURVE",
"415.5 153 LINE",
"398.886 115.96 OFFCURVE",
"347.74 90 OFFCURVE",
"291.379 90 CURVE SMOOTH",
"219.259 90 OFFCURVE",
"167.463 135.606 OFFCURVE",
"158.5 207 CURVE",
"516.5 207 LINE",
"520.372 227.163 OFFCURVE",
"521.5 245 OFFCURVE",
"521.5 260.737 CURVE SMOOTH",
"521.5 406.706 OFFCURVE",
"424.075 507 OFFCURVE",
"282.281 507 CURVE SMOOTH",
"142.792 507 OFFCURVE",
"40.5 399.793 OFFCURVE",
"40.5 253.601 CURVE SMOOTH",
"40.5 100 OFFCURVE",
"143.418 -7 OFFCURVE",
"290.792 -7 CURVE SMOOTH"
);
},
{
closed = 1;
nodes = (
"159.5 299 LINE",
"173.174 366.128 OFFCURVE",
"222.949 412 OFFCURVE",
"282.114 412 CURVE SMOOTH",
"347.994 412 OFFCURVE",
"400.593 362.628 OFFCURVE",
"402.5 299 CURVE"
);
}
);
width = 562;
},
{
anchors = (
{
name = bottom;
position = "{284.3, 1}";
},
{
name = ogonek;
position = "{326.3, -3}";
},
{
name = right;
position = "{3178.3, 243}";
},
{
name = top;
position = "{284.3, 500}";
}
);
hints = (
{
place = "{59, 22}";
type = Stem;
},
{
place = "{492, 22}";
type = Stem;
},
{
horizontal = 1;
place = "{497, -20}";
target = down;
type = TopGhost;
},
{
horizontal = 1;
place = "{-6, 21}";
target = up;
type = BottomGhost;
}
);
layerId = "6E968933-CD79-43C6-9231-80D77C940F4D";
paths = (
{
closed = 1;
nodes = (
"382.326 -7 OFFCURVE",
"461.31 42.962 OFFCURVE",
"495.3 129 CURVE",
"477.3 136 LINE",
"445.287 57.969 OFFCURVE",
"373.263 13 OFFCURVE",
"280.3 13 CURVE SMOOTH",
"159.427 13 OFFCURVE",
"75.055 109.599 OFFCURVE",
"73.3 250 CURVE",
"502.3 250 LINE",
"503.095 265.812 OFFCURVE",
"502.3 281 OFFCURVE",
"502.3 291 CURVE SMOOTH",
"502.3 414.5 OFFCURVE",
"407.231 507 OFFCURVE",
"280.3 507 CURVE SMOOTH",
"145.645 507 OFFCURVE",
"51.3 403.179 OFFCURVE",
"51.3 255 CURVE SMOOTH",
"51.3 99.273 OFFCURVE",
"144.187 -7 OFFCURVE",
"280.3 -7 CURVE SMOOTH"
);
},
{
closed = 1;
nodes = (
"73.3 270 LINE",
"77.689 396.395 OFFCURVE",
"164.118 487 OFFCURVE",
"280.3 487 CURVE SMOOTH",
"402.904 487 OFFCURVE",
"484.038 398.97 OFFCURVE",
"480.3 270 CURVE"
);
}
);
width = 553.95702;
},
{
anchors = (
{
name = bottom;
position = "{280.7, 8}";
},
{
name = ogonek;
position = "{362.7, 7}";
},
{
name = right;
position = "{2967.7, 236}";
},
{
name = top;
position = "{280.7, 500}";
}
);
hints = (
{
place = "{176, 51}";
type = Stem;
},
{
horizontal = 1;
place = "{-7, 142}";
type = Stem;
},
{
horizontal = 1;
place = "{205, 104}";
type = Stem;
},
{
horizontal = 1;
place = "{370, 138}";
type = Stem;
}
);
layerId = "BAF31694-0472-4296-B0EA-1654553C45D2";
paths = (
{
closed = 1;
nodes = (
"397.817 -6.756 OFFCURVE",
"481.017 44.999 OFFCURVE",
"520.7 139 CURVE",
"372.7 176 LINE",
"357.214 148.129 OFFCURVE",
"329.951 133 OFFCURVE",
"295.212 133 CURVE SMOOTH",
"248.476 133 OFFCURVE",
"215.442 159.643 OFFCURVE",
"204.7 206 CURVE",
"523.7 206 LINE",
"526.773 227.614 OFFCURVE",
"527.7 244 OFFCURVE",
"527.7 258.714 CURVE SMOOTH",
"527.7 409.669 OFFCURVE",
"429.698 507 OFFCURVE",
"277.703 507 CURVE SMOOTH",
"131.853 507 OFFCURVE",
"29.7 403.378 OFFCURVE",
"29.7 255.432 CURVE SMOOTH",
"29.7 95.965 OFFCURVE",
"130.266 -6.756 OFFCURVE",
"286.386 -6.756 CURVE SMOOTH"
);
},
{
closed = 1;
nodes = (
"206.7 302 LINE",
"212.097 342.112 OFFCURVE",
"242.12 370.901 OFFCURVE",
"279.7 372 CURVE SMOOTH",
"318.192 373.126 OFFCURVE",
"346.662 344.243 OFFCURVE",
"348.7 302 CURVE"
);
}
);
width = 557.41104;
},
{
anchors = (
{
name = bottom;
position = "{285.9, 4}";
},
{
name = ogonek;
position = "{355.9, 2}";
},
{
name = right;
position = "{3113.9, 240}";
},
{
name = top;
position = "{285.9, 500}";
}
);
hints = (
{
place = "{152, 66}";
type = Stem;
},
{
place = "{443, 68}";
type = Stem;
},
{
horizontal = 1;
place = "{186, -20}";
target = down;
type = TopGhost;
},
{
horizontal = 1;
place = "{-2, 21}";
target = up;
type = BottomGhost;
}
);
layerId = "9F107B1E-3A61-4335-981B-27DD48125C7E";
paths = (
{
closed = 1;
nodes = (
"388.4 -7 OFFCURVE",
"467.368 39.663 OFFCURVE",
"506.9 123 CURVE",
"441.9 149 LINE",
"418.137 93.871 OFFCURVE",
"362.965 64 OFFCURVE",
"284.9 64 CURVE SMOOTH",
"197.875 64 OFFCURVE",
"132.384 130.743 OFFCURVE",
"127.9 224 CURVE",
"514.9 224 LINE",
"516.86 242.348 OFFCURVE",
"517.429 258.695 OFFCURVE",
"517.9 273 CURVE SMOOTH",
"522.382 409.229 OFFCURVE",
"420.624 507 OFFCURVE",
"284.9 507 CURVE SMOOTH",
"146.717 507 OFFCURVE",
"45.9 400.699 OFFCURVE",
"45.9 255 CURVE SMOOTH",
"45.9 102.988 OFFCURVE",
"147.072 -7 OFFCURVE",
"286.9 -7 CURVE SMOOTH"
);
},
{
closed = 1;
nodes = (
"128.9 289 LINE",
"137.135 373.176 OFFCURVE",
"202.522 436 OFFCURVE",
"281.9 436 CURVE SMOOTH",
"373.114 436 OFFCURVE",
"437.735 374.317 OFFCURVE",
"435.9 289 CURVE"
);
}
);
width = 563.94263;
}
);
leftMetricsKey = o;
rightMetricsKey = o;
unicode = 0065;
},
{
glyphname = f;
lastChange = "2021-09-02 15:54:38 +0000";
layers = (
{
hints = (
{
place = "{94, 115}";
type = Stem;
},
{
place = "{94, 199}";
type = Stem;
},
{
horizontal = 1;
place = "{400, 99}";
type = Stem;
},
{
horizontal = 1;
place = "{0, 21}";
target = up;
type = BottomGhost;
}
);
layerId = "0CF0EA28-C756-4A9E-9D7C-CFEF350B4CFE";
paths = (
{
closed = 1;
nodes = (
"91.37 500 LINE",
"30.37 500 LINE",
"30.37 405 LINE",
"91.37 405 LINE",
"91.37 0 LINE",
"205.37 0 LINE",
"205.37 405 LINE",
"296.37 405 LINE",
"296.37 500 LINE",
"205.37 500 LINE",
"205.37 553 LINE SMOOTH",
"205.37 606 OFFCURVE",
"226.37 632 OFFCURVE",
"289.37 626 CURVE",
"289.37 720 LINE",
"152.37 734 OFFCURVE",
"91.37 670 OFFCURVE",
"91.37 553 CURVE SMOOTH"
);
}
);
width = 326.74;
},
{
hints = (
{
place = "{128, 22}";
type = Stem;
},
{
horizontal = 1;
place = "{472, 25}";
type = Stem;
},
{
horizontal = 1;
place = "{498, 198}";
type = Stem;
},
{
horizontal = 1;
place = "{0, 21}";
target = up;
type = BottomGhost;
}
);
layerId = "6E968933-CD79-43C6-9231-80D77C940F4D";
paths = (
{
closed = 1;
nodes = (
"124.48 500 LINE",
"38.48 500 LINE",
"38.48 478 LINE",
"124.48 478 LINE",
"124.48 0 LINE",
"146.48 0 LINE",
"146.48 478 LINE",
"288.48 478 LINE",
"288.48 500 LINE",
"146.48 500 LINE",
"146.48 569 LINE SMOOTH",
"146.48 657 OFFCURVE",
"179.48 706 OFFCURVE",
"288.48 698 CURVE",
"288.48 719 LINE",
"165.48 729 OFFCURVE",
"124.48 667 OFFCURVE",
"124.48 569 CURVE SMOOTH"
);
}
);
width = 326.95372;
},
{
hints = (
{
place = "{40, 49}";
type = Stem;
},
{
place = "{76, 212}";
type = Stem;
},
{
horizontal = 1;
place = "{352, 148}";
type = Stem;
},
{
horizontal = 1;
place = "{0, 21}";
target = up;
type = BottomGhost;
}
);
layerId = "BAF31694-0472-4296-B0EA-1654553C45D2";
paths = (
{
closed = 1;
nodes = (
"78.275 500 LINE",
"22.275 500 LINE",
"22.275 354 LINE",
"78.275 354 LINE",
"78.275 0 LINE",
"252.275 0 LINE",
"252.275 354 LINE",
"331.275 354 LINE",
"331.275 500 LINE",
"252.275 500 LINE",
"252.275 513 LINE SMOOTH",
"252.275 560 OFFCURVE",
"278.275 581 OFFCURVE",
"328.275 573 CURVE",
"328.275 720 LINE",
"180.275 737 OFFCURVE",
"78.275 682 OFFCURVE",
"78.275 529 CURVE SMOOTH"
);
}
);
width = 353.55007;
},
{
hints = (
{
place = "{107, 80}";
type = Stem;
},
{
horizontal = 1;
place = "{236, 134}";
type = Stem;
},
{
horizontal = 1;
place = "{437, 136}";
type = Stem;
},
{
horizontal = 1;
place = "{0, 21}";
target = up;
type = BottomGhost;
}
);
layerId = "9F107B1E-3A61-4335-981B-27DD48125C7E";
paths = (
{
closed = 1;
nodes = (
"104.425 500 LINE",
"34.425 500 LINE",
"34.425 430 LINE",
"104.425 430 LINE",
"104.425 0 LINE",
"184.425 0 LINE",
"184.425 430 LINE",
"294.425 430 LINE",
"294.425 500 LINE",
"184.425 500 LINE",
"184.425 559 LINE SMOOTH",
"184.425 625 OFFCURVE",
"210.425 660 OFFCURVE",
"290.425 653 CURVE",
"290.425 720 LINE",
"158.425 730 OFFCURVE",
"104.425 669 OFFCURVE",
"104.425 559 CURVE SMOOTH"
);
}
);
width = 328.84958;
}
);
leftMetricsKey = "=l*0.45";
rightMetricsKey = "=l*0.45";
unicode = 0066;
},
{
glyphname = g;
lastChange = "2021-09-02 18:07:14 +0000";
layers = (
{
anchors = (
{
name = top;
position = "{298.5, 500}";
}
);
hints = (
{
place = "{46, 117}";
type = Stem;
},
{
place = "{438, 115}";
type = Stem;
},
{
horizontal = 1;
place = "{-200, 96}";
type = Stem;
},
{
horizontal = 1;
place = "{-8, 98}";
type = Stem;
},
{
horizontal = 1;
place = "{410, 98}";
type = Stem;
}
);
layerId = "0CF0EA28-C756-4A9E-9D7C-CFEF350B4CFE";
paths = (
{
closed = 1;
nodes = (
"427.5 438 LINE",
"398.5 476 OFFCURVE",
"340.5 507 OFFCURVE",
"266.5 507 CURVE SMOOTH",
"133.5 507 OFFCURVE",
"40.5 404 OFFCURVE",
"40.5 250 CURVE SMOOTH",
"40.5 95 OFFCURVE",
"133.5 -7 OFFCURVE",
"266.5 -7 CURVE",
"347.5 -7 OFFCURVE",
"406.5 30 OFFCURVE",
"437.5 75 CURVE",
"425.5 76 LINE",
"425.5 75 LINE SMOOTH",
"425.5 -39.891 OFFCURVE",
"335.415 -102.364 OFFCURVE",
"164.5 -106 CURVE",
"181.5 -200 LINE",
"403.116 -200 OFFCURVE",
"539.5 -95.236 OFFCURVE",
"539.5 75 CURVE SMOOTH",
"539.5 500 LINE",
"435.5 500 LINE"
);
},
{
closed = 1;
nodes = (
"156.5 345.426 OFFCURVE",
"210.877 409 OFFCURVE",
"292.5 409 CURVE SMOOTH",
"363.5 409 OFFCURVE",
"425.5 352 OFFCURVE",
"425.5 250 CURVE SMOOTH",
"425.5 151 OFFCURVE",
"365.5 91 OFFCURVE",
"292.5 91 CURVE SMOOTH",
"211.094 91 OFFCURVE",
"156.5 154.827 OFFCURVE",
"156.5 250 CURVE SMOOTH"
);
}
);
width = 607;
},
{
anchors = (
{
name = top;
position = "{284.3, 500}";
}
);
hints = (
{
place = "{52, 22}";
type = Stem;
},
{
place = "{503, 22}";
type = Stem;
},
{
horizontal = 1;
place = "{-187, 210}";
type = Stem;
},
{
horizontal = 1;
place = "{497, -20}";
target = down;
type = TopGhost;
}
);
layerId = "6E968933-CD79-43C6-9231-80D77C940F4D";
paths = (
{
closed = 1;
nodes = (
"493.3 357 LINE",
"469.894 437.196 OFFCURVE",
"403.3 507 OFFCURVE",
"283.3 507 CURVE SMOOTH",
"142.3 507 OFFCURVE",
"51.3 406 OFFCURVE",
"51.3 250 CURVE SMOOTH",
"51.3 93 OFFCURVE",
"142.3 -7 OFFCURVE",
"283.3 -7 CURVE",
"401.3 -5 OFFCURVE",
"469.192 62.335 OFFCURVE",
"494.3 147 CURVE",
"493.3 147 LINE",
"493.3 117 LINE SMOOTH",
"493.3 -74.954 OFFCURVE",
"378.621 -178.795 OFFCURVE",
"165.3 -180 CURVE",
"168.3 -200 LINE",
"390.562 -200 OFFCURVE",
"515.3 -86.046 OFFCURVE",
"515.3 117 CURVE SMOOTH",
"515.3 500 LINE",
"493.3 500 LINE"
);
},
{
closed = 1;
nodes = (
"73.3 395.783 OFFCURVE",
"154.895 487 OFFCURVE",
"285.3 487 CURVE SMOOTH",
"410.3 487 OFFCURVE",
"493.3 390 OFFCURVE",
"493.3 250 CURVE SMOOTH",
"493.3 111 OFFCURVE",
"410.3 13 OFFCURVE",
"285.3 13 CURVE SMOOTH",
"154.448 13 OFFCURVE",
"73.3 103.717 OFFCURVE",
"73.3 250 CURVE SMOOTH"
);
}
);
width = 600.8034;
},
{
anchors = (
{
name = top;
position = "{303.7, 500}";
}
);
hints = (
{
place = "{29, 179}";
type = Stem;
},
{
place = "{382, 176}";
type = Stem;
},
{
horizontal = 1;
place = "{-201, 136}";
type = Stem;
},
{
horizontal = 1;
place = "{-7, 153}";
type = Stem;
},
{
horizontal = 1;
place = "{355, 153}";
type = Stem;
}
);
layerId = "BAF31694-0472-4296-B0EA-1654553C45D2";
paths = (
{
closed = 1;
nodes = (
"383.7 437 LINE",
"357.7 476 OFFCURVE",
"306.7 507 OFFCURVE",
"245.7 507 CURVE SMOOTH",
"121.7 507 OFFCURVE",
"29.7 409 OFFCURVE",
"29.7 250 CURVE SMOOTH",
"29.7 92 OFFCURVE",
"121.7 -7 OFFCURVE",
"245.7 -7 CURVE",
"320.7 -7 OFFCURVE",
"373.7 33 OFFCURVE",
"402.7 80 CURVE",
"376.7 61 LINE",
"376.7 59 LINE SMOOTH",
"376.7 -22.894 OFFCURVE",
"301.868 -66 OFFCURVE",
"159.7 -66 CURVE",
"183.7 -200 LINE",
"414.29 -200 OFFCURVE",
"550.7 -99.272 OFFCURVE",
"550.7 71 CURVE SMOOTH",
"550.7 500 LINE",
"392.7 500 LINE"
);
},
{
closed = 1;
nodes = (
"206.7 312.419 OFFCURVE",
"241.085 354 OFFCURVE",
"292.7 354 CURVE SMOOTH",
"336.7 354 OFFCURVE",
"376.7 317 OFFCURVE",
"376.7 250 CURVE SMOOTH",
"376.7 183 OFFCURVE",
"336.7 145 OFFCURVE",
"291.7 145 CURVE SMOOTH",
"241.081 145 OFFCURVE",
"206.7 187.471 OFFCURVE",
"206.7 250 CURVE SMOOTH"
);
}
);
width = 600.21142;
},
{
anchors = (
{
name = top;
position = "{297.9, 500}";
}
);
hints = (
{
place = "{-106, 68}";
type = Stem;
},
{
place = "{184, 70}";
type = Stem;
},
{
horizontal = 1;
place = "{186, 140}";
type = Stem;
},
{
horizontal = 1;
place = "{186, -20}";
target = down;
type = TopGhost;
}
);
layerId = "9F107B1E-3A61-4335-981B-27DD48125C7E";
paths = (
{
closed = 1;
nodes = (
"455.9 407 LINE",
"423.9 463 OFFCURVE",
"365.9 507 OFFCURVE",
"274.9 507 CURVE SMOOTH",
"137.9 507 OFFCURVE",
"45.9 406 OFFCURVE",
"45.9 250 CURVE SMOOTH",
"45.9 93 OFFCURVE",
"137.9 -7 OFFCURVE",
"274.9 -7 CURVE",
"372.9 -6 OFFCURVE",
"432.9 42 OFFCURVE",
"462.9 101 CURVE",
"454.9 103 LINE",
"454.9 92 LINE SMOOTH",
"454.9 -51.995 OFFCURVE",
"356.31 -128.6 OFFCURVE",
"167.9 -131 CURVE",
"179.9 -200 LINE",
"403.407 -200 OFFCURVE",
"534.9 -91.842 OFFCURVE",
"534.9 92 CURVE SMOOTH",
"534.9 500 LINE",
"460.9 500 LINE"
);
},
{
closed = 1;
nodes = (
"126.9 363.9 OFFCURVE",
"191.4 437 OFFCURVE",
"291.9 437 CURVE SMOOTH",
"384.9 437 OFFCURVE",
"454.9 367 OFFCURVE",
"454.9 250 CURVE SMOOTH",
"454.9 132 OFFCURVE",
"384.9 63 OFFCURVE",
"291.9 63 CURVE SMOOTH",
"190.959 63 OFFCURVE",
"126.9 135.6 OFFCURVE",
"126.9 250 CURVE SMOOTH"
);
}
);
width = 611.39628;
}
);
leftMetricsKey = o;
rightMetricsKey = l;
unicode = 0067;
},
{
glyphname = gcommaaccent;
lastChange = "2021-09-02 18:07:14 +0000";
layers = (
{
components = (
{
name = g;
}
);
hints = (
{
place = "{218, 70}";
type = Stem;
},
{
place = "{218, 116}";
type = Stem;
},
{
place = "{218, 112}";
type = Stem;
},
{
horizontal = 1;
place = "{531, 97}";
type = Stem;
},
{
horizontal = 1;
place = "{741, -20}";
target = down;
type = TopGhost;
}
);
layerId = "0CF0EA28-C756-4A9E-9D7C-CFEF350B4CFE";
paths = (
{
closed = 1;
nodes = (
"353 541 LINE",
"353 638 LINE",
"307 638 LINE",
"307 651 LINE SMOOTH",
"307 681 OFFCURVE",
"320 696 OFFCURVE",
"350 696 CURVE",
"350 751 LINE",
"276 751 OFFCURVE",
"238 712 OFFCURVE",
"238 635 CURVE SMOOTH",
"238 609 OFFCURVE",
"241 578 OFFCURVE",
"250 541 CURVE"
);
}
);
width = 607;
},
{
components = (
{
name = g;
}
);
hints = (
{
place = "{287, 24}";
type = Stem;
},
{
place = "{293, 58}";
type = Stem;
},
{
horizontal = 1;
place = "{537, 21}";
target = up;
type = BottomGhost;
},
{
horizontal = 1;
place = "{688, -20}";
target = down;
type = TopGhost;
}
);
layerId = "6E968933-CD79-43C6-9231-80D77C940F4D";
paths = (
{
closed = 1;
nodes = (
"344 549 LINE",
"344 600 LINE",
"309 600 LINE",
"309 626 LINE SMOOTH",
"309 653 OFFCURVE",
"318 667 OFFCURVE",
"351 667 CURVE",
"351 688 LINE",
"312 688 OFFCURVE",
"286 673 OFFCURVE",
"286 614 CURVE SMOOTH",
"286 597 OFFCURVE",
"287 576 OFFCURVE",
"290 549 CURVE"
);
}
);
width = 600.80319;
},
{
components = (
{
name = g;
}
);
hints = (
{
place = "{93, 30}";
type = Stem;
},
{
place = "{216, 157}";
type = Stem;
},
{
place = "{216, 148}";
type = Stem;
},
{
horizontal = 1;
place = "{513, 129}";
type = Stem;
},
{
horizontal = 1;
place = "{769, -20}";
target = down;
type = TopGhost;
}
);
layerId = "BAF31694-0472-4296-B0EA-1654553C45D2";
paths = (
{
closed = 1;
nodes = (
"373 539 LINE",
"373 668 LINE",
"319 668 LINE",
"321 683 LINE SMOOTH",
"325 706 OFFCURVE",
"339 717 OFFCURVE",
"363 717 CURVE",
"363 795 LINE",
"263 795 OFFCURVE",
"216 736 OFFCURVE",
"216 652 CURVE SMOOTH",
"216 621 OFFCURVE",
"222 583 OFFCURVE",
"236 539 CURVE"
);
}
);
width = 600.21142;
},
{
components = (
{
name = g;
}
);
hints = (
{
place = "{244, 82}";
type = Stem;
},
{
place = "{442, 82}";
type = Stem;
},
{
horizontal = 1;
place = "{201, 21}";
target = up;
type = BottomGhost;
},
{
horizontal = 1;
place = "{721, -20}";
target = down;
type = TopGhost;
}
);
layerId = "9F107B1E-3A61-4335-981B-27DD48125C7E";
paths = (
{
closed = 1;
nodes = (
"347 538 LINE",
"347 618 LINE",
"305 618 LINE",
"305 635 LINE SMOOTH",
"305 664 OFFCURVE",
"317 679 OFFCURVE",
"348 679 CURVE",
"348 721 LINE",
"287 721 OFFCURVE",
"254 691 OFFCURVE",
"254 621 CURVE SMOOTH",
"254 598 OFFCURVE",
"256 571 OFFCURVE",
"263 538 CURVE"
);
}
);
width = 611.3962;
}
);
leftMetricsKey = g;
rightMetricsKey = g;
unicode = 0123;
},
{
glyphname = h;
lastChange = "2021-09-02 18:08:03 +0000";
layers = (
{
hints = (
{
place = "{77, 114}";
type = Stem;
},
{
place = "{411, 113}";
type = Stem;
},
{
horizontal = 1;
place = "{410, 98}";
type = Stem;
},
{
horizontal = 1;
place = "{720, -20}";
target = down;
type = TopGhost;
},
{
horizontal = 1;
place = "{0, 21}";
target = up;
type = BottomGhost;
}
);
layerId = "0CF0EA28-C756-4A9E-9D7C-CFEF350B4CFE";
paths = (
{
closed = 1;
nodes = (
"67.5 0 LINE",
"181.5 0 LINE",
"181.5 276 LINE SMOOTH",
"181.5 363 OFFCURVE",
"220.5 408 OFFCURVE",
"290.5 408 CURVE SMOOTH",
"360.5 408 OFFCURVE",
"394.5 364 OFFCURVE",
"394.5 277 CURVE SMOOTH",
"394.5 0 LINE",
"507.5 0 LINE",
"507.5 292 LINE SMOOTH",
"507.5 433 OFFCURVE",
"432.5 507 OFFCURVE",
"319.5 507 CURVE SMOOTH",
"262.935 507 OFFCURVE",
"214.633 487.581 OFFCURVE",
"181.5 454.585 CURVE",
"181.5 720 LINE",
"67.5 720 LINE"
);
}
);
width = 568.25;
},
{
hints = (
{
place = "{102, 22}";
type = Stem;
},
{
horizontal = 1;
place = "{720, -20}";
target = down;
type = TopGhost;
},
{
horizontal = 1;
place = "{0, 21}";
target = up;
type = BottomGhost;
}
);
layerId = "6E968933-CD79-43C6-9231-80D77C940F4D";
paths = (
{
closed = 1;
nodes = (
"85.5 0 LINE",
"107.5 0 LINE",
"107.5 251 LINE SMOOTH",
"107.5 405 OFFCURVE",
"180.5 487 OFFCURVE",
"292.5 487 CURVE SMOOTH",
"401.5 487 OFFCURVE",
"462.5 414 OFFCURVE",
"462.5 282 CURVE SMOOTH",
"462.5 0 LINE",
"484.5 0 LINE",
"484.5 281 LINE SMOOTH",
"484.5 441 OFFCURVE",
"403.5 507 OFFCURVE",
"293.5 507 CURVE SMOOTH",
"202.718 507 OFFCURVE",
"132.052 460.525 OFFCURVE",
"107.5 368.73 CURVE",
"107.5 720 LINE",
"85.5 720 LINE"
);
}
);
width = 561.44979;
},
{
hints = (
{
place = "{33, 48}";
type = Stem;
},
{
place = "{191, 176}";
type = Stem;
},
{
horizontal = 1;
place = "{373, 169}";
type = Stem;
},
{
horizontal = 1;
place = "{720, -20}";
target = down;
type = TopGhost;
},
{
horizontal = 1;
place = "{0, 21}";
target = up;
type = BottomGhost;
}
);
layerId = "BAF31694-0472-4296-B0EA-1654553C45D2";
paths = (
{
closed = 1;
nodes = (
"49.5 0 LINE",
"223.5 0 LINE",
"223.5 260 LINE SMOOTH",
"223.5 318 OFFCURVE",
"248.5 360 OFFCURVE",
"295.5 360 CURVE SMOOTH",
"342.5 360 OFFCURVE",
"366.5 329 OFFCURVE",
"366.5 272 CURVE SMOOTH",
"366.5 0 LINE",
"540.5 0 LINE",
"540.5 292 LINE SMOOTH",
"540.5 427 OFFCURVE",
"470.5 507 OFFCURVE",
"353.5 507 CURVE SMOOTH",
"297.258 507 OFFCURVE",
"254.004 479.88 OFFCURVE",
"223.5 444.289 CURVE",
"223.5 720 LINE",
"49.5 720 LINE"
);
}
);
width = 585.06717;
},
{
hints = (
{
place = "{295, 70}";
type = Stem;
},
{
horizontal = 1;
place = "{720, -20}";
target = down;
type = TopGhost;
},
{
horizontal = 1;
place = "{0, 21}";
target = up;
type = BottomGhost;
}
);
layerId = "9F107B1E-3A61-4335-981B-27DD48125C7E";
paths = (
{
closed = 1;
nodes = (
"76.5 0 LINE",
"156.5 0 LINE",
"156.5 266 LINE SMOOTH",
"156.5 378 OFFCURVE",
"208.5 438 OFFCURVE",
"294.5 438 CURVE SMOOTH",
"379.5 438 OFFCURVE",
"423.5 381 OFFCURVE",
"423.5 277 CURVE SMOOTH",
"423.5 0 LINE",
"503.5 0 LINE",
"503.5 286 LINE SMOOTH",
"503.5 432 OFFCURVE",
"424.5 507 OFFCURVE",
"313.5 507 CURVE SMOOTH",
"246.241 507 OFFCURVE",
"189.781 480.002 OFFCURVE",
"156.5 431.51 CURVE",
"156.5 720 LINE",
"76.5 720 LINE"
);
}
);
width = 572.35242;
}
);
leftMetricsKey = l;
rightMetricsKey = n;
unicode = 0068;
},
{
glyphname = i;
lastChange = "2021-09-02 15:54:38 +0000";
layers = (
{
anchors = (
{
name = ogonek;
position = "{187.5, 6}";
}
);
hints = (
{
place = "{76, 142}";
type = Stem;
},
{
place = "{90, 114}";
type = Stem;
},
{
horizontal = 1;
place = "{579, 140}";
type = Stem;
},
{
horizontal = 1;
place = "{0, 21}";
target = up;
type = BottomGhost;
}
);
layerId = "0CF0EA28-C756-4A9E-9D7C-CFEF350B4CFE";
paths = (
{
closed = 1;
nodes = (
"80.5 0 LINE",
"194.5 0 LINE",
"194.5 500 LINE",
"80.5 500 LINE"
);
},
{
closed = 1;
nodes = (
"177.5 579 OFFCURVE",
"208.5 610 OFFCURVE",
"208.5 649 CURVE SMOOTH",
"208.5 689 OFFCURVE",
"177.5 720 OFFCURVE",
"138.5 720 CURVE SMOOTH",
"98.5 720 OFFCURVE",
"67.5 689 OFFCURVE",
"67.5 649 CURVE SMOOTH",
"67.5 610 OFFCURVE",
"98.5 579 OFFCURVE",
"138.5 579 CURVE SMOOTH"
);
}
);
width = 276;
},
{
anchors = (
{
name = ogonek;
position = "{117.5, 1}";
}
);
hints = (
{
place = "{95, 44}";
type = Stem;
},
{
place = "{116, 23}";
type = Stem;
},
{
horizontal = 1;
place = "{666, -20}";
target = down;
type = TopGhost;
},
{
horizontal = 1;
place = "{0, 21}";
target = up;
type = BottomGhost;
}
);
layerId = "6E968933-CD79-43C6-9231-80D77C940F4D";
paths = (
{
closed = 1;
nodes = (
"96.5 0 LINE",
"118.5 0 LINE",
"118.5 500 LINE",
"96.5 500 LINE"
);
},
{
closed = 1;
nodes = (
"119.5 635 OFFCURVE",
"129.5 643 OFFCURVE",
"129.5 657 CURVE SMOOTH",
"129.5 672 OFFCURVE",
"119.5 680 OFFCURVE",
"107.5 680 CURVE SMOOTH",
"95.5 680 OFFCURVE",
"85.5 672 OFFCURVE",
"85.5 657 CURVE SMOOTH",
"85.5 643 OFFCURVE",
"95.5 635 OFFCURVE",
"107.5 635 CURVE SMOOTH"
);
}
);
width = 215.00319;
},
{
anchors = (
{
name = ogonek;
position = "{225.5, 11}";
}
);
hints = (
{
place = "{48, 204}";
type = Stem;
},
{
place = "{62, 176}";
type = Stem;
},
{
horizontal = 1;
place = "{538, 183}";
type = Stem;
},
{
horizontal = 1;
place = "{0, 21}";
target = up;
type = BottomGhost;
}
);
layerId = "BAF31694-0472-4296-B0EA-1654553C45D2";
paths = (
{
closed = 1;
nodes = (
"63.5 0 LINE",
"237.5 0 LINE",
"237.5 500 LINE",
"63.5 500 LINE"
);
},
{
closed = 1;
nodes = (
"212.5 537 OFFCURVE",
"253.5 577 OFFCURVE",
"253.5 628 CURVE SMOOTH",
"253.5 680 OFFCURVE",
"212.5 720 OFFCURVE",
"151.5 720 CURVE SMOOTH",
"90.5 720 OFFCURVE",
"49.5 680 OFFCURVE",
"49.5 628 CURVE SMOOTH",
"49.5 577 OFFCURVE",
"90.5 537 OFFCURVE",
"151.5 537 CURVE SMOOTH"
);
}
);
width = 303.00896;
},
{
anchors = (
{
name = ogonek;
position = "{163.5, 4}";
}
);
hints = (
{
place = "{92, 88}";
type = Stem;
},
{
place = "{405, 96}";
type = Stem;
},
{
horizontal = 1;
place = "{250, -20}";
target = down;
type = TopGhost;
},
{
horizontal = 1;
place = "{0, 21}";
target = up;
type = BottomGhost;
}
);
layerId = "9F107B1E-3A61-4335-981B-27DD48125C7E";
paths = (
{
closed = 1;
nodes = (
"89.5 0 LINE",
"168.5 0 LINE",
"168.5 500 LINE",
"89.5 500 LINE"
);
},
{
closed = 1;
nodes = (
"158.5 600 OFFCURVE",
"181.5 623 OFFCURVE",
"181.5 652 CURVE SMOOTH",
"181.5 683 OFFCURVE",
"158.5 705 OFFCURVE",
"129.5 705 CURVE SMOOTH",
"99.5 705 OFFCURVE",
"76.5 683 OFFCURVE",
"76.5 652 CURVE SMOOTH",
"76.5 623 OFFCURVE",
"99.5 600 OFFCURVE",
"129.5 600 CURVE SMOOTH"
);
}
);
width = 258.0012;
}
);
leftMetricsKey = l;
rightMetricsKey = l;
unicode = 0069;
},
{
glyphname = idotless;
lastChange = "2021-09-02 09:18:01 +0000";
layers = (
{
anchors = (
{
name = ogonek;
position = "{218.5, 14}";
},
{
name = top;
position = "{124.5, 496}";
}
);
hints = (
{
place = "{77, 114}";
type = Stem;
},
{
horizontal = 1;
place = "{0, 21}";
target = up;
type = BottomGhost;
},
{
horizontal = 1;
place = "{501, -20}";
target = down;
type = TopGhost;
}
);
layerId = "0CF0EA28-C756-4A9E-9D7C-CFEF350B4CFE";
paths = (
{
closed = 1;
nodes = (
"67.5 0 LINE",
"181.5 0 LINE",
"181.5 500 LINE",
"67.5 500 LINE"
);
}
);
width = 249;
},
{
anchors = (
{
name = ogonek;
position = "{160.5, 10}";
},
{
name = top;
position = "{96.5, 501}";
}
);
hints = (
{
place = "{95, 22}";
type = Stem;
},
{
horizontal = 1;
place = "{0, 21}";
target = up;
type = BottomGhost;
},
{
horizontal = 1;
place = "{501, -20}";
target = down;
type = TopGhost;
}
);
layerId = "6E968933-CD79-43C6-9231-80D77C940F4D";
paths = (
{
closed = 1;
nodes = (
"85.5 0 LINE",
"107.5 0 LINE",
"107.5 500 LINE",
"85.5 500 LINE"
);
}
);
width = 193.00404;
},
{
anchors = (
{
name = ogonek;
position = "{249.5, 20}";
},
{
name = top;
position = "{137.5, 490}";
}
);
hints = (
{
place = "{49, 176}";
type = Stem;
},
{
horizontal = 1;
place = "{0, 21}";
target = up;
type = BottomGhost;
},
{
horizontal = 1;
place = "{501, -20}";
target = down;
type = TopGhost;
}
);
layerId = "BAF31694-0472-4296-B0EA-1654553C45D2";
paths = (
{
closed = 1;
nodes = (
"49.5 0 LINE",
"225.5 0 LINE",
"225.5 500 LINE",
"49.5 500 LINE"
);
}
);
width = 275.00925;
},
{
anchors = (
{
name = ogonek;
position = "{199.5, 13}";
},
{
name = top;
position = "{116.5, 498}";
}
);
hints = (
{
place = "{84, 80}";
type = Stem;
},
{
horizontal = 1;
place = "{0, 21}";
target = up;
type = BottomGhost;
},
{
horizontal = 1;
place = "{501, -20}";
target = down;
type = TopGhost;
}
);
layerId = "9F107B1E-3A61-4335-981B-27DD48125C7E";
paths = (
{
closed = 1;
nodes = (
"76.5 0 LINE",
"156.5 0 LINE",
"156.5 500 LINE",
"76.5 500 LINE"
);
}
);
width = 232.99651;
}
);
leftMetricsKey = l;
rightMetricsKey = l;
unicode = 0131;
},
{
glyphname = j;
lastChange = "2021-09-02 15:54:38 +0000";
layers = (
{
hints = (
{
place = "{81, 142}";
type = Stem;
},
{
place = "{95, 114}";
type = Stem;
},
{
horizontal = 1;
place = "{579, 140}";
type = Stem;
}
);
layerId = "0CF0EA28-C756-4A9E-9D7C-CFEF350B4CFE";
leftMetricsKey = "=l*-0.35";
paths = (
{
closed = 1;
nodes = (
"94.375 500 LINE",
"208.375 500 LINE",
"208.375 32 LINE SMOOTH",
"208.375 -124 OFFCURVE",
"101.375 -197 OFFCURVE",
"-6.625 -200 CURVE",
"-23.625 -107 LINE",
"53.375 -100 OFFCURVE",
"94.375 -47 OFFCURVE",
"94.375 33 CURVE SMOOTH"
);
},
{
closed = 1;
nodes = (
"191.375 579 OFFCURVE",
"222.375 610 OFFCURVE",
"222.375 649 CURVE SMOOTH",
"222.375 689 OFFCURVE",
"191.375 720 OFFCURVE",
"151.375 720 CURVE SMOOTH",
"111.375 720 OFFCURVE",
"80.375 689 OFFCURVE",
"80.375 649 CURVE SMOOTH",
"80.375 610 OFFCURVE",
"111.375 579 OFFCURVE",
"151.375 579 CURVE SMOOTH"
);
}
);
width = 286.505;
},
{
hints = (
{
place = "{106, 44}";
type = Stem;
},
{
place = "{124, 23}";
type = Stem;
},
{
horizontal = 1;
place = "{666, -20}";
target = down;
type = TopGhost;
}
);
layerId = "6E968933-CD79-43C6-9231-80D77C940F4D";
paths = (
{
closed = 1;
nodes = (
"102.075 500 LINE",
"124.075 500 LINE",
"124.075 -21 LINE SMOOTH",
"124.075 -138 OFFCURVE",
"56.075 -194 OFFCURVE",
"-26.925 -200 CURVE",
"-29.925 -180 LINE",
"54.075 -174 OFFCURVE",
"102.075 -116 OFFCURVE",
"102.075 -21 CURVE SMOOTH"
);
},
{
closed = 1;
nodes = (
"128.075 635 OFFCURVE",
"138.075 643 OFFCURVE",
"138.075 657 CURVE SMOOTH",
"138.075 672 OFFCURVE",
"128.075 680 OFFCURVE",
"116.075 680 CURVE SMOOTH",
"104.075 680 OFFCURVE",
"94.075 672 OFFCURVE",
"94.075 657 CURVE SMOOTH",
"94.075 643 OFFCURVE",
"104.075 635 OFFCURVE",
"116.075 635 CURVE SMOOTH"
);
}
);
width = 219.30181;
},
{
hints = (
{
place = "{69, 204}";
type = Stem;
},
{
place = "{83, 176}";
type = Stem;
},
{
horizontal = 1;
place = "{538, 183}";
type = Stem;
}
);
layerId = "BAF31694-0472-4296-B0EA-1654553C45D2";
paths = (
{
closed = 1;
nodes = (
"89.675 500 LINE",
"263.675 500 LINE",
"263.675 46 LINE SMOOTH",
"263.675 -127 OFFCURVE",
"131.675 -196 OFFCURVE",
"6.675 -200 CURVE",
"-17.325 -57 LINE",
"49.675 -49 OFFCURVE",
"89.675 -7 OFFCURVE",
"89.675 47 CURVE SMOOTH"
);
},
{
closed = 1;
nodes = (
"238.675 537 OFFCURVE",
"279.675 577 OFFCURVE",
"279.675 628 CURVE SMOOTH",
"279.675 680 OFFCURVE",
"238.675 720 OFFCURVE",
"177.675 720 CURVE SMOOTH",
"116.675 720 OFFCURVE",
"75.675 680 OFFCURVE",
"75.675 628 CURVE SMOOTH",
"75.675 577 OFFCURVE",
"116.675 537 OFFCURVE",
"177.675 537 CURVE SMOOTH"
);
}
);
width = 326.70606;
},
{
hints = (
{
place = "{99, 88}";
type = Stem;
},
{
place = "{408, 96}";
type = Stem;
},
{
horizontal = 1;
place = "{250, -20}";
target = down;
type = TopGhost;
}
);
layerId = "9F107B1E-3A61-4335-981B-27DD48125C7E";
paths = (
{
closed = 1;
nodes = (
"95.225 500 LINE",
"175.225 500 LINE",
"175.225 12 LINE SMOOTH",
"175.225 -129 OFFCURVE",
"83.225 -196 OFFCURVE",
"-15.775 -200 CURVE",
"-26.775 -131 LINE",
"50.225 -124 OFFCURVE",
"95.225 -73 OFFCURVE",
"95.225 13 CURVE SMOOTH"
);
},
{
closed = 1;
nodes = (
"166.225 600 OFFCURVE",
"189.225 623 OFFCURVE",
"189.225 652 CURVE SMOOTH",
"189.225 683 OFFCURVE",
"166.225 705 OFFCURVE",
"137.225 705 CURVE SMOOTH",
"107.225 705 OFFCURVE",
"84.225 683 OFFCURVE",
"84.225 652 CURVE SMOOTH",
"84.225 623 OFFCURVE",
"107.225 600 OFFCURVE",
"137.225 600 CURVE SMOOTH"
);
}
);
width = 261.90005;
}
);
leftMetricsKey = "=l*-0.35";
rightMetricsKey = "=l*0.95";
unicode = 006A;
},
